<svg xmlns="http://www.w3.org/2000/svg" width="29" height="29" viewBox="0 0 29 29" fill="none">
  <path d="M9.49565 2.58203H19.5057C23.319 2.58203 26.4173 5.68036 26.4173 9.4937V19.5037C26.4173 21.3368 25.6891 23.0948 24.3929 24.391C23.0967 25.6872 21.3387 26.4154 19.5057 26.4154H9.49565C5.68232 26.4154 2.58398 23.317 2.58398 19.5037V9.4937C2.58398 7.66061 3.31218 5.9026 4.60836 4.60641C5.90455 3.31022 7.66256 2.58203 9.49565 2.58203ZM9.25732 4.96536C8.11954 4.96536 7.02836 5.41735 6.22383 6.22188C5.4193 7.02641 4.96732 8.11759 4.96732 9.25536V19.742C4.96732 22.1134 6.8859 24.032 9.25732 24.032H19.744C20.8818 24.032 21.9729 23.58 22.7775 22.7755C23.582 21.971 24.034 20.8798 24.034 19.742V9.25536C24.034 6.88395 22.1154 4.96536 19.744 4.96536H9.25732ZM20.7569 6.75286C21.152 6.75286 21.5308 6.9098 21.8102 7.18915C22.0895 7.4685 22.2465 7.84739 22.2465 8.24245C22.2465 8.63751 22.0895 9.01639 21.8102 9.29574C21.5308 9.57509 21.152 9.73203 20.7569 9.73203C20.3618 9.73203 19.983 9.57509 19.7036 9.29574C19.4243 9.01639 19.2673 8.63751 19.2673 8.24245C19.2673 7.84739 19.4243 7.4685 19.7036 7.18915C19.983 6.9098 20.3618 6.75286 20.7569 6.75286ZM14.5007 8.54036C16.0809 8.54036 17.5964 9.16812 18.7138 10.2855C19.8312 11.4029 20.459 12.9184 20.459 14.4987C20.459 16.0789 19.8312 17.5945 18.7138 18.7119C17.5964 19.8293 16.0809 20.457 14.5007 20.457C12.9204 20.457 11.4049 19.8293 10.2875 18.7119C9.17007 17.5945 8.54232 16.0789 8.54232 14.4987C8.54232 12.9184 9.17007 11.4029 10.2875 10.2855C11.4049 9.16812 12.9204 8.54036 14.5007 8.54036ZM14.5007 10.9237C13.5525 10.9237 12.6432 11.3003 11.9727 11.9708C11.3023 12.6412 10.9257 13.5505 10.9257 14.4987C10.9257 15.4468 11.3023 16.3562 11.9727 17.0266C12.6432 17.697 13.5525 18.0737 14.5007 18.0737C15.4488 18.0737 16.3581 17.697 17.0286 17.0266C17.699 16.3562 18.0757 15.4468 18.0757 14.4987C18.0757 13.5505 17.699 12.6412 17.0286 11.9708C16.3581 11.3003 15.4488 10.9237 14.5007 10.9237Z" fill="#7D0732"/>
</svg>