<svg xmlns="http://www.w3.org/2000/svg" width="33" height="33" viewBox="0 0 33 33" fill="none">
<path fill-rule="evenodd" clip-rule="evenodd" d="M16.7144 2.5C8.98237 2.5 2.71436 8.76801 2.71436 16.5C2.71436 24.232 8.98237 30.5 16.7144 30.5C24.4463 30.5 30.7144 24.232 30.7144 16.5C30.7144 8.76801 24.4463 2.5 16.7144 2.5ZM13.3329 10.1921C13.3329 11.1267 12.5229 11.8843 11.5236 11.8843C10.5244 11.8843 9.71436 11.1267 9.71436 10.1921C9.71436 9.2576 10.5244 8.5 11.5236 8.5C12.5229 8.5 13.3329 9.2576 13.3329 10.1921ZM9.96178 13.1281H13.0546V22.5H9.96178V13.1281ZM14.9412 13.1281H18.0339V14.3305C18.5531 13.6701 19.5498 12.9401 21.1577 12.9401C23.8652 12.9401 24.6882 14.3954 24.7144 17.5537V22.5H21.6216C21.6216 21.8889 21.6173 21.2745 21.6131 20.6604V20.6601V20.6598V20.6597V20.6595C21.6071 19.7883 21.6011 18.9175 21.6072 18.0571C21.6151 16.9345 21.6254 15.4855 19.9205 15.4855C18.412 15.4855 18.0339 16.5976 18.0339 17.7049V22.5H14.9412V13.1281Z" fill="#7D0732"/>
</svg>