<svg xmlns="http://www.w3.org/2000/svg" width="26" height="25" viewBox="0 0 26 25" fill="none">
  <g clip-path="url(#clip0_810_5471)">
    <path d="M24.4218 22.5004L15.2027 10.6256L22.8205 2.49921L24.4094 0.799805H22.074L20.4852 2.49921L14.1388 9.26185L8.89355 2.49921L7.57249 0.799805H0.518556L1.83962 2.49921L10.2767 13.374L1.71549 22.5004L0.114258 24.1998H2.46202L4.05084 22.5004L11.3388 14.7359L17.3661 22.5004L18.6871 24.1998H25.7428L24.4218 22.5004ZM19.5312 22.5004L12.5251 13.4701L11.4612 12.1082L4.00296 2.49921H6.7302L12.9543 10.5154L14.0182 11.8774L22.2584 22.4986H19.5312V22.5004Z" fill="#7D0732"/>
  </g>
  <defs>
    <clipPath id="clip0_810_5471">
      <rect width="25.6286" height="23.4" fill="white" transform="translate(0.114258 0.799805)"/>
    </clipPath>
  </defs>
</svg>