<svg xmlns="http://www.w3.org/2000/svg" width="28" height="28" viewBox="0 0 28 28" fill="none">
<path fill-rule="evenodd" clip-rule="evenodd" d="M13.9995 26.25C20.765 26.25 26.2495 20.7655 26.2495 14C26.2495 7.23451 20.765 1.75 13.9995 1.75C7.23402 1.75 1.74951 7.23451 1.74951 14C1.74951 16.197 2.32788 18.259 3.34068 20.0418L1.74951 26.25L8.15002 24.7658C9.88822 25.7123 11.8811 26.25 13.9995 26.25ZM13.9995 24.3654C19.7242 24.3654 24.3649 19.7246 24.3649 14C24.3649 8.27536 19.7242 3.63462 13.9995 3.63462C8.27487 3.63462 3.63413 8.27536 3.63413 14C3.63413 16.2103 4.32595 18.259 5.50487 19.9414L4.57643 23.4231L8.11945 22.5373C9.7902 23.6902 11.816 24.3654 13.9995 24.3654Z" fill="#7D0732"/>
<path d="M10.937 8.31271C10.6458 7.7277 10.199 7.77949 9.7476 7.77949C8.94093 7.77949 7.68311 8.74574 7.68311 10.544C7.68311 12.0178 8.33253 13.6311 10.5209 16.0444C12.6328 18.3735 15.4077 19.5783 17.7114 19.5373C20.0151 19.4962 20.4891 17.5138 20.4891 16.8443C20.4891 16.5476 20.305 16.3995 20.1781 16.3593C19.3931 15.9826 17.9452 15.2806 17.6157 15.1487C17.2863 15.0168 17.1143 15.1952 17.0073 15.2922C16.7086 15.5769 16.1164 16.416 15.9136 16.6047C15.7108 16.7934 15.4085 16.6979 15.2827 16.6266C14.8198 16.4408 13.5646 15.8825 12.564 14.9126C11.3267 13.7131 11.2541 13.3004 11.0209 12.9331C10.8344 12.6392 10.9713 12.4589 11.0396 12.3801C11.3062 12.0725 11.6743 11.5975 11.8394 11.3615C12.0045 11.1255 11.8734 10.7672 11.7948 10.544C11.4566 9.58419 11.17 8.78071 10.937 8.31271Z" fill="#7D0732"/>
</svg>