<svg width="46" height="46" viewBox="0 0 46 46" fill="none" xmlns="http://www.w3.org/2000/svg">
<g clip-path="url(#clip0_512_16676)">
<path d="M40.2897 14.3812L28.5351 13.291L23.8658 2.44855C23.5389 1.68935 22.4625 1.68935 22.1356 2.44855L17.4663 13.2909L5.71172 14.3812C4.88862 14.4575 4.55605 15.4813 5.17699 16.0268L14.0459 23.818L11.4504 35.3342C11.2686 36.1406 12.1395 36.7732 12.8502 36.3513L23.0007 30.3241L33.1512 36.3513C33.862 36.7733 34.7327 36.1406 34.5511 35.3342L31.9555 23.818L40.8245 16.0268C41.4454 15.4813 41.1127 14.4575 40.2897 14.3812Z" fill="#FFDC64"/>
<path d="M10.9843 2.07534C11.5835 2.90767 13.2749 6.48219 14.2419 8.56537C14.3939 8.89285 13.983 9.18869 13.7207 8.94058C12.0519 7.36276 9.19853 4.62479 8.59929 3.79238C8.12512 3.13381 8.27462 2.21553 8.93328 1.74136C9.59184 1.26718 10.5101 1.41678 10.9843 2.07534Z" fill="#FFF082"/>
<path d="M35.017 2.07534C34.4177 2.90767 32.7264 6.48219 31.7594 8.56537C31.6073 8.89285 32.0182 9.18869 32.2806 8.94058C33.9494 7.36276 36.8027 4.6247 37.402 3.79238C37.8762 3.13381 37.7266 2.21553 37.068 1.74136C36.4094 1.26718 35.4911 1.41678 35.017 2.07534Z" fill="#FFF082"/>
<path d="M44.4857 26.4832C43.5107 26.1652 39.5912 25.6399 37.3128 25.3516C36.9546 25.3063 36.7977 25.7877 37.1136 25.9622C39.124 27.0727 42.5994 28.9592 43.5745 29.2772C44.346 29.5288 45.1754 29.1074 45.427 28.3358C45.6787 27.5642 45.2572 26.7349 44.4857 26.4832Z" fill="#FFF082"/>
<path d="M1.51413 26.4832C2.48919 26.1652 6.40868 25.6399 8.68708 25.3516C9.04523 25.3063 9.2022 25.7877 8.88624 25.9622C6.87591 27.0727 3.40044 28.9592 2.42538 29.2772C1.65388 29.5288 0.824453 29.1074 0.572822 28.3358C0.32119 27.5642 0.742627 26.7349 1.51413 26.4832Z" fill="#FFF082"/>
<path d="M21.5762 43.0663C21.5762 42.0407 22.292 38.1516 22.7245 35.896C22.7924 35.5415 23.2987 35.5415 23.3667 35.896C23.7991 38.1516 24.515 42.0407 24.515 43.0663C24.515 43.8778 23.8571 44.5357 23.0456 44.5357C22.234 44.5358 21.5762 43.8778 21.5762 43.0663Z" fill="#FFF082"/>
<path d="M25.5637 6.39133L23.8657 2.44855C23.5388 1.68935 22.4624 1.68935 22.1355 2.44855L17.4662 13.2909L5.71172 14.3812C4.88862 14.4575 4.55605 15.4813 5.17699 16.0268L14.0459 23.818L11.4504 35.3342C11.2686 36.1406 12.1395 36.7732 12.8502 36.3513L14.2012 35.5491C16.4159 21.2124 22.6423 10.6881 25.5637 6.39133Z" fill="#FFC850"/>
</g>
<defs>
<clipPath id="clip0_512_16676">
<rect width="45" height="45" fill="white" transform="translate(0.5 0.5)"/>
</clipPath>
</defs>
</svg>
