<svg width="430" height="478" viewBox="0 0 430 478" fill="none" xmlns="http://www.w3.org/2000/svg">
<g clip-path="url(#clip0_291_637)">
<path d="M288.793 374.607C287.994 383.113 286.367 391.019 284.101 398.796C280.907 409.737 276.354 420.109 270.335 429.783C266.581 435.822 262.369 441.582 257.577 446.843C245.847 459.721 232.24 470.133 216.438 477.591C215.469 478.05 214.691 478.17 213.652 477.69C204.588 473.508 196.302 468.087 188.426 461.997C183.025 457.825 178.203 453.033 173.571 448.061C164.297 438.108 157.01 426.838 151.519 414.369C147.636 405.544 144.781 396.42 142.904 386.986C142.086 382.863 141.427 378.71 141.177 374.507C141.117 373.499 141.167 372.641 142.385 372.092C150.072 368.638 156.83 363.756 163.169 358.265C164.487 357.127 164.966 357.187 165.945 358.625C174.979 371.872 187.368 380.328 203.011 383.782C211.157 385.579 219.363 385.439 227.568 383.602C238.979 381.046 248.662 375.476 256.878 367.29C259.563 364.614 261.889 361.58 263.976 358.385C264.705 357.267 265.363 357.008 266.521 358.066C272.651 363.706 279.489 368.338 286.986 371.952C288.424 372.641 289.053 373.509 288.803 374.617L288.793 374.607Z" fill="#FEF2E0"/>
<path d="M141.227 103.392C142.026 94.8869 143.653 86.9805 145.919 79.2038C149.114 68.2626 153.666 57.8904 159.685 48.217C163.439 42.1774 167.652 36.4172 172.443 31.1563C184.173 18.2784 197.78 7.86623 213.583 0.40902C214.551 -0.050192 215.33 -0.169987 216.368 0.309191C225.432 4.49202 233.718 9.91272 241.594 16.0023C246.995 20.1751 251.817 24.9669 256.449 29.9384C265.723 39.8913 273.01 51.162 278.501 63.6306C282.384 72.4554 285.239 81.5798 287.116 91.0136C287.935 95.1365 288.594 99.2894 288.843 103.492C288.903 104.5 288.853 105.359 287.635 105.908C279.948 109.362 273.19 114.244 266.851 119.734C265.533 120.872 265.054 120.812 264.076 119.375C255.041 106.128 242.653 97.6722 227.01 94.2181C218.864 92.4212 210.658 92.5609 202.452 94.3978C191.041 96.9534 181.358 102.524 173.142 110.71C170.457 113.385 168.131 116.42 166.044 119.615C165.316 120.733 164.657 120.992 163.499 119.934C157.369 114.294 150.531 109.662 143.034 106.048C141.597 105.359 140.968 104.49 141.217 103.382L141.227 103.392Z" fill="#FEF2E0"/>
<path d="M314.559 378.53C322.236 379.02 328.894 377.562 335.024 374.118C344.897 368.577 350.796 360.102 352.523 348.951C354.969 333.238 350.637 318.973 342.611 305.605C339.716 300.784 336.491 296.172 332.578 292.109C331.37 290.851 331.779 290.172 332.977 289.413C340.454 284.661 346.264 278.292 350.896 270.815C352.074 268.918 353.063 266.902 354.031 264.885C354.55 263.807 355.019 263.348 356.267 264.017C364.872 268.659 373.268 273.59 380.795 279.92C384.928 283.394 388.951 286.947 392.664 290.861C400.221 298.827 406.58 307.662 411.871 317.275C417.003 326.599 420.976 336.413 423.851 346.645C425.897 353.943 427.445 361.36 428.423 368.917C429.052 373.749 429.142 378.62 429.83 383.442C430.11 385.389 429.401 386.407 427.435 387.036C416.553 390.52 405.552 393.275 394.092 394.114C388.901 394.493 383.72 395.222 378.519 395.022C364.952 394.483 351.585 392.666 338.538 388.673C331.47 386.517 324.681 383.711 317.953 380.707C316.935 380.257 315.817 379.898 314.549 378.54L314.559 378.53Z" fill="#FEF2E0"/>
<path d="M315.317 101.615C321.127 98.6503 326.838 96.2545 332.678 94.198C340.085 91.5925 347.662 89.5859 355.418 88.2482C360.709 87.3298 366.03 86.8007 371.391 86.4213C375.194 86.1518 378.988 85.8024 382.801 85.9621C396.208 86.5411 409.435 88.2881 422.283 92.3412C423.621 92.7604 424.999 93.0699 426.336 93.4992C430.14 94.7271 430.32 94.9667 429.8 98.9199C429.082 104.39 428.742 109.901 427.944 115.382C426.416 125.824 423.691 135.926 420.067 145.799C415.345 158.647 408.707 170.477 400.321 181.279C394.831 188.356 388.511 194.656 381.603 200.416C373.976 206.765 365.561 211.816 356.956 216.618C355.658 217.347 354.799 217.756 353.931 215.899C349.229 205.856 342.381 197.611 332.987 191.581C331.789 190.812 331.44 190.183 332.588 188.886C342.181 177.954 349.419 165.735 352.294 151.29C354.72 139.101 353.781 127.411 346.394 116.899C340.933 109.122 333.237 104.84 324.072 102.893C321.307 102.304 318.452 102.673 315.327 101.625L315.317 101.615Z" fill="#FEF2E0"/>
<path d="M114.663 101.685C110.32 102.744 106.197 102.564 102.224 103.772C88.4678 107.975 80.2419 117.209 77.4367 131.085C74.4119 146.029 78.6147 159.736 85.7225 172.743C88.9469 178.643 92.7404 184.164 97.4523 189.006C98.79 190.373 97.8816 190.962 96.8034 191.641C90.2746 195.774 84.9039 201.115 80.6512 207.534C78.8343 210.279 76.7679 212.935 75.7996 216.169C75.3204 217.766 74.4319 217.387 73.3538 216.808C65.9565 212.875 58.7788 208.602 52.1203 203.491C34.8101 190.204 21.8823 173.432 13.0276 153.546C7.58694 141.337 3.99313 128.569 2.00655 115.322C1.11808 109.352 0.848541 103.343 0.0998293 97.3728C-0.139758 95.4561 0.429262 94.4578 2.47574 93.8389C13.4069 90.5345 24.398 87.6994 35.8583 86.8708C41.4686 86.4615 47.069 85.6729 52.6793 86.0023C59.9967 86.4316 67.2942 87.0904 74.5617 88.2984C87.739 90.4946 100.178 94.7972 112.227 100.388C112.956 100.727 113.644 101.136 114.663 101.675V101.685Z" fill="#FEF2E0"/>
<path d="M114.862 378.89C110.29 381.705 105.389 383.652 100.487 385.558C90.9036 389.282 80.9407 391.698 70.8281 393.405C66.6952 394.104 62.4525 394.244 58.2498 394.523C54.8656 394.743 51.5014 395.212 48.0873 395.052C33.9316 394.403 19.9557 392.686 6.41898 388.254C5.56046 387.974 4.67198 387.765 3.7935 387.525C0.269561 386.547 -0.339391 385.718 0.129801 382.104C0.838582 376.624 1.1181 371.113 1.98661 365.643C2.98489 359.353 4.21277 353.124 5.9398 347.025C10.2823 331.761 16.8111 317.505 26.0352 304.537C34.7602 292.278 45.3021 281.876 57.7806 273.431C62.8019 270.037 68.0529 267.072 73.3538 264.157C74.6815 263.428 75.2206 263.618 75.8994 265.065C79.9125 273.68 85.6027 281.008 93.1996 286.788C94.5174 287.786 95.7752 288.884 97.1828 289.733C98.4606 290.512 98.2709 291.1 97.3924 292.019C91.7521 297.949 87.3597 304.737 83.706 312.045C80.0423 319.362 77.7362 327.029 76.7779 335.195C75.8794 342.862 76.688 350.169 79.643 357.287C83.4065 366.341 89.9153 372.491 98.9897 376.095C104.081 378.121 109.342 378.82 114.852 378.88L114.862 378.89Z" fill="#FEF2E0"/>
<path d="M391.376 203.171C393.343 204.289 395.639 205.447 397.775 206.825C410.653 215.141 420.846 226.022 428.652 239.179C429.171 240.058 429.111 240.687 428.582 241.635C424.24 249.432 418.759 256.39 412.39 262.549C406.321 268.419 399.552 273.461 392.065 277.484C390.997 278.053 390.238 277.863 389.4 277.094C382.901 271.165 375.783 266.073 368.146 261.721C365.122 260.004 362.087 258.317 359.002 256.699C357.764 256.051 357.385 255.322 357.764 253.914C360.2 244.87 359.841 235.775 357.794 226.731C357.455 225.213 357.894 224.794 359.122 224.165C369.893 218.635 380.116 212.256 389.16 204.12C389.719 203.62 390.198 203.021 391.376 203.161V203.171Z" fill="#FEF2E0"/>
<path d="M72.2357 226.132C71.1975 230.554 70.4887 235.017 70.3789 239.579C70.2591 244.49 70.918 249.312 72.056 254.054C72.4154 255.551 72.036 256.14 70.8181 256.769C62.1231 261.252 53.7375 266.213 46.0907 272.363C44.2239 273.86 42.407 275.427 40.6301 277.025C39.7217 277.843 38.943 278.093 37.765 277.444C29.7788 273.111 22.5911 267.681 16.2221 261.262C10.442 255.442 5.48058 248.923 1.29778 241.845C0.788653 240.986 0.758705 240.358 1.32773 239.389C7.20761 229.287 14.4751 220.412 23.6693 213.084C28.0917 209.56 32.7237 206.446 37.6253 203.67C38.7433 203.032 39.5519 202.992 40.5003 203.87C49.7244 212.316 60.2563 218.824 71.3572 224.455C72.2057 224.884 72.4952 225.303 72.2457 226.152L72.2357 226.132Z" fill="#FEF2E0"/>
<path d="M128.978 275.397C119.245 275.857 110.889 272.183 104.211 265.414C95.5456 256.63 91.9817 245.858 94.6072 233.569C97.8516 218.365 107.585 209.171 122.479 205.917C132.642 203.7 142.115 206.446 150.541 212.675C153.376 214.771 155.592 217.407 157.729 220.162C158.737 221.47 158.647 222.268 157.11 223.017C151.29 225.842 145.719 229.097 140.468 232.89C138.592 234.248 136.805 235.715 134.918 237.043C132.512 238.73 132.562 242.264 135.187 244.191C141.936 249.142 148.794 253.914 156.361 257.558C159.116 258.886 159.086 259.045 157.349 261.451C151.389 269.657 139.61 276.216 128.998 275.407L128.978 275.397Z" fill="#FEF2E0"/>
<path d="M249.87 154.415C250.15 164.218 246.476 171.995 240.456 178.773C238.779 180.67 236.563 182.087 234.576 183.715C233.468 184.623 232.949 183.844 232.54 182.936C230.044 177.495 226.84 172.464 223.535 167.493C221.888 165.017 220.101 162.631 218.235 160.325C216.388 158.039 213.812 157.939 211.855 160.165C207.952 164.578 204.778 169.539 201.823 174.62C200.325 177.196 198.948 179.851 197.61 182.517C196.741 184.234 195.763 184.334 194.306 183.206C186.729 177.326 181.877 169.739 180.21 160.305C178.683 151.65 180.4 143.484 185.102 136.086C192.589 124.307 203.6 118.756 217.376 119.475C231.092 120.184 243.361 129.847 247.854 142.306C249.341 146.419 250.07 150.592 249.88 154.435L249.87 154.415Z" fill="#FEF2E0"/>
<path d="M249.79 326.28C250.559 342.323 238.709 356.698 223.725 360.431C211.955 363.366 201.324 360.871 192.04 352.934C184.752 346.715 180.829 338.849 180.03 329.315C178.992 316.896 183.584 306.953 192.998 299.047C193.247 298.837 193.487 298.598 193.737 298.378C196.043 296.371 196.242 296.421 197.63 299.037C201.473 306.284 205.926 313.153 210.777 319.761C213.413 323.355 216.827 322.876 219.193 319.582C224.074 312.773 228.617 305.785 232.4 298.308C233.169 296.801 233.698 296.701 235.155 297.709C243.461 303.489 247.963 311.565 249.76 321.309C250.06 322.916 249.8 324.623 249.8 326.28H249.79Z" fill="#FEF2E0"/>
<path d="M301.132 275.457C289.302 275.547 279.879 270.705 272.631 261.461C270.754 259.065 270.804 258.896 273.539 257.578C280.877 254.034 287.565 249.452 294.144 244.71C297.758 242.114 297.748 238.87 294.124 236.274C287.396 231.453 280.577 226.741 273.05 223.227C271.084 222.308 271.084 221.38 272.252 219.862C278.082 212.236 285.689 207.264 295.142 205.797C306.263 204.07 316.176 206.995 324.622 214.751C332.009 221.54 335.752 230.005 336.022 239.798C336.481 256.42 324.971 270.795 308.559 274.878C306.093 275.487 303.628 275.347 301.132 275.467V275.457Z" fill="#FEF2E0"/>
<path d="M330.122 140.898C329.972 150.651 325.899 158.947 320.419 166.694C316.575 172.124 312.053 176.926 306.962 181.199C306.133 181.898 305.335 182.277 304.276 182.177C296.779 181.488 289.512 182.696 282.384 184.892C280.607 185.441 280.108 185.092 280.647 183.165C281.086 181.598 281.226 179.911 281.236 178.264C281.256 175.748 279.739 174.34 277.203 174.201C275.196 174.091 273.27 174.6 271.333 174.979C270.105 175.219 269.766 175.029 270.215 173.791C272.89 166.364 273.709 158.677 273.28 150.841C273.17 148.854 274.747 147.846 275.756 146.718C283.822 137.713 293.146 130.446 304.875 126.732C309.318 125.325 313.78 124.606 318.482 125.315C325.041 126.303 330.092 131.813 330.132 138.412C330.132 139.241 330.132 140.069 330.132 140.898H330.122ZM301.272 165.725C307.77 165.745 313.161 160.434 313.161 154.015C313.161 147.586 307.94 142.315 301.561 142.295C294.933 142.285 289.771 147.287 289.731 153.746C289.702 160.544 294.673 165.705 301.272 165.725Z" fill="#FEF2E0"/>
<path d="M149.453 185.661C142.914 182.866 136.156 182.427 129.447 181.718C129.198 181.688 128.918 181.628 128.709 181.718C124.666 183.355 122.23 180.79 119.674 178.374C112.936 172.005 107.236 164.877 103.342 156.382C101.156 151.6 99.5388 146.598 99.3991 141.377C99.1994 134.1 101.705 128.03 109.891 125.624C114.942 124.137 120.014 125.195 124.955 126.682C132.622 128.989 139.141 133.311 145.36 138.203C149.223 141.247 152.438 144.911 155.702 148.545C156.361 149.284 156.78 150.022 156.631 150.991C155.622 157.41 156.96 163.609 158.437 169.789C158.747 171.066 159.106 172.354 159.615 173.562C160.294 175.179 159.785 175.179 158.358 174.87C156.511 174.47 154.604 174.271 152.717 174.211C150.152 174.121 148.794 175.589 148.654 178.104C148.525 180.52 149.263 182.826 149.463 185.641L149.453 185.661ZM128.299 165.725C134.918 165.745 140.179 160.564 140.189 154.026C140.189 147.587 134.978 142.316 128.599 142.296C121.97 142.286 116.789 147.277 116.759 153.726C116.729 160.484 121.751 165.706 128.299 165.725Z" fill="#FEF2E0"/>
<path d="M273.3 325.362C273.519 319.332 272.371 313.532 270.395 307.872C269.896 306.434 269.696 305.356 271.902 306.055C273.15 306.454 274.478 306.604 275.785 306.764C279.699 307.253 281.805 305.097 281.246 301.173C281.056 299.876 280.877 298.548 280.497 297.3C279.928 295.433 280.797 295.553 282.075 295.972C288.004 297.929 294.094 299.376 300.323 298.718C304.845 298.238 307.81 300.255 310.735 303.07C318.472 310.517 324.681 318.993 328.345 329.165C330.372 334.806 331.08 340.636 329.433 346.456C327.886 351.906 323.374 355.111 317.723 355.67C308.06 356.628 299.784 353.024 291.898 348.063C285.269 343.89 279.429 338.799 274.478 332.699C273.689 331.721 273.23 330.832 273.3 329.585C273.38 328.177 273.32 326.759 273.32 325.352L273.3 325.362ZM301.461 338.709C307.83 338.709 313.151 333.418 313.171 327.069C313.201 320.51 307.96 315.279 301.391 315.279C294.843 315.279 289.751 320.36 289.741 326.899C289.741 333.628 294.773 338.709 301.461 338.709Z" fill="#FEF2E0"/>
<path d="M149.433 295.273C149.293 298.129 148.494 300.435 148.644 302.85C148.784 305.156 150.162 306.764 152.508 306.764C154.394 306.764 156.311 306.564 158.158 306.175C159.645 305.855 159.815 306.424 159.466 307.552C158.348 311.186 157.219 314.83 156.96 318.643C156.72 322.237 155.492 325.791 156.571 329.445C156.87 330.463 156.481 331.451 155.822 332.24C146.917 342.852 136.405 351.188 122.779 354.861C117.827 356.199 112.716 356.688 107.765 354.602C103.202 352.675 100.607 349.111 99.8182 344.269C98.3208 335.055 101.775 326.999 106.137 319.312C110.42 311.765 116.18 305.376 122.918 299.876C123.657 299.277 124.316 298.787 125.334 298.837C133.5 299.227 141.516 298.458 149.443 295.293L149.433 295.273ZM128.249 338.709C134.748 338.739 140.169 333.428 140.179 327.029C140.189 320.58 134.988 315.289 128.609 315.279C121.96 315.259 116.779 320.241 116.749 326.69C116.709 333.508 121.661 338.689 128.249 338.709Z" fill="#FEF2E0"/>
<path d="M297.019 103.183C296.031 103.183 296.3 102.434 296.22 101.935C295.332 96.9133 294.553 91.872 293.375 86.8905C291.798 80.192 289.692 73.6832 287.136 67.3141C286.537 65.8267 286.527 64.8284 287.825 63.6604C295.192 57.0118 303.737 52.4296 313.011 49.1053C314.948 48.4165 317.045 48.157 318.921 47.3484C320.858 46.5198 322.066 47.0189 323.384 48.4964C331.989 58.1598 337.569 69.3406 340.514 81.8991C340.894 83.5263 339.775 83.8857 338.607 84.2151C328.535 87.0503 318.851 90.8937 309.607 95.7753C305.664 97.8617 301.881 100.258 298.037 102.524C297.678 102.733 297.348 102.983 297.039 103.193L297.019 103.183Z" fill="#FEF2E0"/>
<path d="M340.574 398.596C339.486 403.138 338.328 407.261 336.611 411.224C333.167 419.18 328.744 426.508 322.904 432.967C321.856 434.125 320.918 434.225 319.46 433.855C308.389 431.02 298.467 425.959 289.512 418.881C286.258 416.315 286.098 415.996 287.655 412.202C291.738 402.21 294.453 391.867 295.741 381.146C296.19 377.412 296.16 377.452 299.345 379.369C311.235 386.516 323.633 392.526 337.04 396.33C338.408 396.719 340.614 396.459 340.584 398.606L340.574 398.596Z" fill="#FEF2E0"/>
<path d="M143.343 65.9069C142.884 66.9551 142.235 68.203 141.756 69.5207C137.983 79.9528 135.058 90.6146 133.77 101.656C133.5 103.932 132.772 103.103 131.713 102.414C120.063 94.8074 107.465 89.2469 94.2478 85.0042C89.0468 83.337 88.9569 83.2971 90.4044 78.106C93.4791 67.1049 98.8499 57.3416 106.347 48.7164C107.725 47.1291 109.152 46.8796 111.189 47.4087C122.769 50.4135 133.101 55.7244 142.056 63.6608C143.443 64.8887 143.373 64.9586 143.343 65.897V65.9069Z" fill="#FEF2E0"/>
<path d="M109.562 433.936C107.286 434.015 106.347 432.408 105.389 431.19C97.9616 421.816 92.2514 411.574 89.6159 399.764C89.1967 397.887 89.7058 397.199 91.3829 396.749C101.166 394.124 110.46 390.221 119.465 385.648C123.737 383.482 127.82 380.936 131.913 378.441C133.281 377.602 133.54 377.642 133.76 379.329C135.317 391.249 138.222 402.839 142.914 413.93C143.453 415.218 143.433 416.146 142.285 417.174C135.557 423.224 127.89 427.686 119.475 430.941C116.16 432.219 112.806 433.317 109.572 433.926L109.562 433.936Z" fill="#FEF2E0"/>
<path d="M275.785 205.317C276.584 202.073 277.373 199.068 278.061 196.033C278.351 194.775 279.259 194.316 280.268 193.917C287.885 190.902 295.761 189.055 303.987 189.684C314.918 190.523 324.651 194.386 333.207 201.384C340.953 207.723 346.404 215.65 349.229 225.093C354.47 242.534 351.425 258.606 339.875 272.871C332.677 281.756 323.374 287.357 312.352 289.982C301.042 292.678 290.041 291.47 279.479 286.518C278.84 286.219 278.361 285.969 278.161 285.22C277.453 282.505 276.674 279.81 275.925 277.094C275.815 276.685 275.785 276.246 276.275 276.046C276.824 275.816 277.203 276.186 277.622 276.465C280.937 278.731 284.53 280.369 288.384 281.487C302.869 285.719 316.236 283.194 327.826 273.77C338.298 265.245 343.848 253.964 343.609 240.148C343.299 222.528 334.924 209.67 319.52 201.963C305.434 194.925 291.179 196.013 277.692 204.479C277.343 204.698 277.003 204.938 276.644 205.138C276.504 205.218 276.324 205.208 275.795 205.317H275.785Z" fill="#FEF2E0"/>
<path d="M179.861 179.721C176.387 178.823 173.142 177.964 169.888 177.156C169.149 176.976 169.159 176.337 168.889 175.858C166.464 171.535 165.385 166.773 164.647 161.952C163.099 151.769 164.627 142.006 169.079 132.742C173.212 124.127 179.252 117.179 187.318 111.938C192.758 108.404 198.618 105.958 204.907 104.77C215.03 102.863 224.973 103.602 234.566 107.705C240.816 110.38 246.396 114.044 251.108 118.906C259.254 127.301 264.006 137.304 265.403 149.024C266.501 158.188 264.814 166.763 261.35 175.139C260.941 176.137 260.472 177.016 259.204 177.325C256.249 178.024 253.334 178.893 249.72 179.871C256.808 168.99 259.484 157.749 256.848 145.49C254.203 133.201 247.185 123.927 236.613 117.548C221 108.134 200.904 110.56 187.787 121.282C172.513 133.77 165.575 157.869 179.871 179.711L179.861 179.721Z" fill="#FEF2E0"/>
<path d="M154.235 275.347C153.286 278.931 152.458 282.006 151.679 285.091C151.469 285.939 150.86 286.299 150.172 286.608C145.39 288.735 140.448 290.212 135.217 290.891C122.928 292.498 111.688 289.633 101.366 283.094C93.0599 277.833 86.9803 270.556 82.8075 261.611C78.9142 253.255 77.6764 244.46 78.465 235.456C79.3235 225.603 82.9473 216.708 89.2265 208.951C93.7188 203.401 98.9997 198.889 105.349 195.584C110.909 192.689 116.719 190.902 122.958 190.084C131.474 188.966 139.56 190.273 147.526 193.148C150.202 194.117 152.098 195.474 152.458 198.599C152.707 200.775 153.526 202.892 154.105 205.068C129.996 192.19 108.773 194.935 92.6805 217.886C82.3483 232.611 84.1552 253.435 95.306 267.082C102.484 275.867 111.618 281.327 123.028 282.934C134.309 284.522 144.441 281.707 154.235 275.347Z" fill="#FEF2E0"/>
<path d="M250.2 301.283C253.244 302.092 256.019 302.86 258.825 303.539C260.073 303.839 260.781 304.568 261.31 305.706C263.447 310.248 264.615 315.05 265.304 319.981C266.951 331.851 264.375 342.872 258.146 352.994C251.577 363.686 242.243 370.964 230.214 374.757C217.286 378.83 204.658 377.952 192.599 371.982C177.914 364.714 168.82 352.765 165.176 336.802C162.76 326.21 164.367 315.948 168.3 305.945C168.869 304.508 169.748 303.639 171.285 303.33C173.472 302.88 175.618 302.281 177.804 301.802C178.313 301.692 178.952 301.093 179.391 301.732C179.791 302.301 179.232 302.791 178.912 303.27C176.067 307.612 173.991 312.294 173.012 317.396C170.337 331.232 173.312 343.611 182.556 354.422C188.815 361.749 196.612 366.531 206.006 368.298C220.371 371.004 233.229 367.809 244.16 357.686C250.639 351.687 254.862 344.419 256.788 335.894C259.384 324.394 257.377 313.562 251.208 303.509C250.908 303.02 250.579 302.541 250.299 302.032C250.229 301.902 250.259 301.712 250.209 301.263L250.2 301.283Z" fill="#FEF2E0"/>
<path d="M115.082 109.841C125.963 109.731 135.657 113.605 144.901 118.876C150.311 121.96 155.153 125.834 159.705 130.086C160.813 131.125 160.953 132.033 160.384 133.331C159.755 134.768 159.076 136.226 158.777 137.743C158.397 139.71 157.739 139.211 156.81 138.212C153.446 134.639 149.712 131.474 145.729 128.659C135.866 121.701 125.294 116.909 112.806 117.298C101.605 117.638 92.0815 127.151 91.792 138.382C91.5125 148.994 94.9166 158.348 100.457 167.163C103.911 172.653 107.874 177.725 112.586 182.187C113.974 183.495 113.754 184.134 111.997 184.533C111.518 184.643 110.999 184.753 110.59 185.002C107.066 187.119 104.63 185.761 102.224 182.886C93.1996 172.084 86.3115 160.185 84.5445 146.059C83.3466 136.495 84.4946 127.062 91.223 119.365C95.4956 114.483 101.086 111.708 107.425 110.36C109.981 109.821 112.536 109.951 115.102 109.851L115.082 109.841Z" fill="#FEF2E0"/>
<path d="M315.148 109.891C326.508 109.532 335.433 113.954 341.552 123.598C344.078 127.581 345.186 132.133 345.535 136.775C346.194 145.62 344.337 154.075 340.833 162.152C337.14 170.657 331.949 178.204 325.61 184.972C324.482 186.17 323.523 186.899 321.826 185.841C320.728 185.162 319.35 184.923 318.073 184.583C316.286 184.104 315.926 183.515 317.454 182.087C322.205 177.655 326.139 172.534 329.553 167.033C334.834 158.528 338.418 149.463 338.118 139.221C337.749 126.523 328.505 117.528 316.196 117.289C306.183 117.099 297.388 120.473 289.013 125.465C283.223 128.919 277.982 133.081 273.38 138.003C271.942 139.54 271.333 139.151 270.894 137.364C270.794 136.965 270.654 136.576 270.524 136.176C269.346 132.702 270.172 129.771 273 127.381C283.562 118.467 295.432 112.237 309.188 109.941C309.437 109.901 309.687 109.861 309.927 109.861C311.674 109.861 313.411 109.861 315.158 109.861L315.148 109.891Z" fill="#FEF2E0"/>
<path d="M314.708 371.153C303.877 371.113 294.164 367.39 284.94 362.079C279.539 358.974 274.647 355.191 270.155 350.858C268.987 349.73 268.817 348.722 269.466 347.394C269.686 346.945 269.916 346.506 270.095 346.036C271.872 341.534 271.802 341.604 275.406 345.038C284.421 353.633 294.643 360.302 306.962 362.887C315.996 364.784 324.861 364.245 331.909 357.077C337.519 351.367 338.727 344.219 337.958 336.622C336.98 326.979 332.857 318.504 327.467 310.677C324.571 306.474 321.377 302.401 317.514 298.977C315.827 297.49 316.256 296.821 318.182 296.381C318.742 296.252 319.291 296.042 319.84 295.852C324.282 294.305 324.322 294.265 327.417 297.909C335.842 307.822 342.311 318.793 344.787 331.741C346.594 341.195 346.084 350.459 340.634 358.764C336.281 365.383 329.872 369.087 322.136 370.634C319.67 371.133 317.204 371.113 314.708 371.153Z" fill="#FEF2E0"/>
<path d="M84.3049 340.625C84.3149 327.348 89.496 315.878 96.7535 305.146C99.1194 301.642 101.815 298.388 104.879 295.453C105.678 294.684 106.307 294.305 107.455 294.864C108.863 295.543 110.39 296.012 111.907 296.411C113.884 296.94 113.834 297.629 112.446 298.927C105.518 305.396 100.138 313.013 96.1745 321.598C92.5707 329.405 90.8237 337.531 92.2812 346.196C93.7087 354.721 101.326 362.009 109.801 363.227C120.293 364.744 129.637 361.709 138.582 356.857C145.3 353.204 151.27 348.472 156.6 342.961C157.669 341.853 158.507 341.164 158.817 343.46C158.907 344.099 159.246 344.708 159.466 345.337C161.392 350.648 161.841 349.021 157.679 352.744C149.832 359.742 140.987 365.233 130.895 368.497C122.319 371.273 113.624 372.321 104.78 369.855C93.6189 366.75 87.3097 359.163 84.824 348.063C84.275 345.597 84.3948 343.121 84.2949 340.635L84.3049 340.625Z" fill="#FEF2E0"/>
<path d="M214.74 217.068C227.868 217.068 238.4 227.48 238.39 240.447C238.39 253.605 227.908 263.947 214.601 263.927C202.082 263.917 191.041 252.966 191.461 239.789C191.85 227.609 202.302 216.808 214.74 217.068ZM199.497 240.507C198.708 248.564 206.674 256.071 214.75 256.081C223.256 256.091 230.523 248.703 230.503 240.607C230.483 231.553 222.926 225.044 214.99 224.894C206.914 224.744 198.828 232.222 199.497 240.507Z" fill="#FEF2E0"/>
<path d="M246.476 240.507C245.637 235.007 245.947 229.436 244.958 223.965C244.469 221.26 245.008 220.831 247.584 221.53C260.661 225.114 272.651 231.003 283.861 238.54C286.776 240.497 286.757 240.437 283.772 242.494C272.641 250.18 260.532 255.751 247.544 259.465C245.048 260.183 244.439 259.764 244.938 257.238C246.037 251.698 245.567 246.038 246.476 240.497V240.507Z" fill="#FEF2E0"/>
<path d="M197.161 270.536C203.49 271.015 209.809 272.153 216.158 271.824C221.249 271.554 226.39 271.514 231.432 270.506C234.247 269.937 234.676 270.516 233.878 273.291C230.144 286.109 224.584 298.059 217.057 309.09C216.727 309.569 216.328 309.988 216.038 310.487C215.16 311.995 214.411 311.755 213.553 310.437C209.969 304.967 206.465 299.446 203.65 293.546C200.395 286.748 197.71 279.72 195.773 272.413C195.414 271.045 195.564 270.276 197.181 270.526L197.161 270.536Z" fill="#FEF2E0"/>
<path d="M184.872 258.527C185.081 260.064 184.213 260.014 183.065 259.704C178.503 258.467 174.001 257.039 169.658 255.182C161.113 251.529 152.837 247.346 145.24 241.905C143.852 240.907 143.273 240.497 145.09 239.18C155.802 231.403 167.612 225.922 180.24 222.149C181.617 221.74 183.205 220.482 184.473 221.3C186.04 222.309 184.562 224.046 184.473 225.433C184.113 231.533 183.225 237.622 183.584 243.752C183.864 248.683 184.423 253.605 184.862 258.537L184.872 258.527Z" fill="#FEF2E0"/>
<path d="M232.7 210.469C226.051 209.82 219.392 208.821 212.704 209.161C207.693 209.42 202.641 209.56 197.68 210.469C195.833 210.808 195.284 210.309 195.833 208.352C198.948 197.191 203.46 186.659 209.579 176.816C210.937 174.64 212.295 172.464 213.712 170.328C214.331 169.399 215.01 168.81 215.958 170.178C224.224 182.047 230.413 194.875 234.067 208.901C234.447 210.369 234.117 210.688 232.7 210.469Z" fill="#FEF2E0"/>
<path d="M157 296.741C157.978 292.398 158.827 288.016 159.985 283.723C161.752 277.165 163.928 270.746 166.633 264.496C167.192 263.189 167.791 262.629 169.249 263.248C174.45 265.445 179.921 266.802 185.331 268.34C186.499 268.669 186.829 269.208 187.158 270.276C188.715 275.408 189.814 280.688 191.93 285.64C192.619 287.257 192.289 288.156 190.592 288.864C180.32 293.127 169.748 296.302 158.787 298.218C157.559 298.428 157.06 297.979 157.01 296.741H157Z" fill="#FEF2E0"/>
<path d="M271.293 182.696C272.501 182.607 272.901 183.126 272.701 184.204C271.044 193.318 268.828 202.273 265.393 210.898C264.595 212.895 263.756 214.871 262.918 216.858C262.498 217.846 261.87 218.246 260.751 217.786C255.461 215.6 249.95 214.123 244.42 212.705C243.541 212.475 243.062 212.236 242.782 211.238C241.165 205.597 239.937 199.837 237.571 194.426C237.172 193.518 237.462 192.819 238.4 192.42C248.942 187.947 259.893 184.843 271.124 182.716C271.203 182.696 271.293 182.716 271.273 182.716L271.293 182.696Z" fill="#FEF2E0"/>
<path d="M271.892 298.368C262.938 296.771 254.862 294.764 247.015 291.899C244.449 290.961 241.954 289.853 239.388 288.944C237.741 288.365 237.102 287.547 237.831 285.8C239.967 280.678 241.405 275.328 242.752 269.967C243.022 268.899 243.471 268.569 244.479 268.28C249.96 266.732 255.52 265.444 260.781 263.208C262.279 262.569 262.718 263.608 263.157 264.606C265.873 270.825 268.029 277.234 269.806 283.773C270.934 287.916 271.753 292.109 272.571 296.312C272.831 297.659 272.781 298.458 271.892 298.368Z" fill="#FEF2E0"/>
<path d="M158.098 182.636C167.003 184.234 175.089 186.24 182.945 189.105C185.591 190.074 188.176 191.182 190.822 192.12C192.129 192.589 192.748 193.079 192.139 194.626C190.003 200.007 188.436 205.587 187.058 211.207C186.849 212.066 186.379 212.385 185.561 212.605C180.05 214.082 174.55 215.61 169.229 217.636C167.572 218.265 167.142 217.626 166.563 216.229C162.351 206.126 159.216 195.714 157.309 184.932C157.08 183.665 156.91 182.517 158.108 182.626L158.098 182.636Z" fill="#FEF2E0"/>
<path d="M301.322 157.739C298.846 157.689 297.638 156.372 297.718 153.796C297.788 151.41 299.036 150.242 301.481 150.252C303.708 150.262 305.285 151.929 305.205 154.195C305.135 156.262 303.468 157.769 301.332 157.729L301.322 157.739Z" fill="#FEF2E0"/>
<path d="M124.726 153.766C124.805 151.39 126.083 150.212 128.559 150.262C130.775 150.302 132.332 152.029 132.213 154.305C132.093 156.371 130.366 157.849 128.2 157.739C126.133 157.639 124.656 155.942 124.726 153.766Z" fill="#FEF2E0"/>
<path d="M297.718 326.759C297.798 324.373 299.075 323.215 301.551 323.255C303.767 323.295 305.335 325.022 305.205 327.298C305.085 329.365 303.358 330.842 301.192 330.733C299.125 330.633 297.648 328.936 297.718 326.759Z" fill="#FEF2E0"/>
<path d="M128.389 323.255C130.565 323.235 132.163 324.753 132.203 326.889C132.243 329.055 130.725 330.682 128.609 330.742C126.333 330.802 124.706 329.205 124.726 326.929C124.745 324.503 125.963 323.285 128.389 323.255Z" fill="#FEF2E0"/>
<path d="M206.994 240.298C206.974 236.424 210.897 232.571 214.91 232.531C218.973 232.491 222.897 236.394 222.897 240.497C222.897 244.151 218.883 248.364 215.3 248.464C210.947 248.584 207.004 244.71 206.984 240.308L206.994 240.298Z" fill="#FEF2E0"/>
</g>
<defs>
<clipPath id="clip0_291_637">
<rect width="430" height="478" fill="white"/>
</clipPath>
</defs>
</svg>
