<svg width="210" height="234" viewBox="0 0 210 234" fill="none" xmlns="http://www.w3.org/2000/svg">
<g clip-path="url(#clip0_330_590)">
<path d="M141.039 182.948C140.649 187.102 139.854 190.963 138.747 194.761C137.187 200.104 134.964 205.17 132.024 209.894C130.191 212.843 128.134 215.657 125.793 218.226C120.065 224.515 113.42 229.6 105.702 233.242C105.229 233.466 104.849 233.525 104.342 233.291C99.9151 231.248 95.8686 228.601 92.022 225.627C89.3844 223.589 87.0296 221.249 84.7675 218.821C80.2383 213.96 76.6793 208.456 73.9979 202.366C72.1014 198.056 70.707 193.6 69.7905 188.993C69.3907 186.98 69.0689 184.952 68.947 182.899C68.9178 182.407 68.9421 181.987 69.5369 181.719C73.2909 180.032 76.5915 177.648 79.6874 174.967C80.3309 174.411 80.5649 174.44 81.0427 175.142C85.4549 181.612 91.5052 185.741 99.1448 187.428C103.123 188.306 107.131 188.238 111.138 187.34C116.711 186.092 121.44 183.372 125.452 179.374C126.764 178.068 127.9 176.585 128.918 175.025C129.274 174.479 129.596 174.353 130.162 174.869C133.155 177.624 136.495 179.886 140.156 181.651C140.858 181.987 141.165 182.411 141.043 182.953L141.039 182.948Z" fill="#FEF2E0"/>
<path d="M68.9714 50.4941C69.3614 46.3403 70.1561 42.479 71.2628 38.6811C72.8229 33.3377 75.046 28.2722 77.9859 23.548C79.819 20.5984 81.8764 17.7853 84.2165 15.216C89.945 8.92679 96.5901 3.8418 104.308 0.199905C104.781 -0.0243619 105.161 -0.0828662 105.668 0.151151C110.095 2.19393 114.141 4.84124 117.988 7.81521C120.626 9.85311 122.98 12.1933 125.242 14.6212C129.772 19.4819 133.331 24.9862 136.012 31.0755C137.909 35.3854 139.303 39.8414 140.219 44.4486C140.619 46.4622 140.941 48.4903 141.063 50.5428C141.092 51.0353 141.068 51.4545 140.473 51.7227C136.719 53.4096 133.418 55.7936 130.323 58.475C129.679 59.0308 129.445 59.0016 128.967 58.2995C124.555 51.8299 118.505 47.7005 110.865 46.0136C106.887 45.1361 102.879 45.2043 98.8718 46.1014C93.2993 47.3495 88.5702 50.0699 84.5578 54.0677C83.2463 55.3743 82.1104 56.8564 81.0914 58.4165C80.7355 58.9626 80.4138 59.0893 79.8482 58.5726C76.8548 55.818 73.5152 53.5558 69.8538 51.7909C69.1518 51.4545 68.8446 51.0304 68.9665 50.4892L68.9714 50.4941Z" fill="#FEF2E0"/>
<path d="M153.622 184.864C157.371 185.103 160.623 184.391 163.616 182.709C168.438 180.003 171.319 175.864 172.163 170.418C173.357 162.744 171.241 155.777 167.321 149.249C165.908 146.895 164.333 144.642 162.422 142.658C161.832 142.044 162.032 141.712 162.617 141.342C166.268 139.021 169.106 135.91 171.368 132.259C171.943 131.332 172.426 130.348 172.899 129.363C173.152 128.836 173.381 128.612 173.991 128.939C178.193 131.206 182.294 133.614 185.97 136.705C187.988 138.402 189.953 140.137 191.766 142.048C195.457 145.939 198.562 150.254 201.146 154.949C203.652 159.502 205.593 164.295 206.997 169.292C207.996 172.856 208.752 176.478 209.23 180.169C209.537 182.529 209.581 184.908 209.917 187.263C210.054 188.213 209.708 188.711 208.747 189.018C203.433 190.719 198.06 192.065 192.463 192.474C189.928 192.66 187.398 193.015 184.858 192.918C178.232 192.655 171.704 191.767 165.332 189.817C161.881 188.764 158.565 187.394 155.279 185.927C154.782 185.707 154.236 185.532 153.617 184.869L153.622 184.864Z" fill="#FEF2E0"/>
<path d="M153.992 49.6262C156.83 48.1783 159.618 47.0082 162.471 46.0039C166.088 44.7314 169.788 43.7514 173.577 43.0981C176.16 42.6496 178.759 42.3912 181.377 42.206C183.235 42.0743 185.087 41.9037 186.95 41.9817C193.497 42.2645 199.957 43.1176 206.231 45.097C206.885 45.3018 207.558 45.4529 208.211 45.6626C210.068 46.2623 210.156 46.3793 209.903 48.3099C209.552 50.9816 209.386 53.6728 208.996 56.3494C208.25 61.449 206.919 66.3829 205.149 71.2046C202.843 77.4792 199.601 83.2565 195.506 88.5316C192.824 91.9882 189.738 95.0646 186.365 97.8777C182.64 100.978 178.53 103.445 174.327 105.79C173.694 106.146 173.274 106.346 172.85 105.439C170.554 100.535 167.209 96.5077 162.622 93.563C162.037 93.1876 161.866 92.8804 162.427 92.2466C167.112 86.9081 170.646 80.9407 172.051 73.886C173.235 67.9332 172.777 62.2242 169.169 57.0904C166.502 53.2925 162.744 51.201 158.268 50.2503C156.918 49.9626 155.523 50.143 153.997 49.6311L153.992 49.6262Z" fill="#FEF2E0"/>
<path d="M55.998 49.6604C53.8772 50.1772 51.8637 50.0894 49.9233 50.6794C43.2051 52.7319 39.1879 57.2416 37.8179 64.0183C36.3407 71.3167 38.3932 78.0106 41.8644 84.3632C43.4392 87.2445 45.2918 89.9406 47.5929 92.3052C48.2462 92.9731 47.8026 93.2607 47.276 93.5922C44.0876 95.6106 41.4646 98.219 39.3878 101.354C38.5004 102.695 37.4912 103.991 37.0183 105.571C36.7843 106.351 36.3504 106.166 35.8239 105.883C32.2113 103.962 28.7059 101.875 25.4541 99.3793C17.0002 92.8902 10.6867 84.6996 6.36226 74.9879C3.70521 69.0253 1.95009 62.7897 0.979897 56.3201C0.545992 53.4047 0.414358 50.4697 0.0487084 47.5542C-0.0682995 46.6182 0.209594 46.1306 1.20904 45.8284C6.54752 44.2146 11.9153 42.83 17.5121 42.4254C20.2521 42.2255 22.9871 41.8403 25.7271 42.0012C29.3007 42.2109 32.8646 42.5326 36.4138 43.1225C42.8492 44.1951 48.9239 46.2964 54.8084 49.0266C55.1643 49.1924 55.5007 49.3923 55.998 49.6555V49.6604Z" fill="#FEF2E0"/>
<path d="M56.0957 185.039C53.8628 186.414 51.469 187.365 49.0752 188.296C44.3949 190.115 39.5293 191.294 34.5906 192.128C32.5722 192.469 30.5002 192.538 28.4477 192.674C26.795 192.781 25.152 193.011 23.4846 192.933C16.5714 192.616 9.74595 191.777 3.135 189.612C2.71572 189.476 2.28181 189.374 1.85279 189.257C0.131794 188.779 -0.165602 188.374 0.063539 186.609C0.409688 183.933 0.546197 181.241 0.970351 178.57C1.45788 175.498 2.05755 172.456 2.90098 169.477C5.02175 162.023 8.21022 155.061 12.715 148.728C16.9761 142.741 22.1244 137.661 28.2186 133.536C30.6709 131.878 33.2353 130.43 35.8241 129.007C36.4725 128.651 36.7358 128.744 37.0673 129.451C39.0272 133.658 41.8061 137.236 45.5162 140.059C46.1598 140.547 46.7741 141.083 47.4615 141.498C48.0855 141.878 47.9929 142.165 47.5639 142.614C44.8093 145.51 42.6642 148.825 40.8798 152.394C39.0906 155.968 37.9644 159.712 37.4963 163.7C37.0576 167.444 37.4525 171.013 38.8955 174.489C40.7335 178.911 43.9123 181.914 48.3439 183.674C50.8304 184.664 53.3997 185.005 56.0908 185.035L56.0957 185.039Z" fill="#FEF2E0"/>
<path d="M191.137 99.2233C192.098 99.7694 193.219 100.335 194.262 101.008C200.552 105.069 205.529 110.383 209.342 116.809C209.595 117.238 209.566 117.545 209.308 118.008C207.187 121.816 204.51 125.214 201.4 128.222C198.436 131.089 195.13 133.551 191.474 135.515C190.952 135.793 190.582 135.701 190.172 135.325C186.998 132.429 183.522 129.943 179.793 127.817C178.315 126.979 176.833 126.155 175.327 125.365C174.722 125.048 174.537 124.692 174.722 124.005C175.912 119.588 175.736 115.146 174.737 110.729C174.571 109.988 174.786 109.783 175.385 109.476C180.646 106.775 185.638 103.66 190.055 99.6865C190.328 99.4427 190.562 99.1502 191.137 99.2184V99.2233Z" fill="#FEF2E0"/>
<path d="M35.2781 110.437C34.771 112.596 34.4249 114.776 34.3713 117.004C34.3128 119.402 34.6345 121.757 35.1903 124.073C35.3658 124.804 35.1806 125.092 34.5858 125.399C30.3394 127.588 26.2441 130.011 22.5096 133.014C21.5979 133.746 20.7106 134.511 19.8428 135.291C19.3991 135.691 19.0189 135.813 18.4436 135.496C14.5433 133.38 11.0331 130.728 7.9226 127.593C5.09979 124.751 2.67675 121.567 0.633986 118.11C0.385344 117.691 0.370718 117.384 0.648612 116.911C3.52018 111.977 7.06942 107.643 11.5596 104.065C13.7194 102.344 15.9815 100.822 18.3753 99.4671C18.9213 99.1551 19.3163 99.1356 19.7794 99.5646C24.2842 103.689 29.4277 106.868 34.8491 109.618C35.2635 109.827 35.4048 110.032 35.283 110.446L35.2781 110.437Z" fill="#FEF2E0"/>
<path d="M62.9894 134.497C58.236 134.721 54.1553 132.927 50.8937 129.621C46.662 125.331 44.9215 120.07 46.2037 114.069C47.7882 106.644 52.5416 102.153 59.8156 100.564C64.7787 99.4817 69.4054 100.822 73.5202 103.865C74.9048 104.888 75.9871 106.176 77.0304 107.521C77.5228 108.16 77.4789 108.55 76.7281 108.916C73.8858 110.295 71.1654 111.885 68.6009 113.737C67.6844 114.4 66.8117 115.117 65.8903 115.765C64.7153 116.589 64.7397 118.315 66.0219 119.256C69.3176 121.674 72.667 124.005 76.3625 125.784C77.7081 126.433 77.6934 126.511 76.8451 127.686C73.9346 131.693 68.1817 134.896 62.9992 134.501L62.9894 134.497Z" fill="#FEF2E0"/>
<path d="M122.03 75.4121C122.166 80.1997 120.372 83.9976 117.432 87.3079C116.613 88.2342 115.531 88.9265 114.561 89.7212C114.019 90.1649 113.766 89.7846 113.566 89.341C112.347 86.6839 110.782 84.2267 109.168 81.7988C108.364 80.5897 107.491 79.4245 106.58 78.2983C105.678 77.1818 104.42 77.1331 103.464 78.2203C101.558 80.3752 100.008 82.7982 98.5646 85.2798C97.8333 86.5376 97.1605 87.8345 96.5073 89.1362C96.0831 89.9747 95.6053 90.0235 94.8935 89.4726C91.1931 86.601 88.8237 82.8957 88.0096 78.2885C87.2636 74.0616 88.1022 70.0735 90.3985 66.4609C94.055 60.708 99.4325 57.9973 106.16 58.3483C112.859 58.6945 118.851 63.4138 121.045 69.4982C121.771 71.5069 122.127 73.5448 122.034 75.4218L122.03 75.4121Z" fill="#FEF2E0"/>
<path d="M121.991 159.346C122.366 167.181 116.579 174.201 109.261 176.025C103.513 177.458 98.3208 176.239 93.7868 172.363C90.2278 169.326 88.3118 165.484 87.9218 160.828C87.4147 154.763 89.6574 149.908 94.2548 146.046C94.3767 145.944 94.4937 145.827 94.6156 145.72C95.7418 144.74 95.8393 144.764 96.517 146.041C98.394 149.581 100.568 152.935 102.938 156.163C104.225 157.918 105.892 157.684 107.048 156.075C109.432 152.75 111.65 149.337 113.498 145.686C113.873 144.949 114.132 144.901 114.843 145.393C118.9 148.216 121.098 152.16 121.976 156.918C122.122 157.703 121.995 158.537 121.995 159.346H121.991Z" fill="#FEF2E0"/>
<path d="M147.064 134.526C141.287 134.57 136.685 132.205 133.145 127.691C132.229 126.52 132.253 126.438 133.589 125.794C137.172 124.063 140.439 121.825 143.652 119.51C145.417 118.242 145.412 116.658 143.642 115.39C140.356 113.035 137.026 110.734 133.35 109.018C132.39 108.569 132.39 108.116 132.96 107.375C135.807 103.65 139.522 101.222 144.139 100.506C149.57 99.6621 154.412 101.091 158.536 104.879C162.144 108.194 163.972 112.328 164.104 117.111C164.328 125.228 158.707 132.249 150.692 134.243C149.488 134.54 148.283 134.472 147.064 134.531V134.526Z" fill="#FEF2E0"/>
<path d="M161.222 68.8109C161.149 73.5741 159.16 77.6255 156.484 81.4088C154.607 84.061 152.398 86.4061 149.912 88.4927C149.507 88.834 149.117 89.0193 148.6 88.9705C144.939 88.6341 141.39 89.224 137.909 90.2966C137.041 90.5647 136.797 90.3941 137.06 89.4532C137.275 88.6877 137.343 87.8638 137.348 87.0594C137.358 85.8308 136.617 85.1433 135.378 85.0751C134.398 85.0215 133.457 85.2701 132.512 85.4554C131.912 85.5724 131.746 85.4797 131.966 84.8752C133.272 81.2479 133.672 77.4939 133.462 73.6668C133.409 72.6966 134.179 72.2041 134.671 71.6532C138.611 67.2557 143.164 63.7064 148.893 61.8928C151.062 61.2053 153.242 60.8543 155.538 61.2005C158.741 61.6831 161.208 64.3743 161.227 67.5969C161.227 68.0016 161.227 68.4062 161.227 68.8109H161.222ZM147.133 80.9359C150.307 80.9457 152.939 78.352 152.939 75.2171C152.939 72.0774 150.389 69.5032 147.274 69.4934C144.037 69.4886 141.516 71.9311 141.497 75.0855C141.482 78.4056 143.91 80.9262 147.133 80.9359Z" fill="#FEF2E0"/>
<path d="M72.9887 90.6719C69.7953 89.3068 66.4947 89.0923 63.2185 88.7462C63.0966 88.7315 62.9601 88.7023 62.8577 88.7462C60.8832 89.5457 59.6937 88.2928 58.4456 87.1129C55.1547 84.0024 52.3709 80.5214 50.4695 76.3725C49.4018 74.0372 48.612 71.5947 48.5438 69.0448C48.4463 65.4907 49.67 62.5265 53.6678 61.3515C56.1347 60.6251 58.6113 61.1419 61.0246 61.8683C64.7689 62.9945 67.9525 65.1056 70.9898 67.4945C72.8766 68.9815 74.4464 70.7707 76.0406 72.5454C76.3624 72.9061 76.5672 73.2669 76.494 73.7398C76.0016 76.8747 76.6549 79.9023 77.3765 82.9201C77.5276 83.5442 77.7031 84.1731 77.9518 84.763C78.2833 85.5528 78.0347 85.5528 77.3375 85.4017C76.4355 85.2067 75.5044 85.1091 74.5829 85.0799C73.33 85.036 72.6669 85.7527 72.5987 86.9813C72.5353 88.1611 72.8961 89.2873 72.9936 90.6622L72.9887 90.6719ZM62.6579 80.9358C65.8902 80.9456 68.4595 78.4153 68.4644 75.2219C68.4644 72.0773 65.9195 69.5031 62.8041 69.4934C59.5669 69.4885 57.0366 71.9262 57.022 75.0757C57.0074 78.3763 59.4596 80.9261 62.6579 80.9358Z" fill="#FEF2E0"/>
<path d="M133.472 158.898C133.579 155.953 133.019 153.12 132.053 150.356C131.809 149.654 131.712 149.127 132.789 149.469C133.399 149.664 134.047 149.737 134.686 149.815C136.597 150.054 137.626 149.001 137.353 147.085C137.26 146.451 137.172 145.802 136.987 145.193C136.709 144.281 137.133 144.34 137.757 144.545C140.653 145.5 143.627 146.207 146.669 145.885C148.878 145.651 150.326 146.636 151.754 148.011C155.533 151.648 158.565 155.787 160.355 160.755C161.344 163.51 161.69 166.357 160.886 169.199C160.13 171.861 157.927 173.426 155.167 173.699C150.448 174.167 146.406 172.407 142.555 169.984C139.317 167.946 136.465 165.46 134.047 162.481C133.662 162.003 133.438 161.569 133.472 160.96C133.511 160.273 133.482 159.58 133.482 158.893L133.472 158.898ZM147.225 165.416C150.336 165.416 152.934 162.832 152.944 159.731C152.959 156.528 150.399 153.974 147.191 153.974C143.993 153.974 141.506 156.455 141.502 159.648C141.502 162.934 143.959 165.416 147.225 165.416Z" fill="#FEF2E0"/>
<path d="M72.9789 144.203C72.9106 145.598 72.5206 146.724 72.5937 147.904C72.662 149.03 73.3348 149.815 74.4805 149.815C75.4019 149.815 76.338 149.717 77.2399 149.527C77.9664 149.371 78.0492 149.649 77.8786 150.2C77.3326 151.975 76.7816 153.754 76.6549 155.617C76.5379 157.372 75.9382 159.107 76.4648 160.892C76.611 161.389 76.4209 161.872 76.0991 162.257C71.7503 167.439 66.6166 171.51 59.9618 173.304C57.5436 173.958 55.0474 174.197 52.6293 173.178C50.4012 172.237 49.1336 170.496 48.7485 168.132C48.0172 163.632 49.7041 159.697 51.8346 155.943C53.9261 152.257 56.7392 149.137 60.03 146.451C60.3908 146.158 60.7126 145.919 61.2098 145.944C65.1979 146.134 69.1128 145.759 72.9838 144.213L72.9789 144.203ZM62.6334 165.416C65.8073 165.431 68.4546 162.837 68.4595 159.712C68.4643 156.562 65.9243 153.978 62.8089 153.974C59.562 153.964 57.0317 156.397 57.0171 159.546C56.9976 162.876 59.4157 165.406 62.6334 165.416Z" fill="#FEF2E0"/>
<path d="M145.056 50.3918C144.573 50.3918 144.705 50.0261 144.666 49.7823C144.232 47.33 143.852 44.868 143.276 42.4352C142.506 39.1638 141.477 35.9851 140.229 32.8746C139.937 32.1482 139.932 31.6606 140.566 31.0902C144.164 27.8432 148.337 25.6054 152.866 23.9819C153.812 23.6455 154.836 23.5188 155.752 23.1239C156.698 22.7192 157.288 22.963 157.932 23.6846C162.134 28.4039 164.859 33.8643 166.298 39.9975C166.483 40.7922 165.937 40.9677 165.366 41.1286C160.447 42.5132 155.718 44.3902 151.204 46.7742C149.278 47.7932 147.43 48.9633 145.553 50.07C145.378 50.1724 145.217 50.2943 145.066 50.3966L145.056 50.3918Z" fill="#FEF2E0"/>
<path d="M166.327 194.663C165.795 196.882 165.23 198.895 164.391 200.831C162.709 204.716 160.55 208.295 157.697 211.449C157.186 212.015 156.727 212.064 156.016 211.883C150.609 210.499 145.763 208.027 141.39 204.57C139.8 203.317 139.722 203.161 140.483 201.309C142.477 196.428 143.803 191.377 144.432 186.141C144.651 184.318 144.636 184.337 146.192 185.273C151.998 188.764 158.053 191.699 164.601 193.557C165.269 193.747 166.346 193.62 166.332 194.668L166.327 194.663Z" fill="#FEF2E0"/>
<path d="M70.005 32.1871C69.7807 32.699 69.4639 33.3084 69.2298 33.952C67.387 39.0467 65.9585 44.2536 65.3296 49.6458C65.1979 50.7574 64.842 50.3527 64.3253 50.0163C58.6357 46.3013 52.4831 43.5857 46.0281 41.5137C43.4881 40.6995 43.4442 40.68 44.1511 38.1448C45.6527 32.7722 48.2757 28.0041 51.937 23.7917C52.6098 23.0166 53.307 22.8947 54.3016 23.1531C59.957 24.6206 65.0029 27.2142 69.3761 31.0902C70.0538 31.6898 70.0196 31.724 70.005 32.1822V32.1871Z" fill="#FEF2E0"/>
<path d="M53.5067 211.922C52.3952 211.961 51.9369 211.176 51.4688 210.581C47.8416 206.003 45.0529 201.001 43.7658 195.234C43.5611 194.317 43.8097 193.981 44.6288 193.761C49.4066 192.479 53.9455 190.573 58.3431 188.34C60.4297 187.282 62.4237 186.039 64.4226 184.82C65.0905 184.41 65.2173 184.43 65.3245 185.254C66.0851 191.075 67.5038 196.735 69.7952 202.152C70.0585 202.781 70.0487 203.234 69.4881 203.736C66.2021 206.691 62.4578 208.87 58.3479 210.459C56.7293 211.083 55.0912 211.62 53.5116 211.917L53.5067 211.922Z" fill="#FEF2E0"/>
<path d="M134.686 100.271C135.076 98.687 135.461 97.2195 135.797 95.7374C135.939 95.1231 136.383 94.8988 136.875 94.7038C140.595 93.2315 144.441 92.3295 148.459 92.6367C153.797 93.0462 158.551 94.933 162.729 98.3506C166.512 101.446 169.174 105.317 170.554 109.93C173.113 118.447 171.626 126.296 165.986 133.263C162.47 137.602 157.927 140.337 152.544 141.619C147.021 142.936 141.648 142.346 136.49 139.928C136.178 139.781 135.944 139.66 135.846 139.294C135.5 137.968 135.12 136.651 134.754 135.325C134.701 135.125 134.686 134.911 134.925 134.813C135.193 134.701 135.378 134.882 135.583 135.018C137.202 136.125 138.957 136.924 140.839 137.47C147.913 139.538 154.441 138.304 160.101 133.702C165.215 129.538 167.926 124.029 167.809 117.282C167.658 108.677 163.567 102.397 156.045 98.6334C149.166 95.1962 142.204 95.7277 135.617 99.862C135.446 99.9692 135.281 100.086 135.105 100.184C135.037 100.223 134.949 100.218 134.691 100.271H134.686Z" fill="#FEF2E0"/>
<path d="M87.839 87.7711C86.1423 87.3323 84.5579 86.913 82.9685 86.5181C82.6077 86.4303 82.6126 86.1183 82.481 85.8843C81.2963 83.7733 80.7697 81.4477 80.409 79.0929C79.6533 74.1201 80.3992 69.352 82.5736 64.8276C84.592 60.6202 87.5416 57.2269 91.4808 54.6674C94.1379 52.9415 96.9997 51.747 100.071 51.1669C105.015 50.2357 109.871 50.5965 114.556 52.6002C117.608 53.9068 120.333 55.6961 122.634 58.0704C126.612 62.1706 128.933 67.0557 129.616 72.7793C130.152 77.2549 129.328 81.4428 127.636 85.5333C127.436 86.0208 127.207 86.4498 126.588 86.601C125.145 86.9423 123.721 87.3664 121.957 87.8442C125.418 82.53 126.725 77.0404 125.438 71.0535C124.146 65.0519 120.718 60.5227 115.555 57.4073C107.93 52.8099 98.1162 53.9946 91.71 59.2307C84.2507 65.3298 80.8624 77.0989 87.8438 87.7662L87.839 87.7711Z" fill="#FEF2E0"/>
<path d="M75.324 134.472C74.8608 136.222 74.4562 137.724 74.0759 139.23C73.9735 139.645 73.6761 139.82 73.3397 139.972C71.0044 141.01 68.5911 141.732 66.0365 142.063C60.0349 142.848 54.5453 141.449 49.5042 138.255C45.4479 135.686 42.4789 132.132 40.441 127.764C38.5396 123.683 37.9351 119.388 38.3202 114.99C38.7395 110.178 40.5092 105.834 43.5758 102.046C45.7697 99.3354 48.3488 97.1317 51.4495 95.518C54.165 94.1041 57.0025 93.2315 60.0496 92.8317C64.2082 92.2856 68.1572 92.9243 72.0477 94.3284C73.3543 94.8013 74.2807 95.4644 74.4562 96.9904C74.578 98.0532 74.9778 99.0868 75.2606 100.15C63.4867 93.8604 53.1217 95.2011 45.2627 106.41C40.2167 113.601 41.0991 123.771 46.5449 130.435C50.0503 134.726 54.5112 137.392 60.0837 138.177C65.5928 138.953 70.5413 137.578 75.324 134.472Z" fill="#FEF2E0"/>
<path d="M122.191 147.138C123.677 147.533 125.033 147.909 126.403 148.24C127.012 148.386 127.358 148.742 127.617 149.298C128.66 151.516 129.23 153.861 129.567 156.27C130.371 162.067 129.113 167.449 126.071 172.393C122.863 177.614 118.305 181.168 112.43 183.021C106.117 185.01 99.9493 184.581 94.0599 181.666C86.8882 178.116 82.4468 172.281 80.6673 164.485C79.4875 159.312 80.2724 154.3 82.1933 149.415C82.4712 148.713 82.9002 148.289 83.651 148.138C84.7187 147.918 85.7669 147.626 86.8346 147.392C87.0833 147.338 87.3953 147.046 87.6098 147.358C87.8048 147.636 87.5318 147.874 87.3758 148.108C85.9863 150.229 84.9722 152.516 84.4945 155.007C83.1879 161.764 84.6407 167.81 89.1553 173.09C92.2121 176.668 96.0197 179.004 100.607 179.867C107.623 181.188 113.902 179.628 119.241 174.684C122.405 171.754 124.467 168.205 125.408 164.041C126.676 158.425 125.696 153.135 122.683 148.225C122.537 147.987 122.376 147.753 122.239 147.504C122.205 147.441 122.22 147.348 122.195 147.129L122.191 147.138Z" fill="#FEF2E0"/>
<path d="M56.2028 53.6436C61.5169 53.5899 66.2508 55.4816 70.7654 58.0558C73.4078 59.5623 75.7724 61.4539 77.9955 63.5308C78.5367 64.0378 78.6049 64.4815 78.327 65.1153C78.0199 65.8173 77.6884 66.5291 77.5421 67.2702C77.3568 68.2306 77.0351 67.9869 76.5817 67.4993C74.9387 65.754 73.1153 64.2085 71.17 62.8336C66.3532 59.4355 61.1902 57.0953 55.0912 57.2855C49.6211 57.4512 44.97 62.0974 44.8286 67.5822C44.6921 72.7647 46.3546 77.3329 49.0604 81.6379C50.7473 84.3193 52.6828 86.796 54.9839 88.9753C55.6616 89.614 55.5544 89.926 54.6963 90.121C54.4623 90.1746 54.2088 90.2283 54.0089 90.3501C52.2879 91.3837 51.0983 90.7207 49.9234 89.3166C45.5161 84.0414 42.1521 78.23 41.2891 71.3314C40.7041 66.6608 41.2648 62.0536 44.5507 58.2947C46.6374 55.9106 49.3676 54.5553 52.4634 53.8971C53.7115 53.6338 54.9596 53.6972 56.2125 53.6484L56.2028 53.6436Z" fill="#FEF2E0"/>
<path d="M153.909 53.6679C159.457 53.4924 163.816 55.6522 166.805 60.3618C168.038 62.3071 168.579 64.5302 168.75 66.7973C169.072 71.1168 168.165 75.2463 166.454 79.1904C164.65 83.3442 162.115 87.03 159.019 90.3355C158.468 90.9205 158 91.2765 157.171 90.7597C156.635 90.4281 155.962 90.3111 155.338 90.1454C154.465 89.9113 154.29 89.6237 155.036 88.9265C157.356 86.7619 159.277 84.2608 160.944 81.5745C163.524 77.4207 165.274 72.9939 165.128 67.9917C164.947 61.7903 160.433 57.3976 154.421 57.2806C149.531 57.188 145.236 58.8358 141.146 61.2735C138.318 62.9604 135.759 64.9934 133.511 67.397C132.809 68.1478 132.512 67.9576 132.297 67.0849C132.248 66.8899 132.18 66.6998 132.117 66.5048C131.541 64.8081 131.944 63.3764 133.326 62.2096C138.484 57.8559 144.281 54.8137 150.999 53.6923C151.121 53.6728 151.243 53.6533 151.36 53.6533C152.213 53.6533 153.061 53.6533 153.914 53.6533L153.909 53.6679Z" fill="#FEF2E0"/>
<path d="M153.695 181.261C148.405 181.241 143.661 179.423 139.157 176.829C136.519 175.313 134.13 173.465 131.936 171.349C131.366 170.798 131.283 170.306 131.6 169.658C131.707 169.438 131.819 169.224 131.907 168.995C132.775 166.796 132.741 166.83 134.501 168.507C138.903 172.705 143.895 175.961 149.912 177.224C154.324 178.151 158.653 177.887 162.095 174.387C164.835 171.598 165.425 168.107 165.05 164.397C164.572 159.688 162.558 155.548 159.926 151.726C158.512 149.674 156.952 147.684 155.065 146.012C154.241 145.286 154.451 144.959 155.392 144.745C155.665 144.681 155.933 144.579 156.201 144.486C158.37 143.73 158.39 143.711 159.901 145.491C164.016 150.332 167.175 155.69 168.384 162.013C169.267 166.63 169.018 171.154 166.356 175.211C164.23 178.443 161.101 180.252 157.322 181.007C156.118 181.251 154.914 181.241 153.695 181.261Z" fill="#FEF2E0"/>
<path d="M41.1724 166.352C41.1772 159.868 43.7075 154.266 47.2519 149.025C48.4073 147.314 49.7237 145.724 51.2204 144.291C51.6104 143.916 51.9176 143.73 52.4782 144.003C53.1657 144.335 53.9116 144.564 54.6526 144.759C55.618 145.018 55.5936 145.354 54.9159 145.988C51.5324 149.147 48.9046 152.867 46.9691 157.06C45.2091 160.872 44.3559 164.841 45.0677 169.073C45.7649 173.236 49.4848 176.795 53.6239 177.39C58.7479 178.131 63.3112 176.649 67.6795 174.279C70.9606 172.495 73.8761 170.184 76.4795 167.493C77.0012 166.952 77.4107 166.615 77.5618 167.737C77.6057 168.049 77.7715 168.346 77.8787 168.653C78.8197 171.247 79.039 170.452 77.006 172.271C73.174 175.688 68.8545 178.37 63.9255 179.964C59.7376 181.319 55.4912 181.831 51.1717 180.627C45.721 179.111 42.6398 175.406 41.4259 169.984C41.1577 168.78 41.2162 167.571 41.1675 166.357L41.1724 166.352Z" fill="#FEF2E0"/>
<path d="M104.873 106.01C111.284 106.01 116.428 111.095 116.423 117.428C116.423 123.854 111.304 128.904 104.805 128.895C98.6914 128.89 93.2993 123.542 93.5041 117.106C93.6942 111.158 98.7987 105.883 104.873 106.01ZM97.4287 117.457C97.0436 121.392 100.934 125.058 104.878 125.063C109.032 125.068 112.581 121.46 112.571 117.506C112.562 113.084 108.871 109.905 104.995 109.832C101.051 109.759 97.1021 113.411 97.4287 117.457Z" fill="#FEF2E0"/>
<path d="M120.372 117.457C119.962 114.771 120.114 112.05 119.631 109.379C119.392 108.057 119.655 107.848 120.913 108.189C127.3 109.939 133.155 112.816 138.63 116.497C140.054 117.452 140.044 117.423 138.586 118.427C133.15 122.181 127.236 124.902 120.894 126.715C119.675 127.066 119.377 126.862 119.621 125.628C120.157 122.922 119.928 120.158 120.372 117.452V117.457Z" fill="#FEF2E0"/>
<path d="M96.2878 132.122C99.3788 132.356 102.465 132.912 105.566 132.751C108.052 132.619 110.563 132.6 113.025 132.108C114.4 131.83 114.609 132.112 114.219 133.468C112.396 139.728 109.68 145.564 106.004 150.951C105.843 151.185 105.648 151.39 105.507 151.633C105.078 152.37 104.712 152.253 104.293 151.609C102.543 148.937 100.832 146.241 99.4568 143.36C97.8674 140.04 96.556 136.608 95.6102 133.039C95.4347 132.371 95.5078 131.995 96.2976 132.117L96.2878 132.122Z" fill="#FEF2E0"/>
<path d="M90.2864 126.257C90.3887 127.008 89.9646 126.984 89.4039 126.832C87.1759 126.228 84.9771 125.531 82.8564 124.624C78.6831 122.84 74.6414 120.797 70.9313 118.14C70.2536 117.652 69.9709 117.452 70.8582 116.809C76.0894 113.011 81.8569 110.334 88.0242 108.491C88.697 108.291 89.4722 107.677 90.0913 108.077C90.8568 108.569 90.1352 109.418 90.0913 110.095C89.9158 113.074 89.4819 116.048 89.6574 119.042C89.794 121.45 90.067 123.854 90.2815 126.262L90.2864 126.257Z" fill="#FEF2E0"/>
<path d="M113.644 102.787C110.397 102.47 107.145 101.983 103.879 102.149C101.431 102.275 98.9645 102.344 96.5414 102.787C95.6395 102.953 95.3713 102.709 95.6395 101.754C97.1606 96.303 99.3642 91.1595 102.353 86.3524C103.016 85.2895 103.679 84.2267 104.371 83.1834C104.673 82.73 105.005 82.4423 105.468 83.1103C109.505 88.9071 112.528 95.1719 114.312 102.022C114.497 102.738 114.336 102.894 113.644 102.787Z" fill="#FEF2E0"/>
<path d="M76.6744 144.92C77.1522 142.799 77.5666 140.659 78.1322 138.563C78.9951 135.359 80.0579 132.225 81.3791 129.173C81.6521 128.534 81.9447 128.261 82.6565 128.563C85.1965 129.636 87.8682 130.299 90.5106 131.05C91.081 131.21 91.2419 131.474 91.4028 131.995C92.1634 134.501 92.6996 137.08 93.7332 139.499C94.0696 140.288 93.9087 140.727 93.0799 141.073C88.0632 143.155 82.9002 144.705 77.5471 145.642C76.9475 145.744 76.7037 145.525 76.6793 144.92H76.6744Z" fill="#FEF2E0"/>
<path d="M132.492 89.224C133.082 89.1801 133.277 89.4336 133.18 89.9602C132.37 94.4114 131.288 98.7846 129.611 102.997C129.221 103.972 128.811 104.937 128.402 105.907C128.197 106.39 127.89 106.585 127.344 106.361C124.76 105.293 122.069 104.572 119.368 103.879C118.939 103.767 118.705 103.65 118.568 103.163C117.778 100.408 117.179 97.595 116.023 94.9525C115.828 94.5089 115.97 94.1676 116.428 93.9726C121.576 91.7884 126.924 90.2722 132.409 89.2337C132.448 89.224 132.492 89.2337 132.482 89.2337L132.492 89.224Z" fill="#FEF2E0"/>
<path d="M132.785 145.715C128.411 144.935 124.467 143.955 120.635 142.556C119.382 142.097 118.164 141.556 116.911 141.112C116.106 140.83 115.794 140.43 116.15 139.577C117.193 137.076 117.895 134.462 118.554 131.844C118.685 131.323 118.905 131.162 119.397 131.02C122.074 130.265 124.789 129.636 127.358 128.544C128.09 128.232 128.304 128.739 128.519 129.226C129.845 132.264 130.898 135.394 131.766 138.587C132.317 140.61 132.716 142.658 133.116 144.71C133.243 145.369 133.219 145.759 132.785 145.715Z" fill="#FEF2E0"/>
<path d="M77.2106 89.1947C81.5594 89.9748 85.5085 90.9547 89.3453 92.3539C90.6373 92.8268 91.9 93.368 93.192 93.8263C93.8306 94.0554 94.1329 94.2943 93.8355 95.05C92.7922 97.6778 92.0268 100.403 91.354 103.148C91.2516 103.567 91.0225 103.723 90.6227 103.831C87.9315 104.552 85.2452 105.298 82.6466 106.288C81.8373 106.595 81.6277 106.283 81.3449 105.6C79.2875 100.666 77.7567 95.5814 76.8255 90.316C76.7134 89.6969 76.6305 89.1362 77.2155 89.1898L77.2106 89.1947Z" fill="#FEF2E0"/>
<path d="M147.157 77.0356C145.948 77.0112 145.358 76.3677 145.397 75.1098C145.431 73.9446 146.041 73.3742 147.235 73.3791C148.322 73.3839 149.093 74.1981 149.054 75.3048C149.019 76.314 148.205 77.0502 147.162 77.0307L147.157 77.0356Z" fill="#FEF2E0"/>
<path d="M60.9124 75.0952C60.9514 73.9348 61.5755 73.3595 62.7845 73.3839C63.8669 73.4034 64.6274 74.2469 64.5689 75.3584C64.5104 76.3676 63.667 77.0892 62.609 77.0356C61.5998 76.9868 60.8783 76.158 60.9124 75.0952Z" fill="#FEF2E0"/>
<path d="M145.397 159.58C145.436 158.415 146.06 157.85 147.269 157.869C148.351 157.889 149.117 158.732 149.054 159.844C148.995 160.853 148.152 161.574 147.094 161.521C146.084 161.472 145.363 160.643 145.397 159.58Z" fill="#FEF2E0"/>
<path d="M62.7017 157.869C63.7645 157.859 64.5446 158.6 64.5641 159.644C64.5836 160.702 63.8425 161.496 62.8089 161.526C61.6974 161.555 60.9027 160.775 60.9124 159.663C60.9222 158.478 61.517 157.884 62.7017 157.869Z" fill="#FEF2E0"/>
<path d="M101.09 117.355C101.08 115.463 102.996 113.581 104.956 113.562C106.94 113.542 108.856 115.448 108.856 117.452C108.856 119.237 106.897 121.294 105.146 121.343C103.021 121.401 101.095 119.51 101.085 117.36L101.09 117.355Z" fill="#FEF2E0"/>
</g>
<defs>
<clipPath id="clip0_330_590">
<rect width="210" height="233.442" fill="white"/>
</clipPath>
</defs>
</svg>
