<svg width="121" height="479" viewBox="0 0 121 479" fill="none" xmlns="http://www.w3.org/2000/svg">
<g clip-path="url(#clip0_370_9354)">
<path d="M5.29029 379.411C12.9849 379.901 19.659 378.44 25.8027 374.988C35.6986 369.435 41.6122 360.939 43.3432 349.763C45.7947 334.013 41.4521 319.714 33.4073 306.316C30.5055 301.483 27.2735 296.86 23.3512 292.788C22.1404 291.527 22.5507 290.847 23.7514 290.086C31.2459 285.323 37.0695 278.94 41.7123 271.445C42.893 269.544 43.8836 267.523 44.8542 265.501C45.3745 264.421 45.8448 263.96 47.0955 264.631C55.7207 269.284 64.1358 274.227 71.6803 280.571C75.8228 284.053 79.8553 287.615 83.5775 291.537C91.1521 299.522 97.5259 308.377 102.829 318.013C107.972 327.359 111.955 337.195 114.836 347.451C116.888 354.766 118.439 362.2 119.419 369.775C120.05 374.618 120.14 379.501 120.83 384.334C121.11 386.285 120.4 387.306 118.429 387.936C107.522 391.428 96.4953 394.19 85.0084 395.03C79.8052 395.41 74.6121 396.141 69.399 395.941C55.8008 395.4 42.4027 393.579 29.3248 389.577C22.2405 387.416 15.4364 384.604 8.69234 381.592C7.67172 381.142 6.55104 380.782 5.28027 379.421L5.29029 379.411Z" fill="#FEF2E0"/>
<path d="M6.05029 101.852C11.8738 98.8801 17.5973 96.4787 23.4508 94.4174C30.8753 91.8058 38.4699 89.7946 46.2446 88.4538C51.5478 87.5332 56.881 87.0029 62.2542 86.6227C66.0665 86.3525 69.8688 86.0023 73.6911 86.1624C87.1292 86.7428 100.387 88.4938 113.265 92.5563C114.606 92.9765 115.987 93.2867 117.327 93.717C121.14 94.9478 121.32 95.1879 120.8 99.1503C120.079 104.634 119.739 110.157 118.938 115.65C117.407 126.117 114.676 136.243 111.044 146.139C106.311 159.017 99.6568 170.874 91.2517 181.701C85.7484 188.795 79.4146 195.109 72.4904 200.882C64.8458 207.246 56.4107 212.309 47.7855 217.122C46.4847 217.853 45.6242 218.263 44.7537 216.402C40.0408 206.336 33.1767 198.071 23.761 192.027C22.5603 191.256 22.2101 190.626 23.3608 189.325C32.9766 178.369 40.2309 166.121 43.1127 151.642C45.5441 139.425 44.6036 127.708 37.1991 117.171C31.7258 109.377 24.0111 105.084 14.8256 103.133C12.0539 102.542 9.1922 102.913 6.06031 101.862L6.05029 101.852Z" fill="#FEF2E0"/>
<path d="M82.2864 203.644C84.2576 204.765 86.559 205.925 88.7003 207.306C101.608 215.641 111.824 226.548 119.649 239.736C120.169 240.616 120.109 241.247 119.579 242.197C115.226 250.012 109.733 256.986 103.349 263.16C97.2655 269.044 90.4814 274.097 82.9769 278.129C81.9062 278.7 81.1458 278.51 80.3053 277.739C73.7913 271.795 66.657 266.692 59.0024 262.33C55.9706 260.609 52.9287 258.918 49.8369 257.297C48.5961 256.646 48.2159 255.916 48.5961 254.505C51.0376 245.439 50.6774 236.324 48.6262 227.258C48.286 225.737 48.7262 225.317 49.9569 224.687C60.7535 219.143 70.9996 212.749 80.0651 204.595C80.6254 204.094 81.1057 203.494 82.2864 203.634V203.644Z" fill="#FEF2E0"/>
<path d="M-8.16792 276.098C-20.0251 276.188 -29.4708 271.335 -36.7351 262.069C-38.6163 259.668 -38.5662 259.498 -35.8246 258.177C-28.4701 254.625 -21.7661 250.032 -15.1721 245.279C-11.55 242.677 -11.56 239.425 -15.1921 236.824C-21.9362 231.991 -28.7703 227.268 -36.3149 223.746C-38.2861 222.825 -38.2861 221.895 -37.1154 220.374C-31.2718 212.729 -23.6473 207.746 -14.1715 206.275C-3.02481 204.544 6.91118 207.476 15.3763 215.251C22.7807 222.055 26.533 230.54 26.8032 240.356C27.2635 257.016 15.7265 271.425 -0.723425 275.517C-3.19492 276.128 -5.66641 275.988 -8.16792 276.108V276.098Z" fill="#FEF2E0"/>
<path d="M20.8897 141.226C20.7396 151.002 16.6571 159.317 11.1638 167.081C7.31147 172.525 2.77873 177.338 -2.32435 181.62C-3.15485 182.321 -3.95534 182.701 -5.01598 182.601C-12.5305 181.911 -19.8149 183.121 -26.9592 185.323C-28.7403 185.873 -29.2406 185.523 -28.7002 183.592C-28.26 182.021 -28.1199 180.33 -28.1099 178.679C-28.0899 176.157 -29.6108 174.746 -32.1523 174.606C-34.1636 174.496 -36.0947 175.006 -38.0359 175.387C-39.2666 175.627 -39.6068 175.437 -39.1566 174.196C-36.4749 166.751 -35.6544 159.047 -36.0847 151.192C-36.1948 149.201 -34.6138 148.19 -33.6032 147.059C-25.5183 138.034 -16.1727 130.749 -4.41561 127.027C0.037076 125.616 4.50978 124.896 9.22262 125.606C15.7966 126.597 20.8597 132.12 20.8997 138.734C20.8997 139.565 20.8997 140.395 20.8997 141.226H20.8897ZM-8.02777 166.111C-1.51384 166.131 3.88942 160.808 3.88942 154.374C3.88942 147.93 -1.34376 142.647 -7.73762 142.627C-14.3816 142.617 -19.5547 147.63 -19.5947 154.104C-19.6248 160.918 -14.6418 166.091 -8.02777 166.111Z" fill="#FEF2E0"/>
<path d="M-36.0648 326.118C-35.8447 320.075 -36.9954 314.261 -38.9766 308.588C-39.4769 307.147 -39.677 306.066 -37.4656 306.766C-36.2149 307.167 -34.8841 307.317 -33.5733 307.477C-29.6509 307.967 -27.5396 305.806 -28.1 301.873C-28.2901 300.573 -28.4702 299.242 -28.8504 297.991C-29.4208 296.12 -28.5503 296.24 -27.2695 296.66C-21.3259 298.622 -15.2222 300.072 -8.97846 299.412C-4.44573 298.932 -1.47394 300.953 1.45783 303.775C9.21251 311.239 15.4363 319.734 19.1085 329.931C21.1397 335.584 21.8501 341.428 20.1991 347.261C18.6482 352.724 14.1255 355.936 8.46206 356.497C-1.22379 357.457 -9.51879 353.845 -17.4236 348.872C-24.0676 344.69 -29.9211 339.586 -34.8841 333.473C-35.6746 332.492 -36.1349 331.602 -36.0648 330.351C-35.9848 328.94 -36.0448 327.519 -36.0448 326.108L-36.0648 326.118ZM-7.83776 339.496C-1.45391 339.496 3.87929 334.193 3.89931 327.829C3.92932 321.255 -1.32384 316.012 -7.90781 316.012C-14.4718 316.012 -19.5749 321.105 -19.5849 327.659C-19.5849 334.403 -14.5418 339.496 -7.83776 339.496Z" fill="#FEF2E0"/>
<path d="M-12.2903 103.423C-13.2809 103.423 -13.0108 102.672 -13.0908 102.172C-13.9813 97.1389 -14.7618 92.0858 -15.9425 87.0928C-17.5235 80.3787 -19.6348 73.8547 -22.1963 67.4708C-22.7967 65.9799 -22.8067 64.9793 -21.5059 63.8086C-14.1214 57.1446 -5.55628 52.5518 3.73932 49.2197C5.68049 48.5293 7.78177 48.2692 9.66291 47.4587C11.6041 46.6282 12.8148 47.1285 14.1356 48.6094C22.7608 58.2953 28.3542 69.5021 31.306 82.0897C31.6862 83.7207 30.5655 84.081 29.3948 84.4112C19.2987 87.2529 9.59288 91.1052 0.327292 95.9982C-3.62509 98.0895 -7.41741 100.491 -11.2697 102.762C-11.63 102.972 -11.9601 103.223 -12.2703 103.433L-12.2903 103.423Z" fill="#FEF2E0"/>
<path d="M31.3659 399.523C30.2752 404.076 29.1145 408.208 27.3935 412.181C23.9414 420.155 19.5087 427.5 13.6552 433.974C12.6045 435.135 11.664 435.235 10.2031 434.864C-0.893598 432.023 -10.8396 426.95 -19.815 419.855C-23.077 417.284 -23.2371 416.963 -21.6762 413.161C-17.5837 403.145 -14.862 392.779 -13.5713 382.032C-13.121 378.29 -13.151 378.33 -9.95909 380.251C1.9581 387.415 14.3856 393.439 27.8237 397.251C29.1945 397.642 31.4059 397.382 31.3759 399.533L31.3659 399.523Z" fill="#FEF2E0"/>
<path d="M-33.5732 205.795C-32.7728 202.543 -31.9823 199.531 -31.2919 196.489C-31.0017 195.228 -30.0912 194.768 -29.0805 194.368C-21.4459 191.346 -13.5512 189.495 -5.30619 190.125C5.65042 190.966 15.4063 194.838 23.9815 201.853C31.7462 208.206 37.2094 216.151 40.0411 225.617C45.2943 243.098 42.2425 259.207 30.6655 273.506C23.4511 282.412 14.1255 288.025 3.07888 290.657C-8.25796 293.358 -19.2846 292.147 -29.871 287.184C-30.5114 286.884 -30.9917 286.634 -31.1918 285.884C-31.9022 283.162 -32.6827 280.46 -33.4332 277.739C-33.5432 277.328 -33.5733 276.888 -33.083 276.688C-32.5326 276.458 -32.1524 276.828 -31.7321 277.108C-28.4101 279.38 -24.808 281.021 -20.9456 282.141C-6.42687 286.384 6.97122 283.852 18.5882 274.407C29.0846 265.861 34.6479 254.555 34.4078 240.706C34.0976 223.045 25.7025 210.158 10.2632 202.433C-3.85532 195.379 -18.1439 196.469 -31.6621 204.954C-32.0123 205.175 -32.3525 205.415 -32.7127 205.615C-32.8528 205.695 -33.0329 205.685 -33.5633 205.795H-33.5732Z" fill="#FEF2E0"/>
<path d="M5.88054 110.147C17.2674 109.786 26.2128 114.219 32.3465 123.885C34.878 127.878 35.9887 132.44 36.3389 137.093C36.9993 145.959 35.1382 154.434 31.6261 162.529C27.9238 171.054 22.7207 178.618 16.3669 185.403C15.2362 186.603 14.2756 187.334 12.5746 186.273C11.4739 185.593 10.0931 185.352 8.8123 185.012C7.02122 184.532 6.661 183.942 8.19193 182.511C12.9548 178.068 16.8972 172.935 20.3192 167.422C25.6124 158.896 29.2046 149.811 28.9044 139.545C28.5342 126.817 19.2686 117.801 6.93116 117.561C-3.1049 117.371 -11.9202 120.753 -20.3153 125.756C-26.1188 129.218 -31.3719 133.391 -35.9847 138.324C-37.4256 139.865 -38.036 139.475 -38.4762 137.683C-38.5763 137.283 -38.7164 136.893 -38.8465 136.493C-40.0272 133.011 -39.2 130.072 -36.365 127.677C-25.7786 118.742 -13.8814 112.498 -0.0930695 110.197C0.157081 110.157 0.407223 110.117 0.647367 110.117C2.39842 110.117 4.1395 110.117 5.89055 110.117L5.88054 110.147Z" fill="#FEF2E0"/>
<path d="M5.44028 372.016C-5.41626 371.976 -15.1521 368.244 -24.3977 362.921C-29.811 359.809 -34.7139 356.016 -39.2167 351.674C-40.3874 350.543 -40.5575 349.532 -39.9071 348.202C-39.6869 347.751 -39.4568 347.311 -39.2767 346.841C-37.4956 342.328 -37.5657 342.398 -33.9535 345.84C-24.918 354.456 -14.6719 361.14 -2.32441 363.731C6.73105 365.632 15.6164 365.092 22.6807 357.908C28.3041 352.184 29.5148 345.02 28.7443 337.405C27.7638 327.739 23.6313 319.244 18.228 311.399C15.3262 307.187 12.1243 303.104 8.25198 299.672C6.56096 298.181 6.99123 297.511 8.9224 297.071C9.48273 296.941 10.0331 296.73 10.5834 296.54C15.0361 294.989 15.0761 294.949 18.178 298.602C26.6231 308.538 33.107 319.534 35.5885 332.512C37.3996 341.988 36.8893 351.274 31.426 359.599C27.0633 366.233 20.6395 369.945 12.8848 371.496C10.4133 371.996 7.94179 371.976 5.44028 372.016Z" fill="#FEF2E0"/>
</g>
<defs>
<clipPath id="clip0_370_9354">
<rect width="121" height="479" fill="white"/>
</clipPath>
</defs>
</svg>
