<svg width="38" height="38" viewBox="0 0 38 38" fill="none" xmlns="http://www.w3.org/2000/svg">
<path d="M34.3959 13.3002L1.92969 12.0296L24.9227 8.60957L25.9498 8.45816L33.5083 7.33301L34.3959 13.3002Z" fill="#00AB59"/>
<path d="M25.7986 10.9577C25.773 10.961 25.7473 10.963 25.7214 10.9636C25.5967 10.9634 25.4761 10.9182 25.3818 10.8365C25.2876 10.7547 25.2258 10.6418 25.2079 10.5183L24.9229 8.60941L25.95 8.45801L26.235 10.3669C26.2544 10.503 26.2195 10.6412 26.1379 10.7517C26.0562 10.8622 25.9344 10.9362 25.7986 10.9577Z" fill="#75D7A7"/>
<path d="M34.0427 19.3205C33.6415 19.7215 33.3683 20.2325 33.2576 20.7888C33.1469 21.3451 33.2037 21.9217 33.4207 22.4458C33.6378 22.9698 34.0054 23.4177 34.477 23.7328C34.9486 24.0479 35.5031 24.216 36.0703 24.216V30.6671H1.92969V24.216C2.68988 24.216 3.41895 23.914 3.95649 23.3764C4.49403 22.8389 4.79602 22.1098 4.79602 21.3496C4.79602 20.5895 4.49403 19.8604 3.95649 19.3228C3.41895 18.7853 2.68988 18.4833 1.92969 18.4833V12.0322H36.0703V18.4833C35.6939 18.4829 35.3211 18.5566 34.9732 18.7002C34.6253 18.8439 34.3091 19.0546 34.0427 19.3205Z" fill="#FBDD6B"/>
<path d="M34.0427 19.3205C33.6415 19.7215 33.3683 20.2325 33.2576 20.7888C33.1469 21.3451 33.2037 21.9217 33.4207 22.4458C33.6378 22.9698 34.0054 23.4177 34.477 23.7328C34.9486 24.0479 35.5031 24.216 36.0703 24.216V30.6671H1.92969V24.216C2.68988 24.216 3.41895 23.914 3.95649 23.3764C4.49403 22.8389 4.79602 22.1098 4.79602 21.3496C4.79602 20.5895 4.49403 19.8604 3.95649 19.3228C3.41895 18.7853 2.68988 18.4833 1.92969 18.4833V12.0322H36.0703V18.4833C35.6939 18.4829 35.3211 18.5566 34.9732 18.7002C34.6253 18.8439 34.3091 19.0546 34.0427 19.3205Z" fill="#75D7A7"/>
<path d="M27.8647 12.0322V13.9619C27.8647 14.0997 27.81 14.2318 27.7126 14.3293C27.6151 14.4267 27.483 14.4814 27.3452 14.4814C27.2074 14.4814 27.0753 14.4267 26.9779 14.3293C26.8804 14.2318 26.8257 14.0997 26.8257 13.9619V12.0322H27.8647Z" fill="#00AB59"/>
<path d="M27.3452 22.1497C27.2769 22.1495 27.2093 22.1628 27.1462 22.1889C27.0831 22.215 27.0258 22.2532 26.9775 22.3015C26.9292 22.3498 26.891 22.4071 26.8649 22.4702C26.8389 22.5333 26.8255 22.6009 26.8257 22.6692V26.0981C26.8257 26.2359 26.8804 26.368 26.9779 26.4655C27.0753 26.5629 27.2074 26.6176 27.3452 26.6176C27.483 26.6176 27.6151 26.5629 27.7126 26.4655C27.81 26.368 27.8647 26.2359 27.8647 26.0981V22.6692C27.8646 22.5315 27.8098 22.3994 27.7124 22.302C27.615 22.2046 27.483 22.1498 27.3452 22.1497ZM27.3452 16.0815C27.2769 16.0814 27.2093 16.0947 27.1462 16.1208C27.0831 16.1468 27.0258 16.1851 26.9775 16.2334C26.9292 16.2816 26.891 16.339 26.8649 16.4021C26.8389 16.4652 26.8255 16.5328 26.8257 16.6011V20.03C26.8257 20.1678 26.8804 20.2999 26.9779 20.3973C27.0753 20.4948 27.2074 20.5495 27.3452 20.5495C27.483 20.5495 27.6151 20.4948 27.7126 20.3973C27.81 20.2999 27.8647 20.1678 27.8647 20.03V16.6011C27.8646 16.4633 27.8098 16.3313 27.7124 16.2339C27.615 16.1365 27.483 16.0817 27.3452 16.0815Z" fill="#00AB59"/>
<path d="M27.8647 28.7373V30.667H26.8257V28.7373C26.8257 28.5995 26.8804 28.4674 26.9779 28.3699C27.0753 28.2725 27.2074 28.2178 27.3452 28.2178C27.483 28.2178 27.6151 28.2725 27.7126 28.3699C27.81 28.4674 27.8647 28.5995 27.8647 28.7373Z" fill="#00AB59"/>
<path d="M14.5487 16.9277H8.09912C7.96133 16.9277 7.82919 16.873 7.73176 16.7756C7.63433 16.6781 7.57959 16.546 7.57959 16.4082C7.57959 16.2704 7.63433 16.1383 7.73176 16.0408C7.82919 15.9434 7.96133 15.8887 8.09912 15.8887H14.5487C14.6865 15.8887 14.8187 15.9434 14.9161 16.0408C15.0135 16.1383 15.0683 16.2704 15.0683 16.4082C15.0683 16.546 15.0135 16.6781 14.9161 16.7756C14.8187 16.873 14.6865 16.9277 14.5487 16.9277Z" fill="#00AB59"/>
<path d="M20.998 20.2217H8.09912C7.96133 20.2217 7.82919 20.1669 7.73176 20.0695C7.63433 19.9721 7.57959 19.8399 7.57959 19.7021C7.57959 19.5644 7.63433 19.4322 7.73176 19.3348C7.82919 19.2374 7.96133 19.1826 8.09912 19.1826H20.998C21.1358 19.1826 21.268 19.2374 21.3654 19.3348C21.4628 19.4322 21.5176 19.5644 21.5176 19.7021C21.5176 19.8399 21.4628 19.9721 21.3654 20.0695C21.268 20.1669 21.1358 20.2217 20.998 20.2217Z" fill="#00AB59"/>
<path d="M20.998 23.5166H8.09912C7.96133 23.5166 7.82919 23.4619 7.73176 23.3644C7.63433 23.267 7.57959 23.1349 7.57959 22.9971C7.57959 22.8593 7.63433 22.7271 7.73176 22.6297C7.82919 22.5323 7.96133 22.4775 8.09912 22.4775H20.998C21.1358 22.4775 21.268 22.5323 21.3654 22.6297C21.4628 22.7271 21.5176 22.8593 21.5176 22.9971C21.5176 23.1349 21.4628 23.267 21.3654 23.3644C21.268 23.4619 21.1358 23.5166 20.998 23.5166Z" fill="#00AB59"/>
<path d="M20.998 26.811H8.09912C7.96133 26.811 7.82919 26.7563 7.73176 26.6589C7.63433 26.5614 7.57959 26.4293 7.57959 26.2915C7.57959 26.1537 7.63433 26.0216 7.73176 25.9241C7.82919 25.8267 7.96133 25.772 8.09912 25.772H20.998C21.1358 25.772 21.268 25.8267 21.3654 25.9241C21.4628 26.0216 21.5176 26.1537 21.5176 26.2915C21.5176 26.4293 21.4628 26.5614 21.3654 26.6589C21.268 26.7563 21.1358 26.811 20.998 26.811Z" fill="#00AB59"/>
</svg>
