<svg xmlns="http://www.w3.org/2000/svg" width="17" height="17" viewBox="0 0 17 17" fill="none">
  <path d="M9.04795 8.91504L7.22317 11.7359L5.4819 12.481C4.45596 11.3056 3.36029 9.91113 2.84229 8.14805L3.88486 6.20898L5.56162 5.42871C5.53177 5.60801 5.51182 5.7873 5.51182 5.97656C5.51182 7.62008 6.85651 8.96484 8.5001 8.96484C8.68936 8.96484 8.86865 8.94489 9.04795 8.91504Z" fill="#FFDA2D"/>
  <path d="M11.4388 6.52162C11.4687 6.34332 11.4883 6.16502 11.4883 5.97676C11.4883 4.33453 10.1455 2.99047 8.50365 2.98848H8.5C8.31074 2.98848 8.13145 3.0084 7.95215 3.03828L10.6018 0.388672C12.2055 0.986328 13.4904 2.27129 14.0881 3.875L11.4385 6.52461C11.4385 6.52361 11.4388 6.52262 11.4388 6.52162Z" fill="#80AEF8"/>
  <path d="M14.0881 3.875L13.1816 5.64473L11.4385 6.52461C11.4385 6.52361 11.4388 6.52262 11.4388 6.52162C11.4687 6.34332 11.4883 6.16502 11.4883 5.97676C11.4883 4.33453 10.1455 2.99047 8.50363 2.98848H8.50098V2.48943L9.09764 1.1623L10.6017 0.388672C12.2054 0.986328 13.4904 2.27129 14.0881 3.875Z" fill="#4086F4"/>
  <path d="M14.088 3.875L11.4384 6.52458C11.2093 7.72988 10.253 8.6861 9.04774 8.91523H9.0477L6.16328 11.7996L5.48169 12.4812C5.65106 12.6704 5.80044 12.8398 5.95985 13.0191C7.05558 14.2643 8.00187 15.4064 8.00187 16.5021C8.00187 16.781 8.22098 17.0002 8.49992 17.0002C8.77886 17.0002 8.99797 16.781 8.99797 16.5021C8.99797 15.4064 9.94426 14.2643 11.04 13.0191C12.574 11.2959 14.4765 9.14434 14.4765 5.97676C14.4765 5.23965 14.347 4.53242 14.088 3.875Z" fill="#59C36A"/>
  <path d="M14.088 3.875L11.4385 6.52454C11.2093 7.72985 10.2531 8.6861 9.0478 8.91523C9.04777 8.91523 9.04776 8.91523 9.04773 8.91523L8.50098 9.46196V17C8.77942 16.9994 8.99799 16.7807 8.99799 16.5021C8.99799 15.4064 9.94428 14.2643 11.04 13.0191C12.574 11.2959 14.4765 9.14434 14.4765 5.97676C14.4765 5.23965 14.347 4.53242 14.088 3.875Z" fill="#00A66C"/>
  <path d="M8.50098 9.46186L9.0478 8.91504C8.86887 8.94482 8.6899 8.96458 8.50098 8.96471V9.46186Z" fill="#FDBF00"/>
  <path d="M10.6018 0.388477L7.9522 3.03809C7.34458 3.15762 6.80666 3.44645 6.38833 3.86488L4.84771 3.2207L4.27661 1.75312C5.35243 0.66735 6.84657 0 8.50005 0C9.23716 0 9.94438 0.129492 10.6018 0.388477Z" fill="#4086F4"/>
  <path d="M8.50098 2.48911L10.6017 0.388377C9.94461 0.129492 9.23772 0.000132813 8.50101 0V2.48911H8.50098Z" fill="#4175DF"/>
  <path d="M6.38828 3.86465C5.96995 4.28301 5.68102 4.82087 5.56152 5.42852L2.84219 8.14785C2.64297 7.4805 2.52344 6.76328 2.52344 5.97637C2.52344 4.32282 3.19079 2.82868 4.27656 1.75293L6.38828 3.86465Z" fill="#F03800"/>
</svg>