<svg width="45" height="46" viewBox="0 0 45 46" fill="none" xmlns="http://www.w3.org/2000/svg">
<path d="M22.5004 4.25C12.1444 4.25 3.75 12.6433 3.75 22.9993C3.75 33.3575 12.1444 41.75 22.5004 41.75C32.8556 41.75 41.25 33.3575 41.25 22.9993C41.25 12.6433 32.8556 4.25 22.5004 4.25ZM22.5 12.9943C23.8001 12.9943 24.8542 14.0484 24.8542 15.3485C24.8542 16.6486 23.7997 17.7024 22.5 17.7024C21.2003 17.7024 20.1458 16.6483 20.1458 15.3485C20.1458 14.0484 21.1999 12.9943 22.5 12.9943ZM26.6198 33.0061H18.3802V29.4744H20.1458V22.4116H18.3802V18.8802H24.8546V22.4116V29.4744H26.6201L26.6198 33.0061Z" fill="#FAC917"/>
<path d="M32.3967 38.9184L40.6246 41.1226L38.42 32.8951L32.3967 38.9184Z" fill="#FAC917"/>
</svg>
