<svg width="29" height="29" viewBox="0 0 29 29" fill="none" xmlns="http://www.w3.org/2000/svg">
<path d="M9.49565 2.58276H19.5057C23.319 2.58276 26.4173 5.6811 26.4173 9.49443V19.5044C26.4173 21.3375 25.6891 23.0955 24.3929 24.3917C23.0967 25.6879 21.3387 26.4161 19.5057 26.4161H9.49565C5.68232 26.4161 2.58398 23.3178 2.58398 19.5044V9.49443C2.58398 7.66134 3.31218 5.90333 4.60836 4.60714C5.90455 3.31096 7.66256 2.58276 9.49565 2.58276ZM9.25732 4.9661C8.11954 4.9661 7.02836 5.41808 6.22383 6.22261C5.4193 7.02714 4.96732 8.11832 4.96732 9.2561V19.7428C4.96732 22.1142 6.8859 24.0328 9.25732 24.0328H19.744C20.8818 24.0328 21.9729 23.5808 22.7775 22.7763C23.582 21.9717 24.034 20.8805 24.034 19.7428V9.2561C24.034 6.88468 22.1154 4.9661 19.744 4.9661H9.25732ZM20.7569 6.7536C21.152 6.7536 21.5308 6.91053 21.8102 7.18989C22.0895 7.46924 22.2465 7.84812 22.2465 8.24318C22.2465 8.63824 22.0895 9.01712 21.8102 9.29647C21.5308 9.57583 21.152 9.73276 20.7569 9.73276C20.3618 9.73276 19.983 9.57583 19.7036 9.29647C19.4243 9.01712 19.2673 8.63824 19.2673 8.24318C19.2673 7.84812 19.4243 7.46924 19.7036 7.18989C19.983 6.91053 20.3618 6.7536 20.7569 6.7536ZM14.5007 8.5411C16.0809 8.5411 17.5964 9.16885 18.7138 10.2863C19.8312 11.4037 20.459 12.9192 20.459 14.4994C20.459 16.0797 19.8312 17.5952 18.7138 18.7126C17.5964 19.83 16.0809 20.4578 14.5007 20.4578C12.9204 20.4578 11.4049 19.83 10.2875 18.7126C9.17007 17.5952 8.54232 16.0797 8.54232 14.4994C8.54232 12.9192 9.17007 11.4037 10.2875 10.2863C11.4049 9.16885 12.9204 8.5411 14.5007 8.5411ZM14.5007 10.9244C13.5525 10.9244 12.6432 11.3011 11.9727 11.9715C11.3023 12.642 10.9257 13.5513 10.9257 14.4994C10.9257 15.4476 11.3023 16.3569 11.9727 17.0273C12.6432 17.6978 13.5525 18.0744 14.5007 18.0744C15.4488 18.0744 16.3581 17.6978 17.0286 17.0273C17.699 16.3569 18.0757 15.4476 18.0757 14.4994C18.0757 13.5513 17.699 12.642 17.0286 11.9715C16.3581 11.3011 15.4488 10.9244 14.5007 10.9244Z" fill="white"/>
</svg>
