<svg width="52" height="49" viewBox="0 0 52 49" fill="none" xmlns="http://www.w3.org/2000/svg">
<path fill-rule="evenodd" clip-rule="evenodd" d="M25.6522 0C39.8145 0 51.3045 10.9691 51.3045 24.5C51.3045 38.0309 39.8195 49 25.6522 49C11.4849 49 0 38.0261 0 24.5C0 10.9739 11.4849 0 25.6522 0Z" fill="white"/>
<path fill-rule="evenodd" clip-rule="evenodd" d="M41.5637 24.0056C43.6173 24.0056 45.2804 25.5941 45.2804 27.5554C45.2804 29.5168 43.6173 31.1052 41.5637 31.1052C39.5101 31.1052 37.8469 29.5168 37.8469 27.5554C37.8469 25.5941 39.5101 24.0056 41.5637 24.0056Z" fill="#FDD503"/>
<path fill-rule="evenodd" clip-rule="evenodd" d="M24.8713 4.57669C25.1198 4.21348 25.0133 3.72919 24.633 3.49189C24.2527 3.25459 23.7456 3.35629 23.4972 3.71951C23.2487 4.08272 23.3552 4.567 23.7355 4.8043C24.1158 5.0416 24.6229 4.9399 24.8713 4.57669Z" fill="#FDD503"/>
<path fill-rule="evenodd" clip-rule="evenodd" d="M25.2111 11.1287C27.8377 11.1287 29.9673 13.1627 29.9673 15.6713C29.9673 18.1799 27.8377 20.2139 25.2111 20.2139C22.5845 20.2139 20.4548 18.1799 20.4548 15.6713C20.4548 13.1627 22.5845 11.1287 25.2111 11.1287Z" fill="#EB9601"/>
<path fill-rule="evenodd" clip-rule="evenodd" d="M11.7536 25.6289C14.3801 25.6289 16.5098 27.6629 16.5098 30.1715C16.5098 32.6801 14.3801 34.7141 11.7536 34.7141C9.12697 34.7141 6.99731 32.6801 6.99731 30.1715C6.99731 27.6629 9.12697 25.6289 11.7536 25.6289Z" fill="#FDD503"/>
<path fill-rule="evenodd" clip-rule="evenodd" d="M11.4746 32.4959L11.2668 32.2973L11.0589 32.4959L11.2668 32.6944L11.4746 32.4959ZM11.7586 32.7671L11.5507 32.5685L11.3428 32.7671L11.5507 32.9656L11.7586 32.7671ZM12.0426 33.0383L11.8347 32.8397L11.6268 33.0383L11.8347 33.2368L12.0426 33.0383ZM11.7586 32.2247L11.5507 32.0261L11.3428 32.2247L11.5507 32.4232L11.7586 32.2247ZM12.0426 32.4959L11.8347 32.2973L11.6268 32.4959L11.8347 32.6944L12.0426 32.4959ZM12.3265 32.7671L12.1186 32.5685L11.9107 32.7671L12.1186 32.9656L12.3265 32.7671ZM12.0426 31.9535L11.8347 31.7549L11.6268 31.9535L11.8347 32.152L12.0426 31.9535ZM12.3265 32.2247L12.1186 32.0261L11.9107 32.2247L12.1186 32.4232L12.3265 32.2247ZM12.6105 32.4959L12.4026 32.2973L12.1947 32.4959L12.4026 32.6944L12.6105 32.4959ZM12.3265 31.6823L12.1186 31.4837L11.9107 31.6823L12.1186 31.8808L12.3265 31.6823ZM12.6105 31.9535L12.4026 31.7549L12.1947 31.9535L12.4026 32.152L12.6105 31.9535ZM12.8944 32.2247L12.6865 32.0261L12.4786 32.2247L12.6865 32.4232L12.8944 32.2247ZM13.3254 30.7234L13.1175 30.5248L12.1947 31.4062L12.4026 31.6048L13.3254 30.7234ZM13.6094 30.9946L13.4015 30.796L12.4786 31.6774L12.6865 31.876L13.6094 30.9946ZM13.8933 31.2658L13.6854 31.0672L12.7626 31.9486L12.9705 32.1472L13.8933 31.2658ZM13.6094 30.4522L13.4015 30.2536L13.1936 30.4522L13.4015 30.6508L13.6094 30.4522ZM13.8933 30.7234L13.6854 30.5248L13.4775 30.7234L13.6854 30.922L13.8933 30.7234ZM14.1773 30.9946L13.9694 30.796L13.7615 30.9946L13.9694 31.1932L14.1773 30.9946ZM13.8933 30.181L13.6854 29.9824L13.4775 30.181L13.6854 30.3796L13.8933 30.181ZM14.1773 30.4522L13.9694 30.2536L13.7615 30.4522L13.9694 30.6508L14.1773 30.4522ZM14.4612 30.7234L14.2533 30.5248L14.0455 30.7234L14.2533 30.922L14.4612 30.7234ZM14.1773 29.9098L13.9694 29.7112L13.7615 29.9098L13.9694 30.1084L14.1773 29.9098ZM14.4612 30.181L14.2533 29.9824L14.0455 30.181L14.2533 30.3796L14.4612 30.181ZM14.7452 30.4522L14.5373 30.2536L14.3294 30.4522L14.5373 30.6508L14.7452 30.4522ZM14.4612 29.6386L14.2533 29.44L14.0455 29.6386L14.2533 29.8372L14.4612 29.6386ZM14.7452 29.9098L14.5373 29.7112L14.3294 29.9098L14.5373 30.1084L14.7452 29.9098ZM15.0292 30.181L14.8213 29.9824L14.6134 30.181L14.8213 30.3796L15.0292 30.181ZM10.9777 32.0261L10.7698 32.2247L10.9777 32.4232L11.1856 32.2247L10.9777 32.0261ZM11.2617 31.7549L11.0538 31.9535L11.2617 32.152L11.4696 31.9535L11.2617 31.7549ZM11.5456 31.4837L11.3377 31.6823L11.5456 31.8808L11.7535 31.6823L11.5456 31.4837ZM11.8296 31.2125L11.6217 31.4111L11.8296 31.6096L12.0375 31.4111L11.8296 31.2125ZM12.8336 30.2536L11.9107 31.135L12.1186 31.3336L13.0415 30.4522L12.8336 30.2536ZM13.1175 29.9824L12.9096 30.181L13.1175 30.3796L13.3254 30.181L13.1175 29.9824ZM13.4015 29.7112L13.1936 29.9098L13.4015 30.1084L13.6094 29.9098L13.4015 29.7112ZM13.6854 29.44L13.4775 29.6386L13.6854 29.8372L13.8933 29.6386L13.6854 29.44ZM13.9694 29.1688L13.7615 29.3674L13.9694 29.566L14.1773 29.3674L13.9694 29.1688ZM15.5768 27.4835C15.5971 27.5126 15.6224 27.5416 15.6427 27.5707L14.0455 29.0962L14.2533 29.2948L15.805 27.8128C15.8252 27.8419 15.8455 27.8758 15.8607 27.9049L14.3243 29.3722L14.5322 29.5708L16.0027 28.1664C16.0179 28.2003 16.0382 28.2342 16.0534 28.2681L14.6083 29.6483L14.8162 29.8468L16.1751 28.549C16.1903 28.5829 16.2055 28.6216 16.2157 28.6555L14.8922 29.9195L15.1001 30.118L16.3171 28.9558C16.3272 28.9945 16.3374 29.0332 16.3475 29.072L15.1711 30.1955L16.3424 31.3142C16.3323 31.353 16.3222 31.3917 16.312 31.4305L15.0951 30.2682L14.8872 30.4667L16.2106 31.7307C16.1954 31.7646 16.1853 31.8034 16.17 31.8373L14.8111 30.5394L14.6032 30.7379L16.0433 32.1133C16.0281 32.1472 16.0078 32.1811 15.9926 32.2102L14.5272 30.8106L14.3193 31.0091L15.8506 32.4717C15.8303 32.5007 15.81 32.5346 15.7948 32.5637L14.2483 31.0866L14.0404 31.2852L15.6326 32.8058C15.6123 32.8349 15.592 32.8639 15.5666 32.893L13.9643 31.3627L13.0415 32.2441L14.6539 33.7841C14.6235 33.8034 14.5981 33.8277 14.5677 33.847L12.9654 32.3167L12.7575 32.5153L14.3243 34.0117C14.2939 34.0311 14.2635 34.0504 14.228 34.0698L12.6815 32.5927L12.4736 32.7913L13.9643 34.2151C13.9288 34.2345 13.8984 34.249 13.8629 34.2635L12.3975 32.8639L12.1896 33.0625L13.579 34.3894C13.5435 34.404 13.508 34.4185 13.4674 34.433L12.1085 33.1351L11.9006 33.3337L13.1581 34.5347C13.1175 34.5444 13.077 34.5589 13.0415 34.5686L11.8245 33.4063L10.5721 34.6025C10.5315 34.5928 10.4909 34.5832 10.4504 34.5735L11.7434 33.3385L11.5355 33.14L10.1309 34.4766C10.0954 34.4621 10.0549 34.4524 10.0194 34.4379L11.4544 33.0673L11.2465 32.8688L9.72529 34.3216C9.68979 34.3071 9.6543 34.2926 9.62387 34.2732L11.1704 32.7961L10.9625 32.5976L9.35006 34.1376C9.31964 34.1182 9.28414 34.1037 9.25372 34.0843L10.8814 32.5298L10.6735 32.3312L9.00019 33.9294C8.96976 33.91 8.93934 33.8906 8.90892 33.8664L10.5924 32.2586L7.14941 28.9703C7.15956 28.9315 7.17477 28.8928 7.18491 28.8589L10.6735 32.1908L10.8814 31.9922L7.29646 28.5683C7.31167 28.5344 7.32689 28.5005 7.3421 28.4618L10.9625 31.9196L11.1704 31.721L7.47393 28.1906C7.48914 28.1567 7.50943 28.1276 7.52464 28.0937L11.2465 31.6484L11.4544 31.4498L7.67676 27.8419C7.69704 27.8128 7.71732 27.7838 7.73761 27.7499L11.5304 31.3723L11.7383 31.1738L7.90494 27.5126C7.92522 27.4835 7.95057 27.4545 7.97085 27.4303L11.8144 31.1011L12.7372 30.2197L8.90385 26.5585C8.93427 26.5392 8.96469 26.515 8.99512 26.4956L12.8133 30.1423L13.0212 29.9437L9.24358 26.3358C9.274 26.3164 9.3095 26.297 9.33992 26.2825L13.0972 29.8711L13.3051 29.6725L9.60866 26.1421C9.64416 26.1275 9.67965 26.1082 9.71007 26.0936L13.3812 29.5999L13.5891 29.4013L10.0042 25.9774C10.0397 25.9629 10.0802 25.9483 10.1157 25.9387L13.6652 29.3287L13.873 29.1301L10.4301 25.8418C10.4707 25.8321 10.5112 25.8224 10.5518 25.8127L13.9542 29.0623L15.5616 27.5271L15.5768 27.4835Z" fill="#DA690B"/>
<path fill-rule="evenodd" clip-rule="evenodd" d="M15.1205 26.9652C15.1458 26.9894 15.1712 27.0137 15.1965 27.0379L11.9108 30.176L15.1915 33.3094C15.1661 33.3336 15.1407 33.3578 15.1154 33.382L11.8347 30.2487L8.47288 33.4595C8.44753 33.4353 8.42218 33.4111 8.39682 33.3868L11.7586 30.176L11.3327 29.7692L7.99625 32.9558C7.97596 32.9268 7.95061 32.9026 7.93033 32.8735L11.2567 29.6966L11.0488 29.498L7.75793 32.6411C7.73764 32.612 7.71736 32.5829 7.69708 32.549L10.9676 29.4254L10.7597 29.2268L7.54496 32.2972C7.52468 32.2633 7.50947 32.2342 7.49425 32.2003L10.6837 29.1542L10.4758 28.9556L7.36242 31.9292C7.34721 31.8953 7.33199 31.8613 7.31678 31.8226L10.3997 28.8782L10.1918 28.6796L7.2103 31.5272C7.20016 31.4884 7.18495 31.4497 7.1748 31.4158L10.1158 28.607L8.38668 26.9555C8.41204 26.9313 8.43739 26.9071 8.46274 26.8829L10.1918 28.5343L13.0567 25.7981C13.0973 25.8078 13.1379 25.8223 13.1733 25.832L10.2679 28.607L10.4758 28.8055L13.4827 25.9337C13.5181 25.9482 13.5536 25.9628 13.5942 25.9773L10.5569 28.8782L10.7648 29.0767L13.8782 26.1032C13.9137 26.1177 13.9441 26.1371 13.9796 26.1516L10.8409 29.1493L11.0488 29.3479L14.2432 26.2969C14.2737 26.3163 14.3041 26.3357 14.3396 26.355L11.1248 29.4254L11.3327 29.624L14.583 26.5197C14.6134 26.5391 14.6438 26.5633 14.6692 26.5826L11.4088 29.6966L11.8347 30.1034L15.1205 26.9652Z" fill="#EB9601"/>
<path fill-rule="evenodd" clip-rule="evenodd" d="M32.0161 14.3347C32.8528 14.3347 33.5322 14.9837 33.5322 15.7827C33.5322 16.5818 32.8528 17.2307 32.0161 17.2307C31.1795 17.2307 30.5 16.5818 30.5 15.7827C30.5 14.9837 31.1795 14.3347 32.0161 14.3347Z" fill="#EB9601"/>
<path fill-rule="evenodd" clip-rule="evenodd" d="M45.9402 21.7878C46.9544 21.7878 47.7809 22.5772 47.7809 23.5458C47.7809 24.5144 46.9544 25.3038 45.9402 25.3038C44.9261 25.3038 44.0996 24.5144 44.0996 23.5458C44.0996 22.5772 44.9261 21.7878 45.9402 21.7878Z" fill="#EB9601"/>
<path fill-rule="evenodd" clip-rule="evenodd" d="M13.2034 6.61084C13.9995 6.61084 14.6486 7.22588 14.6486 7.99105C14.6486 8.75622 13.9995 9.37127 13.2034 9.37127C12.4073 9.37127 11.7583 8.75622 11.7583 7.99105C11.7583 7.22588 12.4023 6.61084 13.2034 6.61084Z" fill="#FDD503"/>
<path fill-rule="evenodd" clip-rule="evenodd" d="M8.54449 34.4714C9.34058 34.4714 9.98962 35.0865 9.98962 35.8516C9.98962 36.6168 9.34058 37.2319 8.54449 37.2319C7.7484 37.2319 7.09937 36.612 7.09937 35.8516C7.09937 35.0913 7.74333 34.4714 8.54449 34.4714Z" fill="#FDD503"/>
<path fill-rule="evenodd" clip-rule="evenodd" d="M32.6045 43.9969C33.0406 43.3577 32.853 42.5053 32.1836 42.0888C31.5143 41.6723 30.6219 41.8515 30.1858 42.4908C29.7497 43.13 29.9374 43.9824 30.6067 44.3989C31.276 44.8154 32.1684 44.6362 32.6045 43.9969Z" fill="#EB9601"/>
<path fill-rule="evenodd" clip-rule="evenodd" d="M31.4988 41.1399C31.7472 40.7767 31.6407 40.2924 31.2604 40.0551C30.8802 39.8178 30.3731 39.9195 30.1246 40.2827C29.8762 40.646 29.9826 41.1302 30.3629 41.3675C30.7432 41.6048 31.2503 41.5031 31.4988 41.1399Z" fill="#DA690B"/>
<path fill-rule="evenodd" clip-rule="evenodd" d="M20.2421 30.4905C20.7137 29.8028 20.5109 28.8826 19.7908 28.4323C19.0708 27.9819 18.1074 28.1756 17.6358 28.8633C17.1643 29.5509 17.3671 30.4711 18.0871 30.9215C18.8071 31.3719 19.7705 31.1781 20.2421 30.4905Z" fill="#EB9601"/>
<path fill-rule="evenodd" clip-rule="evenodd" d="M12.5349 16.2722C12.7834 15.909 12.6769 15.4247 12.2966 15.1874C11.9163 14.9501 11.4092 15.0518 11.1608 15.4151C10.9123 15.7783 11.0188 16.2626 11.3991 16.4999C11.7794 16.7372 12.2864 16.6355 12.5349 16.2722Z" fill="#EB9601"/>
<path fill-rule="evenodd" clip-rule="evenodd" d="M11.1555 10.219C11.404 9.85581 11.2975 9.37153 10.9172 9.13423C10.5369 8.89693 10.0298 8.99862 9.78136 9.36184C9.5329 9.72505 9.63939 10.2093 10.0197 10.4466C10.4 10.6839 10.907 10.5822 11.1555 10.219Z" fill="#FDD503"/>
<path fill-rule="evenodd" clip-rule="evenodd" d="M33.9833 6.22772C34.389 5.63205 34.2166 4.83298 33.5929 4.44555C32.9692 4.05812 32.1325 4.22278 31.7269 4.81845C31.3212 5.41412 31.4936 6.21319 32.1173 6.60062C32.741 6.98805 33.5777 6.82339 33.9833 6.22772Z" fill="#FDD503"/>
<path fill-rule="evenodd" clip-rule="evenodd" d="M15.1008 35.4444C15.3493 35.0812 15.2428 34.5969 14.8625 34.3596C14.4822 34.1223 13.9751 34.224 13.7267 34.5872C13.4782 34.9504 13.5847 35.4347 13.965 35.672C14.3453 35.9093 14.8524 35.8076 15.1008 35.4444Z" fill="#DA690B"/>
<path fill-rule="evenodd" clip-rule="evenodd" d="M46.8628 19.4439C47.1112 19.0807 47.0048 18.5964 46.6245 18.3591C46.2442 18.1218 45.7371 18.2235 45.4886 18.5867C45.2402 18.9499 45.3467 19.4342 45.727 19.6715C46.1073 19.9088 46.6143 19.8071 46.8628 19.4439Z" fill="#FDD503"/>
<path fill-rule="evenodd" clip-rule="evenodd" d="M18.4264 27.6328C21.053 27.6328 23.1826 25.5988 23.1826 23.0902C23.1826 20.5816 21.053 18.5476 18.4264 18.5476C15.7998 18.5476 13.6702 20.5816 13.6702 23.0902C13.6702 25.5988 15.7998 27.6328 18.4264 27.6328Z" fill="#FDD503"/>
<path fill-rule="evenodd" clip-rule="evenodd" d="M31.5698 18.7947C34.8809 18.7947 37.5684 21.3614 37.5684 24.5238C37.5684 27.6862 34.8809 30.2529 31.5698 30.2529C28.2587 30.2529 25.5713 27.6862 25.5713 24.5238C25.5713 21.3614 28.2587 18.7947 31.5698 18.7947Z" fill="#FDD503"/>
<path fill-rule="evenodd" clip-rule="evenodd" d="M26.5243 31.1587C27.3559 29.9432 26.9959 28.3111 25.7232 27.5169C24.4504 26.7227 22.7416 27.0665 21.9101 28.2821C21.0785 29.4976 21.4385 31.1297 22.7112 31.9239C23.9839 32.7181 25.6927 32.3743 26.5243 31.1587Z" fill="#EB9601"/>
<path fill-rule="evenodd" clip-rule="evenodd" d="M21.4846 30.0789C21.5251 30.3597 21.6113 30.6309 21.7432 30.8876C21.8598 30.999 22.0626 31.2024 22.0981 31.4058C22.1995 31.522 22.3162 31.6334 22.4429 31.7351V31.6818C22.4429 31.4349 22.1691 31.1249 22.0525 30.9603C21.9105 30.7617 21.8192 30.3791 21.6671 30.2338C21.6012 30.1757 21.5454 30.1225 21.4846 30.0789ZM21.4592 29.6382C21.4592 29.7108 21.4592 29.7883 21.4592 29.8609C21.4947 29.8851 21.5302 29.9094 21.5759 29.9384C21.6925 30.0159 21.8852 30.0982 21.9815 30.1854C22.2807 30.4614 22.2553 30.6745 22.4328 31.0281C22.5545 31.2799 22.7928 31.6237 22.7928 31.9579V31.9724C22.8993 32.0354 23.0108 32.0886 23.1224 32.1322V32.0693C23.1224 31.832 22.9855 31.5075 22.9145 31.3283C22.8232 31.1007 22.7573 30.8537 22.661 30.6358C22.5494 30.3888 22.4277 30.2677 22.2097 30.1273C22.1133 30.0643 21.9967 30.0159 21.8953 29.9578C21.728 29.8609 21.5961 29.7641 21.4643 29.6333L21.4592 29.6382ZM21.5201 29.1636C21.5049 29.2265 21.4947 29.2846 21.4846 29.3476L21.5251 29.3863C21.6823 29.5365 21.7685 29.6527 21.9612 29.7738C22.1438 29.8851 22.2959 29.9578 22.4886 30.0643C22.8689 30.2629 23.097 30.5292 23.2187 30.9651C23.3404 31.3864 23.523 31.74 23.523 32.2678C23.599 32.292 23.67 32.3066 23.7461 32.3211C23.7461 32.3066 23.7461 32.292 23.7461 32.2824V32.1807C23.7461 31.9095 23.6396 31.7206 23.5686 31.5123C23.4925 31.2944 23.4418 31.0716 23.3911 30.8295C23.2796 30.3016 23.1579 29.9917 22.6711 29.8222C22.4328 29.7399 22.2553 29.7011 22.0576 29.5704C21.8902 29.459 21.7381 29.3137 21.5606 29.1975L21.515 29.1684L21.5201 29.1636ZM21.6367 28.7955C21.6113 28.8585 21.5911 28.9214 21.5708 28.9844C21.7533 29.0909 21.9257 29.1878 22.1083 29.304C22.3263 29.4396 22.4683 29.551 22.7776 29.5994C23.5838 29.735 23.5483 29.8561 23.6142 30.6648C23.6295 30.8828 23.6954 31.2944 23.7664 31.4445C23.8424 31.6092 24.025 31.924 24.025 32.1371V32.3163C24.025 32.3163 24.025 32.3356 24.025 32.3405C24.1213 32.3453 24.2176 32.3502 24.3191 32.3405C24.3191 32.3211 24.3191 32.3066 24.3191 32.2872V32.2194C24.3191 31.8756 24.1568 31.7061 24.0351 31.4736C23.9235 31.2605 23.8678 30.9942 23.8627 30.6842L23.8779 30.3307C24.0199 29.4493 23.8424 29.6285 22.8739 29.396C22.6711 29.3476 22.0474 29.0086 21.8497 28.8972C21.7837 28.8633 21.7128 28.8197 21.6367 28.7761V28.7955ZM23.3455 27.2264C23.3455 27.2264 23.2999 27.2409 23.2745 27.2506C23.3658 27.4347 23.4368 27.6235 23.4773 27.7688C23.4925 27.8366 23.5585 28.0933 23.3911 28.0739C23.1376 28.0497 23.0514 27.5799 22.9906 27.3717C22.9398 27.3911 22.8942 27.4104 22.8486 27.4395C22.9246 27.6381 23.026 27.8705 23.1376 28.011C23.2086 28.0933 23.3759 28.1659 23.4925 28.132C23.6548 28.0836 23.6142 27.8754 23.5838 27.7591C23.5433 27.6042 23.4571 27.4201 23.3506 27.2264H23.3455ZM23.6852 27.1393C23.6396 27.1489 23.599 27.1586 23.5534 27.1683C23.6345 27.3136 23.7004 27.4686 23.7359 27.6284C23.7714 27.793 23.7866 28.0497 23.67 28.1902C23.5078 28.3887 23.2593 28.3161 23.0869 28.1659C22.9094 28.011 22.7979 27.764 22.7015 27.5218C22.6559 27.5509 22.6103 27.5799 22.5646 27.6138C22.59 27.701 22.6153 27.7834 22.6508 27.8657C22.7015 27.9916 22.8283 28.1659 22.9804 28.2918C23.2238 28.4856 23.5737 28.5291 23.7816 28.2531C23.9083 28.0836 23.8931 27.7882 23.8526 27.5945C23.8171 27.425 23.7511 27.2749 23.6852 27.1393ZM24.0148 27.0957C23.9641 27.0957 23.9134 27.1053 23.8678 27.1102C23.9337 27.2506 23.9844 27.4008 24.0097 27.5557C24.0452 27.7785 24.03 28.0691 23.9388 28.2773C23.883 28.4032 23.7968 28.4952 23.7004 28.5485C23.4976 28.6599 23.2339 28.6212 22.9956 28.5001C22.7827 28.3887 22.59 28.2095 22.4835 27.9964C22.4429 27.9189 22.4176 27.8318 22.3922 27.7446C22.3466 27.7834 22.301 27.8221 22.2553 27.8657C22.2756 27.948 22.301 28.0303 22.3364 28.1078C22.4328 28.3064 22.6407 28.5388 22.9094 28.6696C23.1782 28.8003 23.5027 28.81 23.7613 28.6357C23.8779 28.5582 23.9743 28.4468 24.0351 28.3161C24.1365 28.103 24.1619 27.764 24.1416 27.5315C24.1264 27.3814 24.0807 27.2361 24.0199 27.0908L24.0148 27.0957ZM24.5016 27.1054C24.4357 27.1005 24.3647 27.0957 24.2988 27.0908C24.3292 27.2506 24.3596 27.425 24.3748 27.5751C24.4002 27.8366 24.3698 28.1175 24.2582 28.3596C24.1821 28.5243 24.0706 28.6744 23.9388 28.7907C23.599 29.0909 23.1325 29.1103 22.7573 28.8682C22.4734 28.6841 22.23 28.3839 22.1184 28.1805C22.0981 28.1417 22.0778 28.1078 22.0626 28.0691C22.0119 28.1272 21.9663 28.1901 21.9207 28.2531C22.0677 28.4856 22.3162 28.81 22.6356 29.0231C23.1072 29.3331 23.6142 29.2556 24.0452 28.8972C24.2075 28.7616 24.3393 28.5969 24.4255 28.4226C24.5472 28.1708 24.5675 27.8076 24.5472 27.5315C24.5371 27.3814 24.5117 27.2313 24.5016 27.1005V27.1054ZM26.109 27.8172C26.0076 27.7252 25.8909 27.6332 25.7693 27.5557H25.5918L25.4042 27.5799C24.7146 27.6332 24.6994 28.2676 24.5726 28.8633C24.527 29.0909 24.3343 29.3863 24.2481 29.6236C24.0402 30.1806 23.883 31.0668 24.243 31.614C24.3596 31.7932 24.4915 31.9869 24.5929 32.1564C24.6233 32.2049 24.6486 32.2581 24.6689 32.3163C24.7602 32.3017 24.8515 32.2824 24.9377 32.2581C24.8363 32.0354 24.7348 31.7593 24.6994 31.6818C24.2836 30.7472 24.2126 30.3791 24.6994 29.4105C24.7805 29.2459 24.8768 29.12 24.9427 28.9408C25.0137 28.7374 25.0492 28.6018 25.1354 28.4032C25.2571 28.1224 25.7236 27.948 26.038 27.8415C26.0583 27.8318 26.0836 27.8269 26.109 27.8172ZM26.8848 29.0958C26.8696 29.0473 26.8594 28.9941 26.8392 28.9456C26.6921 29.0183 26.4386 29.1926 26.2712 29.2701C26.1191 29.3427 25.9569 29.304 26.0938 29.1297C26.2003 28.9989 26.4589 28.8149 26.7276 28.6647C26.7175 28.6454 26.7073 28.6212 26.6972 28.6018C26.2763 28.873 25.8352 29.2604 25.6577 29.5461C25.5056 29.7834 25.5766 29.9433 25.8352 29.7447C25.9518 29.6527 26.0988 29.5268 26.1495 29.4929C26.3219 29.3863 26.469 29.2846 26.6566 29.1975C26.7073 29.1733 26.7884 29.1393 26.8797 29.0958H26.8848ZM26.9406 29.3912C26.9355 29.3476 26.9254 29.2992 26.9203 29.2556C26.8037 29.3088 26.6921 29.3573 26.6008 29.4105C26.4082 29.5171 26.109 29.735 25.9518 29.8851C25.825 30.0062 25.5512 30.3888 25.3535 30.3888C25.1811 30.3888 25.2723 30.0256 25.2926 29.9626C25.4244 29.5655 25.8352 29.0812 26.0279 28.8924C26.1698 28.7568 26.3676 28.5727 26.6008 28.4226C26.5806 28.3839 26.5552 28.35 26.5298 28.3112C26.4386 28.3645 26.2662 28.4904 26.1952 28.5582C26.0836 28.6648 26.0126 28.7664 25.9214 28.8633C25.7236 29.057 25.3636 29.5122 25.1963 29.9336C25.1151 30.137 25.0746 30.3694 25.1354 30.5825C25.1608 30.6697 25.2013 30.7375 25.2723 30.7375C25.4397 30.7375 25.7997 30.2532 25.9011 30.1273C26.0938 29.8997 26.2611 29.6963 26.5451 29.551C26.6718 29.488 26.8037 29.4396 26.9406 29.3863V29.3912ZM26.758 30.7278C26.8442 30.5244 26.9051 30.3113 26.9355 30.0982C26.8138 30.1612 26.7022 30.2338 26.6059 30.321C26.3929 30.5196 25.9771 31.3816 25.6323 31.9773C25.8149 31.8756 25.9822 31.7496 26.1343 31.6044C26.3169 31.3186 26.5146 31.0281 26.687 30.8053C26.7073 30.7762 26.7327 30.7472 26.753 30.723L26.758 30.7278ZM25.3535 31.6576H25.3129C25.1304 31.6576 24.9072 31.4397 24.7754 31.2121C24.5726 30.8634 24.674 30.4663 24.8109 30.1079C24.9985 29.6382 25.3129 29.1684 25.5056 28.8924C25.6831 28.6357 25.9873 28.2967 26.3473 28.0642C26.3777 28.0981 26.4081 28.1369 26.4335 28.1708C26.1445 28.35 25.9112 28.5921 25.754 28.7955C25.5461 29.0667 25.0949 29.643 24.9478 30.1176C24.8616 30.4033 24.8819 30.8101 25.0289 31.0668C25.0898 31.1685 25.1709 31.2411 25.2673 31.2411H25.2875C25.4599 31.2411 25.536 30.9893 25.6019 30.8586C25.6881 30.6988 25.7693 30.568 25.8555 30.4227C25.9974 30.1951 26.3017 29.8416 26.54 29.7108C26.6667 29.643 26.8087 29.5994 26.9507 29.5607C26.9507 29.6091 26.9507 29.6527 26.9507 29.7011C26.8189 29.7399 26.687 29.7835 26.5653 29.8561C26.2712 30.0304 26.0633 30.3888 25.896 30.7036C25.8098 30.8683 25.5005 31.6528 25.3382 31.6528L25.3535 31.6576Z" fill="#FDD503"/>
<path fill-rule="evenodd" clip-rule="evenodd" d="M19.8162 4.05347C22.1081 4.05347 23.964 5.82595 23.964 8.01492C23.964 10.2039 22.1081 11.9764 19.8162 11.9764C17.5243 11.9764 15.6685 10.2039 15.6685 8.01492C15.6685 5.82595 17.5243 4.05347 19.8162 4.05347Z" fill="#DA690B"/>
<path fill-rule="evenodd" clip-rule="evenodd" d="M19.8821 10.3542H22.0372V11.0951H19.8821V10.3542ZM17.5902 10.3542H19.7452V11.0951H17.5902V10.3542ZM19.8821 9.44857H22.0372V10.1895H19.8821V9.44857ZM17.5902 9.44857H19.7452V10.1895H17.5902V9.44857ZM19.8821 8.54296H22.0372V9.28391H19.8821V8.54296ZM17.5902 8.54296H19.7452V9.28391H17.5902V8.54296ZM19.8821 7.63734H22.0372V8.3783H19.8821V7.63734ZM17.5902 7.63734H19.7452V8.3783H17.5902V7.63734ZM19.8821 6.73173H22.0372V7.47269H19.8821V6.73173ZM17.5902 6.73173H19.7452V7.47269H17.5902V6.73173ZM19.8821 5.82612H22.0372V6.56707H19.8821V5.82612ZM17.5902 5.82612H19.7452V6.56707H17.5902V5.82612ZM19.8821 4.9205H22.0372V5.66146H19.8821V4.9205ZM17.5902 4.9205H19.7452V5.66146H17.5902V4.9205ZM17.5902 4.66383C18.2139 4.28124 18.9542 4.05847 19.7452 4.04879V4.76069H17.5902V4.66867V4.66383ZM16.4747 5.66146C16.6877 5.38542 16.9361 5.13359 17.2201 4.9205H17.4584V5.66146H16.4798H16.4747ZM15.9524 6.56707C16.0589 6.30556 16.1958 6.05857 16.353 5.82612H17.4533V6.56707H15.9524ZM15.709 7.47269C15.7445 7.21601 15.8054 6.96903 15.8916 6.73173H17.4584V7.47269H15.709ZM15.6887 8.3783C15.6786 8.25723 15.6685 8.13131 15.6685 8.0054C15.6685 7.87949 15.6735 7.75841 15.6887 7.6325H17.4533V8.37346H15.6887V8.3783ZM15.8916 9.28391C15.8054 9.04661 15.7445 8.79963 15.709 8.54296H17.4584V9.28391H15.8916ZM16.3581 10.1895C16.1958 9.95707 16.064 9.71008 15.9575 9.44857H17.4584V10.1895H16.3581ZM17.2201 11.0951C16.9412 10.8821 16.6927 10.6302 16.4747 10.3542H17.4533V11.0951H17.215H17.2201ZM17.4584 11.2646H17.4482L17.4584 11.2598V11.2646ZM19.7503 11.9669C18.9593 11.9523 18.219 11.7296 17.5953 11.3518V11.2598H19.7503V11.9717V11.9669ZM22.0422 11.3518C21.4185 11.7344 20.6782 11.9572 19.8872 11.9669V11.255H22.0422V11.347V11.3518ZM23.1578 10.3542C22.9448 10.6302 22.6963 10.8821 22.4124 11.0951H22.1741V10.3542H23.1527H23.1578ZM23.68 9.44857C23.5735 9.71008 23.4366 9.95707 23.2795 10.1895H22.1791V9.44857H23.68ZM23.9234 8.54296C23.8879 8.79963 23.8271 9.04661 23.7409 9.28391H22.1741V8.54296H23.9234ZM23.9437 7.63734C23.9538 7.75841 23.964 7.88433 23.964 8.01024C23.964 8.13616 23.9589 8.25723 23.9437 8.38314H22.1791V7.64219H23.9437V7.63734ZM23.7409 6.73173C23.8271 6.96903 23.8879 7.21601 23.9234 7.47269H22.1741V6.73173H23.7409ZM23.2744 5.82612C23.4366 6.05857 23.5685 6.30556 23.675 6.56707H22.1741V5.82612H23.2744ZM22.4124 4.9205C22.6913 5.13359 22.9397 5.38542 23.1578 5.66146H22.1791V4.9205H22.4174H22.4124ZM22.1741 4.751H22.1842L22.1741 4.75584V4.751ZM19.8821 4.04879C20.6732 4.06332 21.4135 4.28609 22.0372 4.66383V4.75584H19.8821V4.04395V4.04879Z" fill="#FDD503"/>
<path fill-rule="evenodd" clip-rule="evenodd" d="M41.2041 16.3979C43.1208 16.3979 44.6724 17.8799 44.6724 19.7105C44.6724 21.5411 43.1208 23.023 41.2041 23.023C39.2874 23.023 37.7358 21.5411 37.7358 19.7105C37.7358 17.8799 39.2874 16.3979 41.2041 16.3979Z" fill="#EB9601"/>
<path fill-rule="evenodd" clip-rule="evenodd" d="M7.12925 19.7783C8.96988 19.7783 10.4606 21.2021 10.4606 22.9601C10.4606 24.718 8.96988 26.1418 7.12925 26.1418C5.28861 26.1418 3.79785 24.718 3.79785 22.9601C3.79785 21.2021 5.28861 19.7783 7.12925 19.7783Z" fill="#FDD503"/>
<path fill-rule="evenodd" clip-rule="evenodd" d="M35.9605 41.7694C36.5437 40.917 36.2901 39.7741 35.4028 39.222C34.5103 38.6651 33.3187 38.9072 32.7356 39.7596C32.1525 40.6119 32.406 41.75 33.2985 42.3069C34.1909 42.8638 35.3825 42.6217 35.9656 41.7742" fill="#EB9601"/>
<path fill-rule="evenodd" clip-rule="evenodd" d="M16.388 11.7102C18.2438 11.7102 19.7447 13.1437 19.7447 14.9162C19.7447 16.6887 18.2388 18.1221 16.388 18.1221C14.5372 18.1221 13.0312 16.6887 13.0312 14.9162C13.0312 13.1437 14.5372 11.7102 16.388 11.7102Z" fill="#EB9601"/>
<path fill-rule="evenodd" clip-rule="evenodd" d="M7.94083 13.8511C9.48736 13.8511 10.7398 15.0473 10.7398 16.5243C10.7398 18.0014 9.48736 19.1976 7.94083 19.1976C6.39429 19.1976 5.14185 18.0014 5.14185 16.5243C5.14185 15.0473 6.39429 13.8511 7.94083 13.8511Z" fill="#FDD503"/>
<path fill-rule="evenodd" clip-rule="evenodd" d="M28.9532 44.1818C29.9673 42.6998 29.5313 40.7094 27.9797 39.7457C26.428 38.7771 24.344 39.1936 23.335 40.6755C22.3208 42.1574 22.7569 44.1479 24.3085 45.1116C25.8601 46.0802 27.9442 45.6637 28.9532 44.1818Z" fill="#FDD503"/>
<path fill-rule="evenodd" clip-rule="evenodd" d="M36.0475 17.3274C36.732 17.3274 37.2898 17.8601 37.2898 18.5139C37.2898 19.1677 36.7371 19.7004 36.0475 19.7004C35.3579 19.7004 34.8052 19.1677 34.8052 18.5139C34.8052 17.8601 35.3629 17.3274 36.0475 17.3274Z" fill="#EB9601"/>
<path fill-rule="evenodd" clip-rule="evenodd" d="M12.5799 35.4834C13.9236 35.4834 15.0138 36.5246 15.0138 37.808C15.0138 39.0913 13.9236 40.1325 12.5799 40.1325C11.2362 40.1325 10.146 39.0913 10.146 37.808C10.146 36.5246 11.2362 35.4834 12.5799 35.4834Z" fill="#EB9601"/>
<path fill-rule="evenodd" clip-rule="evenodd" d="M23.9485 38.6028C25.3633 36.53 24.7548 33.7551 22.5846 32.3991C20.4143 31.0479 17.5089 31.629 16.0891 33.7018C14.6744 35.7745 15.2829 38.5495 17.4531 39.9055C19.6233 41.2566 22.5288 40.6755 23.9485 38.6028Z" fill="#EB9601"/>
<path fill-rule="evenodd" clip-rule="evenodd" d="M37.7865 11.8653C39.2214 12.3786 39.9516 13.9041 39.4141 15.2747C38.8766 16.6452 37.2794 17.3426 35.8444 16.8292C34.4094 16.3159 33.6793 14.7904 34.2167 13.4199C34.7542 12.0493 36.3515 11.352 37.7865 11.8653Z" fill="#FDD503"/>
<path fill-rule="evenodd" clip-rule="evenodd" d="M31.0625 10.6448C31.9143 10.6448 32.6039 11.3034 32.6039 12.117C32.6039 12.9306 31.9143 13.5892 31.0625 13.5892C30.2106 13.5892 29.521 12.9306 29.521 12.117C29.521 11.3034 30.2106 10.6448 31.0625 10.6448Z" fill="#FDD503"/>
<path fill-rule="evenodd" clip-rule="evenodd" d="M42.2735 12.0684C43.3637 12.0684 44.246 12.911 44.246 13.9522C44.246 14.9934 43.3637 15.8361 42.2735 15.8361C41.1833 15.8361 40.301 14.9934 40.301 13.9522C40.301 12.911 41.1833 12.0684 42.2735 12.0684Z" fill="#FDD503"/>
<path fill-rule="evenodd" clip-rule="evenodd" d="M43.2377 31.4446C44.333 31.4446 45.2203 32.2921 45.2203 33.3381C45.2203 34.3842 44.333 35.2317 43.2377 35.2317C42.1425 35.2317 41.2551 34.3842 41.2551 33.3381C41.2551 32.2921 42.1425 31.4446 43.2377 31.4446Z" fill="#FDD503"/>
<path fill-rule="evenodd" clip-rule="evenodd" d="M39.0438 32.4956C39.5864 31.7062 39.3532 30.6456 38.5266 30.1323C37.7001 29.6141 36.5897 29.8369 36.0522 30.6263C35.5096 31.4156 35.7429 32.4762 36.5745 32.9896C37.401 33.5078 38.5114 33.285 39.0489 32.4956" fill="#FDD503"/>
<path fill-rule="evenodd" clip-rule="evenodd" d="M12.3422 17.4878C13.3309 17.4878 14.1321 18.253 14.1321 19.1973C14.1321 20.1417 13.3309 20.9068 12.3422 20.9068C11.3534 20.9068 10.5522 20.1417 10.5522 19.1973C10.5522 18.253 11.3534 17.4878 12.3422 17.4878Z" fill="#EB9601"/>
<path fill-rule="evenodd" clip-rule="evenodd" d="M11.2314 11.0569C12.2506 11.0569 13.0772 11.8463 13.0772 12.8197C13.0772 13.7931 12.2506 14.5825 11.2314 14.5825C10.2123 14.5825 9.38574 13.7931 9.38574 12.8197C9.38574 11.8463 10.2123 11.0569 11.2314 11.0569Z" fill="#FDD503"/>
<path fill-rule="evenodd" clip-rule="evenodd" d="M14.0657 9.69531C14.6488 9.69531 15.1204 10.1457 15.1204 10.7026C15.1204 11.2596 14.6488 11.7099 14.0657 11.7099C13.4826 11.7099 13.011 11.2596 13.011 10.7026C13.011 10.1457 13.4826 9.69531 14.0657 9.69531Z" fill="#EB9601"/>
<path fill-rule="evenodd" clip-rule="evenodd" d="M39.8958 8.87183C40.4789 8.87183 40.9504 9.32221 40.9504 9.87914C40.9504 10.4361 40.4789 10.8865 39.8958 10.8865C39.3126 10.8865 38.8411 10.4361 38.8411 9.87914C38.8411 9.32221 39.3126 8.87183 39.8958 8.87183Z" fill="#FDD503"/>
<path fill-rule="evenodd" clip-rule="evenodd" d="M15.6633 40.4377C16.2007 40.4377 16.6368 40.8542 16.6368 41.3676C16.6368 41.8809 16.2007 42.2974 15.6633 42.2974C15.1258 42.2974 14.6897 41.8809 14.6897 41.3676C14.6897 40.8542 15.1258 40.4377 15.6633 40.4377Z" fill="#DA690B"/>
<path fill-rule="evenodd" clip-rule="evenodd" d="M21.8241 43.8081C22.3667 43.0187 22.1334 41.9581 21.3069 41.4448C20.4804 40.9266 19.3699 41.1494 18.8325 41.9388C18.2899 42.7281 18.5231 43.7887 19.3547 44.3021C20.1812 44.8203 21.2917 44.5975 21.8292 43.8081" fill="#EB9601"/>
<path fill-rule="evenodd" clip-rule="evenodd" d="M28.0103 4.48438C29.8662 4.48438 31.3671 5.91786 31.3671 7.69034C31.3671 9.46283 29.8611 10.8963 28.0103 10.8963C26.1595 10.8963 24.6536 9.46283 24.6536 7.69034C24.6536 5.91786 26.1595 4.48438 28.0103 4.48438Z" fill="#FDD503"/>
<path fill-rule="evenodd" clip-rule="evenodd" d="M27.3508 6.97813L27.2342 6.41151L27.6652 6.77957L27.8274 7.72392L27.3508 6.97328V6.97813ZM28.37 6.77957L28.801 6.41151L28.6843 6.97813L28.2229 7.7094L28.375 6.78441L28.37 6.77957ZM27.0668 7.38493L26.651 6.94907L27.1987 7.06045L27.6094 7.6755L27.0668 7.38977V7.38493ZM28.4156 7.6755L28.8365 7.06045L29.3841 6.94907L28.9683 7.38493L28.4156 7.6755ZM28.015 6.0483L27.8122 6.75535L28.01 7.80141L28.2229 6.75535L28.0201 6.0483H28.015ZM25.8651 7.34134C25.8448 7.45272 25.8347 7.56895 25.8347 7.68518C25.8347 7.80141 25.8448 7.91764 25.8651 8.02902L26.1643 7.69002L25.8651 7.34134ZM25.9513 7.01203C25.9209 7.0992 25.8955 7.19121 25.8752 7.28807L26.2606 7.65128L26.8741 7.39945L26.4685 6.90064L25.9513 7.01687V7.01203ZM26.3316 6.36308C26.1795 6.53743 26.0578 6.74083 25.9716 6.95875L26.4076 6.80863L26.3316 6.36308ZM26.58 6.12094C26.504 6.1839 26.433 6.2517 26.3721 6.32434L26.5141 6.81831L27.1834 6.89095L27.0972 6.27107L26.58 6.12094ZM27.2494 5.73836C27.0212 5.82068 26.8082 5.93691 26.6257 6.0822L27.082 6.15968L27.2494 5.73836ZM27.5891 5.64634C27.4928 5.66571 27.3964 5.68993 27.3001 5.71898L27.1632 6.2178L27.7057 6.60523L27.939 6.00471L27.5891 5.64634ZM28.3801 5.63665C28.2584 5.61728 28.1367 5.6076 28.0049 5.6076C27.873 5.6076 27.7615 5.61728 27.6449 5.63665L27.9947 5.91754L28.01 5.92723L28.0252 5.91754L28.375 5.63665H28.3801ZM28.73 5.72383C28.6336 5.68993 28.5373 5.66571 28.441 5.64634L28.0962 5.99987L28.3294 6.60038L28.8669 6.21295L28.73 5.71898V5.72383ZM29.3892 6.0822C29.2066 5.94175 29.0038 5.82553 28.7807 5.7432L28.948 6.15484L29.3892 6.0822ZM29.6528 6.33403C29.5869 6.25654 29.5109 6.18874 29.4348 6.12094L28.9328 6.26623L28.8466 6.88611L29.5159 6.81347L29.6528 6.32918V6.33403ZM30.0331 6.94907C29.952 6.74083 29.8354 6.54711 29.6883 6.37761L29.6173 6.80378L30.0331 6.94907ZM30.1345 7.29775C30.1143 7.19605 30.0889 7.0992 30.0534 7.00718L29.5514 6.8958L29.1458 7.39461L29.7593 7.64644L30.1295 7.29775H30.1345ZM30.1447 8.00965C30.165 7.90311 30.17 7.79657 30.17 7.68518C30.17 7.5738 30.1599 7.46241 30.1447 7.35587L29.8607 7.69002L30.1447 8.0145V8.00965ZM27.9998 4.97803C29.5616 4.97803 30.8292 6.18874 30.8292 7.68034C30.8292 7.89342 30.8039 8.10167 30.7532 8.30022L30.1143 8.15494C30.1193 8.12588 30.1295 8.09682 30.1345 8.06777L29.734 7.71424L29.0241 7.51568L28.1316 8.03387L28.3852 10.3875C28.2584 10.402 28.1266 10.4117 27.9998 10.4117C27.873 10.4117 27.7361 10.402 27.6094 10.3875L27.8528 8.00965L26.9908 7.51084L26.2809 7.7094L25.8702 8.07745C25.8752 8.10167 25.8803 8.13072 25.8854 8.15494L25.2465 8.30022C25.1958 8.10167 25.1704 7.89342 25.1704 7.68034C25.1704 6.18874 26.4381 4.97803 27.9998 4.97803Z" fill="#EB9601"/>
<path fill-rule="evenodd" clip-rule="evenodd" d="M34.9166 6.9353C36.0727 6.9353 37.0159 7.83123 37.0159 8.94024C37.0159 10.0493 36.0778 10.9452 34.9166 10.9452C33.7554 10.9452 32.8174 10.0493 32.8174 8.94024C32.8174 7.83123 33.7554 6.9353 34.9166 6.9353Z" fill="#EB9601"/>
<path fill-rule="evenodd" clip-rule="evenodd" d="M41.4528 38.4858C42.4314 37.0523 42.0106 35.1346 40.5097 34.1999C39.0088 33.2652 37.0008 33.6672 36.0222 35.1007C35.0435 36.5341 35.4644 38.4519 36.9653 39.3866C38.4662 40.3213 40.4742 39.9193 41.4528 38.4858Z" fill="#FDD503"/>
<path fill-rule="evenodd" clip-rule="evenodd" d="M41.199 38.8103C41.199 38.8103 41.2395 38.7618 41.2598 38.7376V36.7375H41.199V38.8103ZM39.9516 39.6626C39.9516 39.6626 39.9922 39.6481 40.0124 39.6384V36.7327H39.9516V39.6626ZM38.7042 39.8902C38.7042 39.8902 38.7448 39.8902 38.7651 39.8902V36.7375H38.7042V39.8902ZM37.4568 39.6384C37.4568 39.6384 37.4974 39.6529 37.5177 39.6626V36.7327H37.4568V39.6384ZM36.2095 38.7376C36.2095 38.7376 36.25 38.786 36.2703 38.8103V36.7375H36.2095V38.7376Z" fill="#DA690B"/>
<path fill-rule="evenodd" clip-rule="evenodd" d="M37.9027 36.7036C37.9331 36.3792 38.1714 36.0886 38.5213 36.0014C38.9675 35.8852 39.429 36.1419 39.5456 36.568C39.5608 36.6165 39.5659 36.6601 39.5709 36.7085H37.9027V36.7036ZM35.5753 36.7036C35.5905 36.5874 35.6361 36.476 35.7173 36.3889C35.8795 36.2048 36.1229 36.1516 36.3612 36.2145L37.2689 36.447C37.2486 36.5293 37.2334 36.6165 37.2334 36.7036H35.5753ZM36.199 36.1419C35.8795 36.1322 35.6361 36.3259 35.5499 36.5826C35.5651 36.384 35.5956 36.1903 35.6463 36.0014L36.1939 36.1419H36.199ZM37.2942 36.355L36.3866 36.1225C36.1483 36.0644 35.9657 35.8997 35.9201 35.6624C35.8947 35.5268 35.9201 35.3815 35.9961 35.2605C36.0671 35.1394 36.1838 35.0474 36.3257 34.999C36.5641 34.9166 36.8024 34.9844 36.9748 35.1539L37.639 35.7883C37.5173 35.9143 37.4159 36.0595 37.3449 36.2242C37.3449 36.2242 37.3399 36.2436 37.3348 36.2533C37.3348 36.2581 37.3348 36.2629 37.3297 36.2678V36.2823C37.3297 36.2823 37.3094 36.3307 37.2993 36.355H37.2942ZM36.2446 36.1273C36.2852 36.1467 36.3257 36.1564 36.3714 36.1709C36.3308 36.1612 36.2902 36.1467 36.2497 36.1322L36.2446 36.1273ZM36.2243 36.1177C36.2243 36.1177 36.2345 36.1225 36.2446 36.1273C36.2395 36.1273 36.2345 36.1225 36.2243 36.1177ZM36.204 36.108C36.204 36.108 36.2142 36.1128 36.2193 36.1177C36.2142 36.1177 36.2091 36.1128 36.204 36.108ZM35.8745 35.4203C35.8136 35.6818 35.9252 35.9675 36.204 36.108L35.6564 35.9675C35.7122 35.7787 35.7832 35.5946 35.8745 35.4203ZM36.8784 35.0232C36.6097 34.8537 36.2852 34.9021 36.0773 35.0861C36.1888 34.9215 36.3207 34.7713 36.4626 34.6309L36.8632 35.0135C36.8632 35.0135 36.8734 35.0183 36.8784 35.0232ZM37.6999 35.7205L37.0356 35.0861C36.8582 34.9215 36.7872 34.6939 36.8734 34.4662C36.9241 34.3355 37.0204 34.2241 37.1472 34.1515C37.2739 34.0837 37.4261 34.0546 37.568 34.0788C37.8165 34.1224 37.9838 34.2967 38.0498 34.5244L38.2931 35.3912H38.2779L38.2627 35.4009C38.2576 35.4009 38.2526 35.4009 38.2475 35.4058C38.2374 35.4058 38.2272 35.4106 38.2221 35.4154C38.0244 35.4832 37.852 35.5898 37.7049 35.7205H37.6999ZM36.9646 34.2289C36.7415 34.4614 36.701 34.8391 36.9951 35.1152C36.9545 35.0716 36.919 35.0329 36.8886 34.9893L36.488 34.6067C36.635 34.4711 36.7922 34.3452 36.9697 34.2338L36.9646 34.2289ZM37.6999 35.8029L38.0751 36.1612H38.0802C37.9686 36.2629 37.8875 36.3985 37.8469 36.5487V36.5293L37.3348 36.3985V36.3889C37.3348 36.3889 37.3348 36.3743 37.3399 36.3646C37.3399 36.3646 37.35 36.3404 37.3551 36.3259C37.3551 36.3259 37.3601 36.3065 37.3652 36.2968V36.2823L37.3754 36.2678C37.3754 36.2629 37.3804 36.2533 37.3855 36.2484L37.8773 36.4421L37.8875 36.4179L37.3956 36.2242C37.4159 36.1758 37.4413 36.1273 37.4666 36.0838L37.9281 36.3404L37.9382 36.3211L37.4768 36.0644C37.5021 36.0208 37.5325 35.9772 37.568 35.9336L37.9889 36.2436L38.0041 36.2242L37.5833 35.9143C37.6137 35.8755 37.6492 35.8368 37.6847 35.8029H37.6999ZM37.8419 35.6818L38.1664 36.0838C38.1359 36.1031 38.1106 36.1273 38.0852 36.1516L38.0954 36.1419L37.7202 35.7835C37.7202 35.7835 37.7303 35.7738 37.7354 35.769H37.7404C37.7709 35.7351 37.8064 35.706 37.8419 35.6818ZM37.999 35.5801L38.2678 36.0208C38.2424 36.0353 38.2171 36.0547 38.1917 36.0692L37.8672 35.6673C37.9128 35.6382 37.9585 35.6092 38.0041 35.5801H37.999ZM38.1664 35.4978L38.3692 35.9675C38.3388 35.9772 38.3134 35.9917 38.283 36.0063L38.0143 35.5656C38.0599 35.5414 38.1106 35.5171 38.1613 35.4978H38.1664ZM38.3438 35.4397L38.4808 35.9336H38.4909C38.4554 35.9385 38.4199 35.953 38.3895 35.9627L38.1867 35.4929C38.1917 35.4929 38.1968 35.4929 38.2019 35.4881C38.2019 35.4881 38.2222 35.4832 38.2272 35.4784H38.2424L38.2576 35.4687C38.2678 35.4687 38.2779 35.4639 38.2881 35.459C38.2881 35.459 38.2982 35.459 38.3033 35.4542C38.3033 35.4542 38.3286 35.4493 38.3388 35.4445L38.3438 35.4397ZM38.3692 35.4348H38.3793C38.4148 35.4251 38.4453 35.4203 38.4808 35.4154C38.4909 35.4154 38.496 35.4154 38.5061 35.4154M38.5061 35.4154L38.5771 35.9191H38.5822C38.5467 35.9191 38.5112 35.9288 38.4706 35.9385H38.4808L38.3438 35.4445M37.8064 36.6601L37.279 36.5874C37.279 36.5729 37.279 36.5584 37.2892 36.539C37.2942 36.5051 37.3044 36.4663 37.3145 36.4324L37.8317 36.5632C37.8216 36.5923 37.8165 36.6262 37.8114 36.6552L37.8064 36.6601ZM37.2739 36.6116L37.8013 36.6794C37.8013 36.6794 37.8013 36.7036 37.8013 36.7133H37.2689C37.2689 36.6794 37.2689 36.6455 37.279 36.6116H37.2739ZM37.8621 33.8367L38.0092 34.3597C37.8621 34.0933 37.5579 33.9868 37.2841 34.0449C37.4666 33.9577 37.6593 33.8899 37.8621 33.8367ZM38.3641 35.3719L38.1207 34.505C38.0548 34.2774 38.1157 34.0449 38.3033 33.8899C38.4098 33.8028 38.5517 33.7543 38.6937 33.7495H38.7089C38.7089 33.7495 38.7191 33.7495 38.7292 33.7495C38.8712 33.7495 39.003 33.8028 39.1146 33.8899C39.3073 34.0449 39.363 34.2774 39.2971 34.505L39.0537 35.3719C38.9422 35.3476 38.8256 35.3331 38.7039 35.3331C38.5872 35.3331 38.4757 35.3476 38.3692 35.3719H38.3641ZM38.5061 33.7301C38.2374 33.8076 38.0295 34.0449 38.0447 34.35L37.8976 33.827C38.1005 33.7737 38.3033 33.7447 38.5061 33.735V33.7301ZM39.3681 34.35C39.3783 34.0449 39.1754 33.8076 38.9067 33.7301C39.1146 33.7447 39.3174 33.7737 39.5152 33.8221L39.3681 34.35ZM39.145 35.3961L39.3884 34.5292C39.4492 34.3016 39.6216 34.1272 39.8701 34.0837C40.0121 34.0594 40.1642 34.0837 40.291 34.1563C40.4177 34.2241 40.5141 34.3355 40.5648 34.4711C40.651 34.6987 40.58 34.9263 40.4025 35.091L39.7383 35.7254C39.6014 35.5995 39.434 35.5026 39.2515 35.4348H39.2413C39.2413 35.4348 39.2312 35.4251 39.2211 35.4251C39.2109 35.4251 39.2008 35.4203 39.1957 35.4154C39.1957 35.4154 39.1653 35.4058 39.1501 35.4009L39.145 35.3961ZM39.3478 34.4953C39.3478 34.4953 39.3478 34.5098 39.3428 34.5147C39.3428 34.5098 39.3428 34.5001 39.3478 34.4953ZM39.3529 34.4759C39.3529 34.4759 39.3529 34.4856 39.3529 34.4905C39.3529 34.4905 39.3529 34.4808 39.3529 34.4759ZM39.4036 34.3597C39.4036 34.3597 39.4036 34.3694 39.3985 34.3742C39.3985 34.3742 39.3985 34.3645 39.4036 34.3597ZM40.1236 34.0401C39.8498 33.982 39.5507 34.0885 39.4036 34.3549L39.5507 33.8318C39.7484 33.8851 39.9411 33.9529 40.1236 34.0401ZM40.5496 34.9893C40.7169 34.7326 40.6662 34.4323 40.4735 34.2338C40.6459 34.3403 40.8031 34.4662 40.9501 34.6018L40.5496 34.9844V34.9893ZM40.5394 35.0038C40.5394 35.0038 40.5445 34.9941 40.5496 34.9893C40.5496 34.9893 40.5445 34.999 40.5394 35.0038ZM40.5293 35.0232C40.5293 35.0232 40.5343 35.0135 40.5394 35.0086C40.5394 35.0086 40.5344 35.0183 40.5293 35.0232ZM40.5191 35.0377C40.5191 35.0377 40.5242 35.028 40.5293 35.028C40.5293 35.028 40.5242 35.0377 40.5191 35.0377ZM40.5039 35.0522C40.5039 35.0522 40.509 35.0474 40.5141 35.0425C40.5141 35.0425 40.509 35.0474 40.5039 35.0522ZM40.4583 35.1007C40.4583 35.1007 40.4684 35.091 40.4684 35.0861C40.4684 35.0861 40.4583 35.0958 40.4583 35.1007ZM40.4583 35.1007C40.4583 35.1007 40.4786 35.0813 40.4938 35.0716C40.4938 35.0716 40.5039 35.0619 40.509 35.0571C40.509 35.0571 40.5191 35.0474 40.5242 35.0425M39.8093 35.7835L40.4735 35.1491C40.6459 34.9796 40.8842 34.9118 41.1225 34.9941C41.2594 35.0425 41.3761 35.1346 41.4471 35.2556C41.518 35.3767 41.5485 35.522 41.5231 35.6576C41.4775 35.8949 41.2949 36.0595 41.0566 36.1177L40.149 36.3501V36.3356L40.1388 36.3307C40.1388 36.3211 40.1338 36.3162 40.1287 36.3065C40.1287 36.3017 40.1287 36.292 40.1236 36.2872C40.0526 36.0934 39.9462 35.9288 39.8093 35.7883V35.7835ZM40.4583 35.1007C40.4583 35.1007 40.4481 35.1103 40.4431 35.1152C40.4431 35.1152 40.4532 35.1055 40.4583 35.1007C40.4583 35.1007 40.4481 35.1103 40.4431 35.1152C40.4481 35.1103 40.4532 35.1055 40.4583 35.1007ZM41.371 35.0861C41.153 34.8924 40.8031 34.844 40.5242 35.0474C40.5394 35.0329 40.5597 35.0232 40.5749 35.0135L40.9755 34.6309C41.1175 34.7713 41.2493 34.9215 41.3659 35.091L41.371 35.0861ZM39.7231 35.7883L39.3478 36.1467H39.3529C39.2109 36.0208 39.0284 35.9336 38.8306 35.9094H38.8408L38.9118 35.4058C38.927 35.4058 38.9422 35.4058 38.9625 35.4154C38.998 35.4203 39.0385 35.43 39.074 35.4397L38.9371 35.9336H38.9625L39.0994 35.4493C39.1044 35.4493 39.1146 35.4493 39.1197 35.4542C39.1349 35.4542 39.1501 35.4639 39.1602 35.4687C39.1602 35.4687 39.1805 35.4736 39.1856 35.4784H39.2008L39.2109 35.4881C39.216 35.4881 39.2261 35.4929 39.2312 35.4978L39.0284 35.9675L39.0537 35.9772L39.2566 35.5075C39.3073 35.5268 39.358 35.551 39.4036 35.5753L39.1349 36.016L39.1551 36.0256L39.4239 35.5849C39.4695 35.6092 39.5152 35.6382 39.5608 35.6721L39.2363 36.0741L39.2566 36.0886L39.5811 35.6866C39.6216 35.7205 39.6673 35.7544 39.7028 35.7883H39.7231ZM39.8498 35.9239L39.429 36.2339C39.429 36.2339 39.3833 36.1855 39.358 36.1612L39.7332 35.8029C39.7332 35.8029 39.7383 35.8126 39.7433 35.8174L39.7535 35.8271C39.7535 35.8271 39.7687 35.8416 39.7738 35.8513C39.7738 35.8513 39.8143 35.8997 39.8346 35.9239H39.8498ZM39.9563 36.0741L39.4949 36.3307C39.4797 36.3065 39.4594 36.2775 39.4442 36.2581L39.865 35.9482C39.8955 35.9917 39.9259 36.0353 39.9563 36.0789V36.0741ZM40.0425 36.2339L39.5507 36.4276C39.5405 36.3985 39.5253 36.3743 39.5101 36.3453L39.9715 36.0886C39.9969 36.1322 40.0222 36.1806 40.0425 36.229V36.2339ZM39.5963 36.5535L40.1135 36.4276C40.1236 36.4712 40.1338 36.5148 40.1439 36.5584C40.1439 36.568 40.1439 36.5729 40.1439 36.5826L39.6166 36.6504V36.6746L40.149 36.6068C40.149 36.6407 40.1541 36.6746 40.1591 36.7085H39.6267C39.6267 36.6601 39.6115 36.6068 39.6014 36.5584L39.5963 36.5535ZM40.1084 36.4034L39.5912 36.5341V36.5438C39.5861 36.5099 39.5709 36.476 39.5608 36.447L40.0526 36.2581C40.0577 36.2726 40.0628 36.2872 40.0729 36.3017V36.3114C40.0729 36.3114 40.0831 36.3211 40.0831 36.3307C40.0831 36.3356 40.0831 36.3453 40.0881 36.3501V36.3598L40.0932 36.3743C40.0932 36.384 40.0983 36.3985 40.1033 36.4082L40.1084 36.4034ZM38.7292 35.9046V35.3961C38.785 35.3961 38.8357 35.3961 38.8915 35.4058L38.8205 35.9094C38.7901 35.9094 38.7546 35.9046 38.7241 35.9046H38.7292ZM38.7039 35.3961V35.9046C38.6684 35.9046 38.6329 35.9046 38.6024 35.9094L38.5315 35.4058C38.5872 35.4009 38.643 35.3961 38.6937 35.3961H38.7039ZM40.1845 36.447L41.0921 36.2145C41.3304 36.1516 41.5738 36.2097 41.7361 36.3889C41.8172 36.476 41.8629 36.5874 41.8781 36.7036H40.22C40.22 36.6165 40.2048 36.5293 40.1845 36.447ZM41.9034 36.5826C41.8071 36.2823 41.4826 36.0595 41.082 36.1661C41.4826 36.0644 41.6499 35.7205 41.5738 35.4154C41.6651 35.5946 41.7412 35.7835 41.7969 35.9821C41.8527 36.1806 41.8882 36.384 41.8983 36.5826H41.9034ZM41.9592 36.7957C41.9592 35.7835 41.442 34.7956 40.4887 34.1999C38.9878 33.2652 36.9799 33.6672 36.0012 35.1007C35.6666 35.5898 35.4942 36.137 35.4739 36.6794V36.7036C35.4739 36.7327 35.4739 36.7618 35.4739 36.7957H41.9592Z" fill="#DA690B"/>
<path d="M32.0819 24.2331C32.0768 24.451 31.8892 24.6205 31.661 24.6108C31.4328 24.606 31.2554 24.4268 31.2655 24.2089V24.1943C31.2655 24.1217 31.2351 24.0587 31.1945 24.0151C31.1539 23.9764 31.1032 23.9522 31.0424 23.9473H31.0322C30.9613 23.9473 30.8903 23.9812 30.8345 24.0345C30.7787 24.0926 30.7432 24.1653 30.7382 24.2524C30.7382 24.2718 30.7382 24.2863 30.7382 24.3009C30.7382 24.5479 30.8396 24.7658 30.9968 24.9256C31.1489 25.0806 31.3568 25.1726 31.59 25.1823C31.6052 25.1823 31.6204 25.1823 31.6306 25.1823C31.8892 25.1823 32.1275 25.066 32.31 24.8917C32.4926 24.7125 32.6092 24.4655 32.6194 24.1943C32.6194 24.1653 32.6194 24.1411 32.6194 24.1168C32.6143 23.6955 32.447 23.3226 32.1782 23.0514C31.9145 22.7851 31.5495 22.6204 31.1438 22.6059C31.1184 22.6059 31.0982 22.6059 31.0728 22.6059C30.6266 22.6107 30.2159 22.7996 29.9116 23.0998C29.6023 23.4049 29.4046 23.8214 29.3894 24.2767C29.3894 24.3154 29.3894 24.3541 29.3894 24.388C29.3995 24.9789 29.6328 25.5116 30.0181 25.8942C30.3934 26.2719 30.9106 26.5141 31.4937 26.5286C31.5292 26.5286 31.5596 26.5286 31.5951 26.5286C32.2289 26.5189 32.807 26.2525 33.238 25.8312C33.674 25.405 33.9529 24.8191 33.9681 24.175C33.9681 24.1265 33.9681 24.0781 33.9681 24.0345C33.958 23.2693 33.6487 22.5817 33.1568 22.0877C32.6701 21.5937 31.9957 21.2838 31.2401 21.2644C31.1945 21.2644 31.1539 21.2644 31.1134 21.2644C30.297 21.2789 29.5415 21.6228 28.9888 22.17C28.431 22.7221 28.071 23.4776 28.0457 24.3057C28.0457 24.3638 28.0457 24.4219 28.0457 24.4801C28.0609 25.4196 28.4361 26.2622 29.0395 26.8724C29.6378 27.4778 30.4694 27.8604 31.3973 27.8846C31.4531 27.8846 31.5038 27.8846 31.5545 27.8846C32.5585 27.8701 33.4814 27.4487 34.1659 26.7756C34.8504 26.1024 35.2916 25.1774 35.322 24.1604C35.322 24.0878 35.322 24.02 35.322 23.957C35.3017 22.8432 34.8606 21.8455 34.1405 21.124C33.4307 20.4072 32.447 19.952 31.3416 19.9229C31.2807 19.9229 31.2148 19.9229 31.1539 19.9229C29.9623 19.9423 28.8671 20.4411 28.0609 21.2353C27.2496 22.0344 26.7324 23.1289 26.6918 24.3251C26.6918 24.4074 26.6918 24.4849 26.6918 24.5624C26.7121 25.8506 27.2242 26.9983 28.0558 27.8362C28.8772 28.6691 30.0181 29.1922 31.2959 29.2261C31.3669 29.2261 31.443 29.2261 31.5089 29.2261C32.883 29.2067 34.1507 28.6255 35.0837 27.7102C36.0217 26.7901 36.6809 25.56 36.7215 24.1701C36.7367 23.7052 37.2083 23.5405 37.188 24.2185C37.1423 25.807 36.7418 27.1969 35.6668 28.2526C34.5868 29.3132 33.1213 29.9815 31.519 30.0058C31.4328 30.0058 31.3517 30.0058 31.2706 30.0058C29.7646 29.967 28.426 29.352 27.4575 28.3737C26.494 27.4003 25.8957 26.0637 25.8704 24.5721C25.8704 24.4801 25.8704 24.388 25.8704 24.3009C25.9109 22.8964 26.5194 21.6179 27.4676 20.6833C28.4209 19.7437 29.719 19.1578 31.1337 19.1335C31.2097 19.1335 31.2858 19.1335 31.3568 19.1335C32.6903 19.1723 33.8718 19.7147 34.7287 20.5767C35.5806 21.4387 36.1079 22.6156 36.1282 23.9328C36.1282 24.0151 36.1282 24.0926 36.1282 24.1701C36.0927 25.3857 35.5654 26.4995 34.7439 27.3083C33.9174 28.1219 32.7918 28.6352 31.5596 28.6546C31.4937 28.6546 31.4278 28.6546 31.3669 28.6546C30.2108 28.6207 29.1815 28.1509 28.4361 27.4003C27.6958 26.6545 27.2394 25.6278 27.2191 24.4849C27.2191 24.4123 27.2191 24.3445 27.2191 24.2767C27.2496 23.2451 27.6958 22.3056 28.3955 21.6179C29.0953 20.9302 30.0536 20.4944 31.0982 20.4799C31.1539 20.4799 31.2097 20.4799 31.2604 20.4799C32.2441 20.5089 33.1163 20.906 33.7501 21.5453C34.3789 22.1797 34.7642 23.0466 34.7845 24.02C34.7845 24.0781 34.7845 24.1362 34.7845 24.1943C34.7592 25.0418 34.3941 25.8118 33.8211 26.3736C33.2481 26.9402 32.4622 27.2986 31.6052 27.3083C31.5596 27.3083 31.514 27.3083 31.4734 27.3083C30.6621 27.2841 29.9421 26.9548 29.4249 26.4317C28.9077 25.9087 28.5882 25.1968 28.5781 24.4026C28.5781 24.3541 28.5781 24.3057 28.5781 24.2573C28.5984 23.5987 28.8823 22.9981 29.3285 22.5574C29.7798 22.1167 30.3933 21.8359 31.0627 21.8262C31.0982 21.8262 31.1337 21.8262 31.1692 21.8262C31.803 21.8455 32.3709 22.1022 32.7765 22.5139C33.1822 22.9207 33.4306 23.4776 33.4408 24.1023C33.4408 24.1411 33.4408 24.1798 33.4408 24.2137C33.4256 24.6883 33.2228 25.1193 32.9033 25.4341C32.5788 25.7537 32.1376 25.9523 31.6509 25.962C31.6255 25.962 31.6002 25.962 31.5748 25.962C31.1134 25.9474 30.7027 25.7634 30.4035 25.4632C30.1145 25.1677 29.9319 24.7658 29.9218 24.3154C29.9218 24.2863 29.9218 24.2621 29.9218 24.2331C29.9319 23.9473 30.0536 23.681 30.2514 23.4921C30.4491 23.2984 30.7229 23.1725 31.0221 23.1676C31.0221 23.1676 31.0475 23.1676 31.0576 23.1676H31.0627C31.3517 23.1773 31.6052 23.2936 31.7928 23.4776C31.9703 23.6568 32.0819 23.9086 32.0869 24.1798C32.0869 24.1992 32.0869 24.2137 32.0869 24.2282" fill="#EB9601"/>
<path fill-rule="evenodd" clip-rule="evenodd" d="M22.7927 21.289C22.7167 21.1243 22.6305 20.9597 22.5392 20.8047C22.2299 20.6836 21.9206 20.5335 21.6113 20.5335C21.0738 20.5335 20.5363 20.9645 20.0039 20.9645C19.4715 20.9645 18.9593 20.5335 18.4371 20.5335C17.9148 20.5335 17.3621 20.9645 16.8297 20.9645C16.2973 20.9645 15.7851 20.5335 15.2629 20.5335C14.9434 20.5335 14.629 20.6836 14.3096 20.8047C14.2132 20.9597 14.127 21.1243 14.0561 21.289C14.4566 21.4101 14.8623 21.6522 15.2629 21.6522C15.7851 21.6522 16.3125 21.2212 16.8297 21.2212C17.3469 21.2212 17.8996 21.6522 18.4371 21.6522C18.9746 21.6522 19.4867 21.2212 20.0039 21.2212C20.5211 21.2212 21.0738 21.6522 21.6113 21.6522C22.0068 21.6522 22.4023 21.4101 22.7927 21.289ZM23.1578 22.6159C23.1477 22.5287 23.1375 22.4416 23.1223 22.3544C22.6203 22.3205 22.1133 21.9282 21.6113 21.9282C21.0738 21.9282 20.5363 22.3592 20.0039 22.3592C19.4715 22.3592 18.9593 21.9282 18.4371 21.9282C17.9148 21.9282 17.3621 22.3592 16.8297 22.3592C16.2973 22.3592 15.7851 21.9282 15.2629 21.9282C14.7406 21.9282 14.2437 22.3157 13.7315 22.3544C13.7163 22.4416 13.7062 22.5287 13.696 22.6159C14.2183 22.6353 14.7406 23.0469 15.2679 23.0469C15.7953 23.0469 16.3176 22.6159 16.8348 22.6159C17.352 22.6159 17.9047 23.0469 18.4421 23.0469C18.9796 23.0469 19.4918 22.6159 20.009 22.6159C20.5262 22.6159 21.0789 23.0469 21.6163 23.0469C22.1538 23.0469 22.6457 22.6304 23.1629 22.6159H23.1578ZM23.0868 24.0107C23.1071 23.9235 23.1223 23.8363 23.1375 23.7443C22.6305 23.7201 22.1234 23.3133 21.6163 23.3133C21.0789 23.3133 20.5414 23.7443 20.009 23.7443C19.4765 23.7443 18.9644 23.3133 18.4421 23.3133C17.9199 23.3133 17.3672 23.7443 16.8348 23.7443C16.3023 23.7443 15.7902 23.3133 15.2679 23.3133C14.7457 23.3133 14.2386 23.7104 13.7214 23.7395C13.7366 23.8315 13.7518 23.9186 13.7721 24.0058C14.2741 24.0591 14.7659 24.432 15.2679 24.432C15.7699 24.432 16.3176 24.001 16.8348 24.001C17.352 24.001 17.9047 24.432 18.4421 24.432C18.9796 24.432 19.4918 24.001 20.009 24.001C20.5262 24.001 21.0789 24.432 21.6163 24.432C22.1082 24.432 22.6 24.0542 23.0868 24.0058V24.0107ZM22.3769 25.6233C22.5037 25.4393 22.6203 25.2504 22.7217 25.047C22.3516 24.9211 21.9814 24.708 21.6163 24.708C21.0789 24.708 20.5414 25.139 20.009 25.139C19.4765 25.139 18.9644 24.708 18.4421 24.708C17.9199 24.708 17.3672 25.139 16.8348 25.139C16.3023 25.139 15.7902 24.708 15.2679 24.708C14.8876 24.708 14.5124 24.9211 14.1372 25.047C14.2386 25.2456 14.3502 25.4393 14.482 25.6185C14.7457 25.725 15.0043 25.8267 15.2679 25.8267C15.7902 25.8267 16.3176 25.3957 16.8348 25.3957C17.352 25.3957 17.9047 25.8267 18.4421 25.8267C18.9796 25.8267 19.4918 25.3957 20.009 25.3957C20.5262 25.3957 21.0789 25.8267 21.6163 25.8267C21.8699 25.8267 22.1234 25.725 22.3769 25.6233ZM20.8253 27.0132C21.2411 26.7808 21.6163 26.4902 21.9409 26.1512C21.8293 26.1221 21.7228 26.1028 21.6113 26.1028C21.0738 26.1028 20.5363 26.5338 20.0039 26.5338C19.4715 26.5338 18.9593 26.1028 18.4371 26.1028C17.9148 26.1028 17.3621 26.5338 16.8297 26.5338C16.2973 26.5338 15.7851 26.1028 15.2629 26.1028C15.1462 26.1028 15.0296 26.1221 14.913 26.156C15.1665 26.4224 15.4505 26.6549 15.7649 26.8583H15.7699C15.7699 26.8583 15.8206 26.8922 15.846 26.9115C15.8612 26.9212 15.8764 26.9309 15.8916 26.9406L15.917 26.9551C15.9525 26.9793 15.993 26.9987 16.0285 27.0181C16.2973 26.9067 16.566 26.7953 16.8297 26.7953C17.3621 26.7953 17.8996 27.2263 18.4371 27.2263C18.9746 27.2263 19.4867 26.7953 20.0039 26.7953C20.2777 26.7953 20.5515 26.9067 20.8203 27.0181L20.8253 27.0132ZM22.0727 20.1751C21.9206 20.2284 21.7634 20.2671 21.6113 20.2671C21.0738 20.2671 20.5363 19.8361 20.0039 19.8361C19.4715 19.8361 18.9593 20.2671 18.4371 20.2671C17.9148 20.2671 17.3621 19.8361 16.8297 19.8361C16.2973 19.8361 15.7851 20.2671 15.2629 20.2671C15.1006 20.2671 14.9434 20.2284 14.7812 20.1751C15.0854 19.8313 15.4454 19.5262 15.8409 19.2792C16.1705 19.4051 16.5001 19.5795 16.8297 19.5795C17.3621 19.5795 17.8996 19.1484 18.4371 19.1484C18.9746 19.1484 19.4867 19.5795 20.0039 19.5795C20.3386 19.5795 20.6732 19.41 21.0129 19.284C21.4135 19.531 21.7685 19.8313 22.0727 20.18V20.1751Z" fill="#EB9601"/>
<path d="M25.4651 15.4436L27.5541 14.2862L26.8544 13.1239L25.4651 15.4436ZM25.0391 15.8504L22.874 17.0515L23.5991 18.2477L25.0391 15.8504ZM25.0391 15.6809L22.7928 14.446L22.0424 15.6906L22.7928 16.9256L25.0341 15.6809H25.0391ZM27.5491 17.0612L25.4397 15.8989L26.829 18.2525L27.5491 17.0612ZM25.3535 15.6809L27.6302 16.9352L28.3908 15.6713L27.6353 14.417L25.3535 15.6809ZM22.874 14.3153L25.0239 15.5018L23.6041 13.0997L22.874 14.3153ZM25.2166 11.1287C25.247 11.1287 25.2774 11.1287 25.3079 11.1287V15.4146L26.7733 12.9738L25.6729 11.148C25.7389 11.1529 25.7997 11.1626 25.8656 11.1674L26.8645 12.8237L27.5389 11.7001C27.5846 11.7243 27.6302 11.7485 27.6758 11.7728L26.9558 12.9738L27.7012 14.2087L29.2984 13.3225C29.3238 13.3661 29.3491 13.4096 29.3745 13.4532L27.7773 14.3395L28.4871 15.5211L29.5418 13.768C29.5672 13.8261 29.5925 13.8794 29.6179 13.9375L28.5733 15.6713L29.6179 17.405C29.5925 17.4631 29.5672 17.5164 29.5418 17.5745L28.4871 15.8214L27.7722 17.0127L29.3745 17.8941C29.3491 17.9377 29.3238 17.9813 29.2984 18.0249L27.6961 17.1435L26.9305 18.4123L27.6302 19.5988C27.5846 19.623 27.5389 19.6472 27.4933 19.6715L26.8392 18.5624L25.8656 20.18C25.7997 20.1896 25.7389 20.1945 25.6729 20.1993L26.753 18.4123L25.318 15.9812V20.2187C25.2876 20.2187 25.2572 20.2187 25.2267 20.2187C25.2065 20.2187 25.1811 20.2187 25.1608 20.2187V15.9812L23.7055 18.4026L24.8008 20.1993C24.7349 20.1945 24.674 20.1896 24.6081 20.18L23.6193 18.5528L22.95 19.6666C22.9044 19.6424 22.8588 19.6182 22.8131 19.594L23.523 18.4075L22.7523 17.1386L21.15 18.0249C21.1246 17.9813 21.0993 17.9377 21.0739 17.8941L22.6762 17.0079L21.9714 15.8456L20.9167 17.5939C20.8914 17.5406 20.8609 17.4825 20.8407 17.4244L21.8801 15.6955L20.8254 13.9617C20.8508 13.9036 20.8761 13.8455 20.9015 13.7922L21.9714 15.5453L22.6762 14.3734L21.0638 13.4823C21.0891 13.4387 21.1145 13.3951 21.1398 13.3515L22.7523 14.2426L23.5331 12.9496L22.8233 11.7534C22.8689 11.7292 22.9145 11.705 22.9602 11.6807L23.6244 12.8043L24.6081 11.1722C24.674 11.1626 24.7349 11.1577 24.8008 11.1529L23.7157 12.9544L25.1659 15.4097V11.1335C25.1659 11.1335 25.2115 11.1335 25.2318 11.1335L25.2166 11.1287Z" fill="#FDD503"/>
<path d="M7.24089 17.1927L7.38794 17.0522C7.52992 17.1878 7.7226 17.2701 7.94064 17.2701C8.15867 17.2701 8.35136 17.1878 8.49333 17.0522L8.64038 17.1927C8.46291 17.3622 8.21445 17.4687 7.94064 17.4687C7.66682 17.4687 7.41836 17.3622 7.24089 17.1927ZM6.91637 17.5026L7.06342 17.3622C7.28653 17.5752 7.59583 17.7108 7.93557 17.7108C8.2753 17.7108 8.58461 17.5801 8.80771 17.3622L8.95476 17.5026C8.69109 17.7544 8.33107 17.9094 7.9305 17.9094C7.52992 17.9094 7.1699 17.7544 6.90623 17.5026H6.91637ZM6.59185 17.8125L6.7389 17.6721C7.04821 17.9627 7.46907 18.1467 7.93557 18.1467C8.40206 18.1467 8.82799 17.9675 9.13223 17.6721L9.27928 17.8125C8.93448 18.1419 8.45784 18.3453 7.9305 18.3453C7.40315 18.3453 6.92651 18.1419 6.58171 17.8125H6.59185ZM7.24089 15.856L7.38794 15.9965C7.52992 15.8609 7.7226 15.7785 7.94064 15.7785C8.15867 15.7785 8.35136 15.8609 8.49333 15.9965L8.64038 15.856C8.46291 15.6865 8.21445 15.58 7.94064 15.58C7.66682 15.58 7.41836 15.6865 7.24089 15.856ZM6.91637 15.5461L7.06342 15.6865C7.28653 15.4734 7.59583 15.3378 7.93557 15.3378C8.2753 15.3378 8.58461 15.4686 8.80771 15.6865L8.95476 15.5461C8.69109 15.2943 8.33107 15.1393 7.9305 15.1393C7.52992 15.1393 7.1699 15.2943 6.90623 15.5461H6.91637ZM6.59185 15.2361L6.7389 15.3766C7.04821 15.086 7.46907 14.902 7.93557 14.902C8.40206 14.902 8.82799 15.0812 9.13223 15.3766L9.27928 15.2361C8.93448 14.9068 8.45784 14.7034 7.9305 14.7034C7.40315 14.7034 6.92651 14.9068 6.58171 15.2361H6.59185ZM7.94064 16.2047C8.12318 16.2047 8.2753 16.35 8.2753 16.5243C8.2753 16.6987 8.12318 16.844 7.94064 16.844C7.75809 16.844 7.60598 16.6987 7.60598 16.5243C7.60598 16.35 7.75809 16.2047 7.94064 16.2047ZM7.94064 14.2676C8.59475 14.2676 9.18294 14.5194 9.61394 14.931L9.46689 15.0715C9.07645 14.6986 8.53897 14.471 7.94571 14.471C7.35245 14.471 6.81496 14.7034 6.42452 15.0715L6.27747 14.931C6.70341 14.5242 7.29667 14.2676 7.95078 14.2676H7.94064ZM9.61394 18.1225C9.18801 18.5293 8.59475 18.786 7.94064 18.786C7.28653 18.786 6.69834 18.5341 6.26733 18.1225L6.41438 17.982C6.80482 18.3549 7.3423 18.5826 7.93557 18.5826C8.52883 18.5826 9.06631 18.3501 9.45675 17.982L9.6038 18.1225H9.61394Z" fill="#DA690B"/>
<path d="M40.8386 28.5583C40.1946 28.5196 39.6166 28.4275 39.1602 28.3016C38.5112 28.1224 38.1106 27.8561 38.1106 27.5558C38.1106 27.2556 38.5112 26.9892 39.1602 26.81C39.358 26.7568 39.5811 26.7035 39.8245 26.6647C39.8447 26.718 39.8701 26.7761 39.8904 26.8294C39.6419 26.8682 39.4137 26.9214 39.2109 26.9747C38.643 27.1345 38.2931 27.3379 38.2931 27.5558C38.2931 27.7738 38.643 27.9772 39.2109 28.137C39.6216 28.2532 40.1388 28.3355 40.7169 28.3791C40.7575 28.4372 40.793 28.5002 40.8386 28.5631M42.9328 28.505C42.5119 28.5583 42.0505 28.5874 41.5586 28.5874C41.4673 28.5874 41.371 28.5874 41.2797 28.5874C41.2392 28.5292 41.1986 28.4711 41.158 28.4082C41.2899 28.4082 41.4217 28.413 41.5586 28.413C42.02 28.413 42.4612 28.3888 42.8618 28.3404C42.8871 28.3936 42.9074 28.4518 42.9328 28.505ZM40.2859 27.4638C39.9969 26.9117 39.794 26.3839 39.6825 25.948C39.5253 25.3233 39.5608 24.8584 39.8346 24.7082C40.1084 24.5581 40.5496 24.7567 41.0363 25.2022C41.1834 25.3378 41.3406 25.4976 41.4978 25.6768C41.4572 25.7204 41.4217 25.7688 41.3811 25.8124C41.2189 25.6284 41.0617 25.4637 40.9096 25.3233C40.4836 24.931 40.1186 24.747 39.9208 24.8535C39.7231 24.9601 39.7129 25.3572 39.8549 25.9044C39.9563 26.3015 40.1388 26.7713 40.3873 27.2701C40.3518 27.3331 40.3163 27.396 40.2808 27.459L40.2859 27.4638ZM41.3862 29.1685C41.1276 28.8489 40.869 28.4808 40.6256 28.074C40.58 27.9965 40.5344 27.919 40.4887 27.8464C40.5191 27.7834 40.5546 27.7205 40.5851 27.6575C40.6459 27.7689 40.7118 27.8803 40.7777 27.9917C41.011 28.3743 41.2544 28.723 41.4927 29.0281C41.4572 29.0765 41.4166 29.1201 41.3761 29.1685H41.3862ZM42.8313 27.6575C43.1204 28.2096 43.3232 28.7375 43.4347 29.1733C43.5919 29.7981 43.5564 30.263 43.2826 30.4131C43.0088 30.5632 42.5677 30.3647 42.0809 29.9191C41.9288 29.7835 41.7767 29.6237 41.6195 29.4445C41.66 29.401 41.6955 29.3525 41.7361 29.3089C41.8983 29.493 42.0555 29.6576 42.2077 29.7981C42.6336 30.1903 42.9987 30.3744 43.1964 30.2678C43.3942 30.1613 43.4043 29.7642 43.2623 29.2169C43.1609 28.8198 42.9784 28.3501 42.7299 27.8512C42.7654 27.7883 42.8009 27.7253 42.8364 27.6624L42.8313 27.6575ZM42.4865 27.0473C42.5322 27.1248 42.5778 27.2023 42.6234 27.2798C42.593 27.3427 42.5575 27.4057 42.522 27.4687C42.4612 27.3573 42.3953 27.2459 42.3293 27.1345C42.0961 26.7519 41.8527 26.4032 41.6093 26.0933C41.6499 26.0449 41.6854 26.0013 41.7259 25.9528C41.9845 26.2725 42.2381 26.6405 42.4865 27.0473ZM42.1062 28.6648C41.7462 29.1782 41.3761 29.614 41.0363 29.924C40.5496 30.3695 40.1084 30.5681 39.8346 30.418C39.5608 30.2678 39.5202 29.8029 39.6825 29.1782C39.7332 28.9845 39.7991 28.7762 39.8853 28.5583C39.9462 28.568 40.007 28.5777 40.0679 28.5874C39.9817 28.815 39.9107 29.0281 39.86 29.2218C39.718 29.769 39.7332 30.1661 39.9259 30.2727C40.1236 30.3792 40.4836 30.1952 40.9146 29.8029C41.224 29.522 41.5586 29.1346 41.8882 28.6794C41.9643 28.6794 42.0353 28.6794 42.1113 28.6697L42.1062 28.6648ZM41.5586 26.534C41.6499 26.534 41.7462 26.534 41.8375 26.534C41.8781 26.5921 41.9186 26.6502 41.9592 26.7132C41.8274 26.7132 41.6955 26.7083 41.5586 26.7083C41.3862 26.7083 41.2138 26.7083 41.0516 26.718C40.9603 26.8536 40.8741 26.9892 40.7879 27.1345C40.5546 27.5171 40.362 27.8948 40.2048 28.2484C40.1439 28.2387 40.0831 28.2338 40.0222 28.2241C40.1845 27.8512 40.3873 27.4541 40.6307 27.0522C40.6966 26.9456 40.7625 26.8391 40.8284 26.7325C40.6307 26.7471 40.438 26.7616 40.2555 26.7858C40.2301 26.7325 40.2098 26.6744 40.1845 26.6212C40.4228 26.5921 40.6814 26.5679 40.9451 26.5534C41.3254 26.0013 41.7158 25.5315 42.0809 25.2071C42.5677 24.7615 43.0088 24.563 43.2826 24.7131C43.5564 24.8632 43.597 25.3281 43.4347 25.9528C43.379 26.1708 43.3029 26.4081 43.2015 26.6599C43.4804 26.7035 43.7339 26.7568 43.957 26.8197C44.6061 26.9989 45.0066 27.2653 45.0066 27.5655C45.0066 27.8658 44.6061 28.1321 43.957 28.3113C43.7593 28.3646 43.5362 28.413 43.2928 28.4566C43.2725 28.4033 43.2471 28.3452 43.2269 28.2919C43.4753 28.2532 43.7035 28.1999 43.9063 28.1467C44.4742 27.9868 44.8241 27.7834 44.8241 27.5655C44.8241 27.3476 44.4742 27.1442 43.9063 26.9844C43.6781 26.9214 43.4195 26.8681 43.1356 26.8246C42.9682 27.2217 42.7502 27.6478 42.4865 28.0789C42.4409 28.1563 42.3953 28.2338 42.3446 28.3065C42.2685 28.3113 42.1975 28.3162 42.1215 28.321C42.1924 28.2145 42.2584 28.1079 42.3243 27.9965C42.5727 27.5849 42.7806 27.1781 42.9429 26.8003C42.7654 26.7761 42.5829 26.7616 42.3902 26.7471C42.3496 26.689 42.3091 26.626 42.2685 26.5631C42.5271 26.5776 42.7756 26.6018 43.0088 26.6357C43.1102 26.379 43.1914 26.1369 43.2471 25.9189C43.3891 25.3717 43.3739 24.9746 43.1812 24.8681C42.9835 24.7615 42.6234 24.9455 42.1924 25.3378C41.8629 25.6381 41.5028 26.0545 41.158 26.5534C41.2848 26.5534 41.4166 26.5485 41.5434 26.5485L41.5586 26.534Z" fill="#DA690B"/>
<path d="M36.2702 14.7028C36.2499 14.6738 36.2296 14.6399 36.2144 14.606C36.1434 14.4607 36.1333 14.2863 36.1992 14.1217C36.2093 14.0975 36.2195 14.0733 36.2296 14.0539L36.397 14.112C36.397 14.112 36.3716 14.1556 36.3615 14.1798C36.3158 14.3009 36.3209 14.4268 36.3716 14.5333L36.2702 14.7028ZM37.0916 13.7682C37.2438 13.8311 37.3553 13.9473 37.4212 14.0829C37.4821 14.2089 37.4973 14.3541 37.4618 14.4946L37.2945 14.4365C37.3147 14.3396 37.2995 14.2379 37.259 14.1556C37.2083 14.0539 37.1221 13.9667 37.0004 13.9183L37.0866 13.773L37.0916 13.7682ZM36.0674 15.0515C35.9812 14.9692 35.9102 14.8675 35.8595 14.7658C35.7479 14.5333 35.7276 14.2573 35.8291 13.9958C35.8392 13.9716 35.8493 13.9473 35.8595 13.928L36.0217 13.9861C36.0217 13.9861 36.0015 14.0297 35.9913 14.0539C35.9051 14.2718 35.9203 14.4994 36.0167 14.698C36.0522 14.7706 36.0978 14.8433 36.1536 14.9014L36.0623 15.0515H36.0674ZM37.8319 14.6302C37.8319 14.6302 37.8167 14.6738 37.8066 14.698C37.7052 14.9595 37.5024 15.1532 37.259 15.2598C37.117 15.3227 36.9649 15.3518 36.8077 15.3518L37.1119 15.1387C37.1119 15.1387 37.1626 15.1193 37.1829 15.1096C37.3147 15.0515 37.4364 14.9595 37.5277 14.8433L37.8319 14.6302ZM37.2894 13.4437C37.5125 13.5502 37.6798 13.7246 37.7812 13.928C37.8826 14.1411 37.908 14.388 37.8319 14.6253L37.6697 14.5672C37.7255 14.3735 37.7052 14.1701 37.624 13.9958C37.5429 13.8214 37.3959 13.6761 37.2083 13.589L37.2945 13.4437H37.2894ZM35.8848 15.3615C35.7327 15.2355 35.6161 15.0806 35.5299 14.9062C35.3778 14.5914 35.3524 14.2185 35.4944 13.8699C35.6313 13.5212 35.9051 13.2548 36.2347 13.1144C36.3868 13.0466 36.5491 13.0078 36.7164 12.9981L36.3665 13.2451C36.3665 13.2451 36.326 13.2597 36.3057 13.2693C36.1282 13.3468 35.971 13.4631 35.8493 13.6083L35.5552 13.8166L35.6871 13.865C35.6871 13.865 35.6668 13.9134 35.6567 13.9328C35.535 14.2379 35.5603 14.5624 35.6921 14.8384C35.7581 14.9789 35.8544 15.1048 35.9761 15.2162L35.8899 15.3663L35.8848 15.3615ZM37.4719 13.1386C37.761 13.279 37.9841 13.5115 38.1159 13.7827C38.268 14.0975 38.2934 14.4704 38.1514 14.8191C38.0145 15.1677 37.7407 15.4341 37.4111 15.5745C37.1018 15.7101 36.7468 15.7392 36.402 15.6375L36.5846 15.5116C36.8432 15.56 37.1068 15.5261 37.3401 15.4244C37.6291 15.2985 37.8674 15.066 37.9891 14.7609C38.1108 14.4558 38.0855 14.1314 37.9536 13.8553C37.8421 13.618 37.6443 13.4146 37.3857 13.2887L37.4719 13.1434V13.1386ZM35.7175 15.6423C35.5045 15.4777 35.3372 15.2694 35.2257 15.037C35.038 14.6496 35.0076 14.1895 35.18 13.7536C35.3473 13.3226 35.6871 12.9933 36.0978 12.8141C36.4172 12.6737 36.7823 12.6252 37.1423 12.6882L36.9395 12.8286C36.6708 12.8093 36.4071 12.8577 36.1739 12.9594C35.8037 13.1192 35.4995 13.4146 35.3473 13.8021C35.1952 14.1895 35.2206 14.606 35.3879 14.9547C35.4843 15.1581 35.6262 15.3372 35.8088 15.4825L35.7226 15.6278L35.7175 15.6423ZM37.6393 12.8577C37.9942 13.0369 38.2629 13.3178 38.4201 13.6471C38.6077 14.0345 38.6382 14.4946 38.4658 14.9304C38.2984 15.3615 37.9587 15.6908 37.548 15.87C37.1373 16.0491 36.6606 16.0782 36.2043 15.9135C36.1637 15.899 36.1181 15.8796 36.0775 15.8651L36.2398 15.7489C36.2398 15.7489 36.255 15.7537 36.2651 15.7586C36.6708 15.9039 37.1068 15.8796 37.4719 15.7198C37.8421 15.56 38.1463 15.2646 38.2984 14.8772C38.4506 14.4897 38.4252 14.0733 38.2579 13.7246C38.1159 13.4243 37.8725 13.1725 37.548 13.0127L37.6342 12.8674L37.6393 12.8577ZM35.5654 15.9039C35.2966 15.7053 35.0837 15.4486 34.9468 15.1629C34.7287 14.7028 34.6932 14.1653 34.891 13.6568C35.0887 13.1483 35.4893 12.7608 35.966 12.5526C36.4223 12.354 36.9497 12.3153 37.4567 12.4703L37.2792 12.5962C36.8533 12.4945 36.4172 12.5381 36.0369 12.7027C35.5958 12.8964 35.2358 13.2451 35.0532 13.71C34.8707 14.175 34.9011 14.6689 35.104 15.0903C35.2256 15.3469 35.4133 15.5745 35.6465 15.7586L35.5603 15.9039H35.5654ZM37.7914 12.601C38.2021 12.8093 38.5165 13.1386 38.699 13.526C38.9171 13.9861 38.9526 14.5236 38.7548 15.0321C38.557 15.5406 38.1565 15.9281 37.6798 16.1363C37.1981 16.3446 36.6353 16.3785 36.1029 16.1896C36.0015 16.1508 35.9 16.1073 35.8088 16.0588L35.966 15.9474C36.0319 15.9813 36.0978 16.0056 36.1688 16.0298C36.6556 16.2041 37.1728 16.1751 37.6139 15.9813C38.0551 15.7876 38.4201 15.4389 38.6027 14.974C38.7852 14.5091 38.7548 14.0151 38.552 13.5938C38.3846 13.2403 38.0956 12.9352 37.7153 12.7463L37.8015 12.601H37.7914ZM37.9435 12.3444C38.4151 12.5865 38.77 12.9594 38.983 13.4049C39.2365 13.9328 39.2771 14.5527 39.0489 15.1387C38.8207 15.7247 38.3644 16.1654 37.8117 16.4075C37.259 16.6497 36.6099 16.6884 35.9964 16.4705C35.8341 16.4124 35.682 16.3397 35.54 16.2525L35.6921 16.146C35.8088 16.2138 35.9305 16.2671 36.0572 16.3155C36.6251 16.5189 37.2285 16.4802 37.7407 16.2574C38.2528 16.0346 38.6737 15.6278 38.8866 15.0806C39.0996 14.5382 39.059 13.9619 38.8258 13.4727C38.628 13.0611 38.2984 12.7124 37.8624 12.4896L37.9486 12.3444H37.9435ZM37.6545 12.2184C37.69 12.233 37.7255 12.2427 37.7559 12.2572L37.5886 12.3734C37.0206 12.17 36.4223 12.2088 35.9102 12.4315C35.3981 12.6543 34.9772 13.0611 34.7642 13.6083C34.5513 14.1507 34.5918 14.727 34.8251 15.2162C34.9721 15.531 35.2054 15.807 35.4995 16.0201L35.4133 16.1654C35.0887 15.9329 34.8352 15.6278 34.6679 15.284C34.4143 14.7561 34.3738 14.1362 34.602 13.5502C34.8301 12.9642 35.2865 12.5235 35.8392 12.2814C36.3919 12.0393 37.0409 12.0005 37.6545 12.2184ZM38.0956 12.0877C38.623 12.3589 39.0235 12.7851 39.2619 13.279C39.5458 13.8747 39.5914 14.5769 39.3328 15.2404C39.0742 15.9039 38.557 16.4027 37.9334 16.6739C37.3097 16.9451 36.5744 16.9887 35.8848 16.7417C35.6617 16.6642 35.4589 16.5576 35.2713 16.4317L35.4183 16.3252C35.5806 16.4269 35.753 16.5141 35.9406 16.5819C36.5896 16.8143 37.2742 16.7707 37.8573 16.5189C38.4404 16.2671 38.9221 15.7973 39.1655 15.1774C39.4089 14.5575 39.3633 13.9038 39.0996 13.3468C38.8765 12.8819 38.5013 12.4848 38.0043 12.2281L38.0905 12.0828L38.0956 12.0877ZM37.761 11.9424C37.8573 11.9763 37.9486 12.015 38.0398 12.0586L37.8827 12.17C37.8218 12.1458 37.766 12.1216 37.7052 12.0974C37.0561 11.8649 36.3716 11.9085 35.7885 12.1603C35.2054 12.4122 34.7237 12.8819 34.4803 13.5018C34.2369 14.1217 34.2825 14.7755 34.5462 15.3324C34.7237 15.7005 34.9924 16.0249 35.3473 16.2719L35.2611 16.4172C34.8758 16.1508 34.5817 15.8022 34.389 15.4002C34.105 14.8045 34.0594 14.1023 34.318 13.4388C34.5766 12.7754 35.0938 12.2766 35.7175 12.0054C36.3412 11.7342 37.0764 11.6906 37.7711 11.9376L37.761 11.9424Z" fill="#DA690B"/>
<path d="M20.0243 34.3261C18.9696 34.3261 18.1127 35.1446 18.1127 36.1519C18.1127 37.1592 18.9696 37.9776 20.0243 37.9776C21.079 37.9776 21.9359 37.1592 21.9359 36.1519C21.9359 35.1446 21.079 34.3261 20.0243 34.3261ZM20.0243 34.084C20.6226 34.084 21.1652 34.3164 21.5556 34.6893C21.946 35.0622 22.1894 35.5804 22.1894 36.1519C22.1894 36.7233 21.946 37.2415 21.5556 37.6144C21.1652 37.9873 20.6226 38.2198 20.0243 38.2198C19.426 38.2198 18.8834 37.9873 18.493 37.6144C18.1025 37.2415 17.8591 36.7233 17.8591 36.1519C17.8591 35.5804 18.1025 35.0622 18.493 34.6893C18.8834 34.3164 19.426 34.084 20.0243 34.084Z" fill="#FDD503"/>
<path fill-rule="evenodd" clip-rule="evenodd" d="M21.1242 36.6793C21.1242 36.6793 21.1546 36.6793 21.1698 36.6793C21.0583 36.6987 20.9721 36.7955 20.9721 36.9117C20.9721 37.028 21.0583 37.12 21.1698 37.1442C21.1546 37.1442 21.1394 37.1442 21.1242 37.1442C20.9873 37.1442 20.8757 37.0377 20.8757 36.9069C20.8757 36.7761 20.9873 36.6696 21.1242 36.6696M21.5501 35.8802C21.5501 35.8802 21.5958 35.8802 21.616 35.8851C21.4639 35.9141 21.3473 36.04 21.3473 36.195C21.3473 36.35 21.4639 36.4759 21.616 36.5049C21.5958 36.5049 21.5755 36.5098 21.5501 36.5098C21.3676 36.5098 21.2205 36.3693 21.2205 36.195C21.2205 36.0207 21.3676 35.8802 21.5501 35.8802ZM21.0481 35.4928C21.0735 35.4928 21.1039 35.4928 21.1293 35.5025C20.9366 35.5364 20.7946 35.6962 20.7946 35.8899C20.7946 36.0836 20.9366 36.2434 21.1293 36.2773C21.1039 36.2822 21.0786 36.287 21.0481 36.287C20.82 36.287 20.6323 36.1078 20.6323 35.8899C20.6323 35.672 20.82 35.4928 21.0481 35.4928ZM20.2368 36.1175C20.2368 36.1175 20.2064 36.1175 20.1963 36.1272C20.4549 36.1853 20.6526 36.4081 20.6526 36.6744C20.6526 36.9408 20.4599 37.1636 20.1963 37.2217C20.5157 37.2556 20.7743 36.9359 20.7743 36.6744C20.7743 36.3839 20.5614 36.1127 20.2368 36.1175ZM20.0188 37.1539V36.195C19.8515 36.2919 19.7348 36.471 19.7348 36.6744C19.7348 36.8778 19.8464 37.057 20.0188 37.1539ZM19.385 36.9456C19.385 36.9456 19.4053 36.9456 19.4103 36.9456C19.2531 36.9795 19.1365 37.1103 19.1365 37.2701C19.1365 37.4299 19.2633 37.58 19.4357 37.6091C19.4154 37.6091 19.4002 37.6091 19.3799 37.6091C19.1872 37.6091 19.03 37.459 19.03 37.275C19.03 37.0909 19.1872 36.9408 19.3799 36.9408L19.385 36.9456ZM20.3028 37.5994C20.3028 37.459 20.1963 37.3427 20.0543 37.3185C20.0442 37.3185 20.034 37.3185 20.0289 37.3234C19.9022 37.3573 19.8058 37.4687 19.8058 37.5994C19.816 37.7399 19.887 37.8319 20.034 37.8464C20.2013 37.827 20.2977 37.7108 20.3028 37.5994ZM20.0644 35.0472C20.2419 35.0763 20.3788 35.2167 20.3788 35.3911C20.3788 35.5654 20.2419 35.7059 20.0644 35.7301C19.887 35.701 19.7501 35.5606 19.7501 35.3911C19.7501 35.2216 19.887 35.0763 20.0644 35.0472ZM19.9174 34.9165C19.7856 34.9165 19.6841 34.8148 19.6841 34.6937C19.6841 34.5969 19.745 34.5145 19.8363 34.4855C19.8768 34.4709 19.9123 34.4709 19.9478 34.4758C19.8464 34.5 19.7653 34.5872 19.7653 34.6937C19.7653 34.8196 19.9427 34.8971 19.9326 34.9165C19.9326 34.9165 19.9275 34.9165 19.9174 34.9165ZM20.0239 34.2627C21.1141 34.2627 21.9963 35.1054 21.9963 36.1466C21.9963 37.1878 21.1141 38.0304 20.0239 38.0304V37.8851C20.0239 37.8851 20.0137 37.8851 20.0087 37.8851C19.8464 37.8851 19.7095 37.7592 19.7095 37.5994C19.7095 37.4396 19.8413 37.3137 20.0087 37.3137C20.0137 37.3137 20.0188 37.3137 20.0239 37.3137V37.2217C19.7602 37.1684 19.5624 36.9408 19.5624 36.6744C19.5624 36.4081 19.7602 36.1805 20.0239 36.1272V35.7495C20.0239 35.7495 20.0087 35.7495 19.9985 35.7495C19.7906 35.7495 19.6233 35.5896 19.6233 35.3911C19.6233 35.1925 19.7906 35.0327 19.9985 35.0327C20.0087 35.0327 20.0137 35.0327 20.0239 35.0327V34.8923C20.0999 34.8535 20.1506 34.7809 20.1506 34.6937C20.1506 34.6065 20.0999 34.5291 20.0239 34.4952V34.2675V34.2627Z" fill="#FDD503"/>
<path d="M17.3361 33.7352C17.3361 33.7352 17.3514 33.7546 17.3564 33.7643C17.3869 33.803 17.4274 33.8321 17.468 33.8563C16.8747 34.4568 16.5147 35.2656 16.5147 36.1518C16.5147 38.0018 18.0866 39.4982 20.0185 39.4982C21.9504 39.4982 23.5223 37.9969 23.5223 36.1518C23.5223 34.3067 21.9504 32.8054 20.0185 32.8054C19.3188 32.8054 18.6646 33.004 18.117 33.3381C18.1018 33.2945 18.0765 33.2558 18.041 33.217C18.0308 33.2074 18.0257 33.1977 18.0156 33.188C18.5937 32.8345 19.2782 32.6262 20.0134 32.6262C22.0518 32.6262 23.7048 34.205 23.7048 36.1518C23.7048 38.0986 22.0518 39.6774 20.0134 39.6774C17.975 39.6774 16.322 38.0986 16.322 36.1518C16.322 35.2172 16.7023 34.3648 17.326 33.7352" fill="#FDD503"/>
<path fill-rule="evenodd" clip-rule="evenodd" d="M17.7726 33.8713L18.0819 33.6292L18.4926 34.1038L18.1833 34.3459L17.7726 33.8713ZM16.9512 32.927L17.2605 32.6848L17.6306 33.111L17.3213 33.3531L16.9512 32.927ZM17.5394 33.3095C17.6458 33.2272 17.803 33.2417 17.8892 33.3386C17.9754 33.4403 17.9602 33.5904 17.8588 33.6728C17.7523 33.7551 17.5951 33.7406 17.5089 33.6437C17.4227 33.5468 17.438 33.3919 17.5394 33.3095Z" fill="#FDD503"/>
<path fill-rule="evenodd" clip-rule="evenodd" d="M30.3021 30.4521C32.9084 30.4521 35.0178 32.4716 35.0178 34.956C35.0178 37.4404 32.9033 39.4599 30.3021 39.4599C27.7009 39.4599 25.5864 37.4404 25.5864 34.956C25.5864 32.4716 27.7009 30.4521 30.3021 30.4521Z" fill="#EB9601"/>
<path fill-rule="evenodd" clip-rule="evenodd" d="M27.8277 32.5579C28.35 32.5143 28.8621 32.5675 29.3489 32.7467C29.5619 32.2915 29.8813 31.9089 30.2768 31.5893C29.8357 31.5893 29.3844 31.6716 28.9483 31.846C28.5173 32.0155 28.137 32.2624 27.8226 32.5579M29.3844 32.7516C29.7292 32.9356 30.0385 33.2165 30.3022 33.633C30.5658 33.2213 30.8701 32.9404 31.2149 32.7564C30.9309 32.6499 30.6216 32.5869 30.2971 32.5869C29.9726 32.5869 29.6683 32.645 29.3844 32.7516ZM26.773 34.9309C27.1128 34.5483 27.5133 34.2383 27.99 34.0349C27.8024 33.57 27.7466 33.0857 27.7871 32.5869C27.4778 32.8872 27.2192 33.2504 27.0367 33.6669C26.8592 34.0785 26.773 34.5095 26.768 34.9309H26.773ZM28.0204 34.0156C28.4007 33.909 28.8266 33.9042 29.3235 34.0156C29.2019 33.5458 29.212 33.139 29.3235 32.7758C29.0447 32.892 28.781 33.0567 28.5477 33.2794C28.3196 33.4974 28.1472 33.7492 28.0255 34.0156H28.0204ZM25.9719 33.1584C26.5448 32.8242 27.133 32.5918 27.7415 32.5046C27.8328 31.9283 28.0711 31.3665 28.421 30.8241C27.8936 31.042 27.3967 31.3568 26.9657 31.7733C26.5347 32.185 26.2051 32.6547 25.9769 33.1584H25.9719ZM27.7821 37.3232C27.7364 36.8244 27.7922 36.3353 27.9798 35.8704C27.5032 35.667 27.1026 35.3619 26.768 34.9841C26.768 35.4055 26.8592 35.8365 27.0367 36.253C27.2142 36.6646 27.4728 37.0278 27.7821 37.3281V37.3232ZM27.9849 35.8316C28.1776 35.5023 28.4717 35.2069 28.9078 34.9551C28.4768 34.7032 28.1827 34.4127 27.99 34.0834C27.8784 34.3546 27.8125 34.65 27.8125 34.9599C27.8125 35.2698 27.8733 35.5604 27.9849 35.8316ZM25.9009 36.6065C26.0581 35.9818 26.3015 35.4248 26.6665 34.9502C26.3015 34.4805 26.0581 33.9235 25.9009 33.3037C25.6879 33.817 25.5713 34.3739 25.5713 34.9551C25.5713 35.5362 25.6879 36.0931 25.8958 36.6016L25.9009 36.6065ZM30.2667 38.3257C29.8661 38.0012 29.5467 37.6186 29.3286 37.1634C28.8418 37.3426 28.3348 37.3959 27.8125 37.3571C28.1269 37.6525 28.5072 37.8995 28.9433 38.0739C29.3743 38.2434 29.8255 38.3257 30.2667 38.3305V38.3257ZM29.3083 37.1344C29.1968 36.7711 29.1917 36.3643 29.3083 35.8897C28.8165 36.006 28.3906 35.9963 28.0103 35.8897C28.132 36.1561 28.3044 36.4079 28.5376 36.6307C28.7658 36.8486 29.0294 37.0133 29.3083 37.1295V37.1344ZM28.4108 39.0909C28.061 38.5436 27.8176 37.9818 27.7263 37.4007C27.1229 37.3135 26.5347 37.0859 25.9668 36.7518C26.195 37.2554 26.5246 37.73 26.9606 38.1417C27.3916 38.5533 27.8835 38.8681 28.4108 39.086V39.0909ZM32.7716 37.362C32.2493 37.4056 31.7372 37.3523 31.2504 37.1731C31.0374 37.6283 30.718 38.0109 30.3225 38.3305C30.7636 38.3305 31.2149 38.2482 31.651 38.0739C32.082 37.9044 32.4623 37.6574 32.7766 37.362H32.7716ZM31.2098 37.1683C30.865 36.9842 30.5557 36.7033 30.292 36.2869C30.0284 36.6985 29.7241 36.9794 29.3793 37.1634C29.6633 37.2699 29.9726 37.3329 30.2971 37.3329C30.6216 37.3329 30.9259 37.2748 31.2098 37.1683ZM32.0211 39.1587C31.367 39.0085 30.7839 38.7761 30.287 38.4274C29.7951 38.7761 29.212 39.0085 28.563 39.1587C29.1004 39.3621 29.6836 39.4734 30.292 39.4734C30.9005 39.4734 31.4836 39.3621 32.016 39.1635L32.0211 39.1587ZM33.8212 34.989C33.4814 35.3716 33.0809 35.6815 32.6042 35.8849C32.7918 36.3498 32.8476 36.8341 32.8071 37.3329C33.1164 37.0326 33.375 36.6694 33.5575 36.253C33.735 35.8413 33.8212 35.4103 33.8263 34.989H33.8212ZM32.5738 35.9043C32.1935 36.0108 31.7676 36.0157 31.2707 35.9043C31.3924 36.374 31.3822 36.7808 31.2707 37.144C31.5495 37.0278 31.8132 36.8631 32.0465 36.6404C32.2746 36.4224 32.447 36.1706 32.5687 35.9043H32.5738ZM34.6223 36.7614C34.0494 37.0956 33.4612 37.3281 32.8527 37.4152C32.7614 37.9915 32.5231 38.5533 32.1732 39.0957C32.7006 38.8778 33.1975 38.563 33.6285 38.1465C34.0595 37.73 34.3891 37.2651 34.6173 36.7614H34.6223ZM32.8121 32.5966C32.8578 33.0954 32.802 33.5845 32.6144 34.0495C33.091 34.2529 33.4916 34.558 33.8263 34.9357C33.8263 34.5144 33.735 34.0834 33.5575 33.6669C33.38 33.2552 33.1214 32.892 32.8121 32.5918V32.5966ZM32.6093 34.0882C32.4166 34.4175 32.1225 34.7129 31.6865 34.9648C32.1175 35.2166 32.4115 35.5072 32.6042 35.8365C32.7158 35.5653 32.7817 35.2698 32.7817 34.9599C32.7817 34.65 32.7209 34.3594 32.6093 34.0882ZM34.6933 33.3133C34.5361 33.9381 34.2927 34.495 33.9277 34.9696C34.2927 35.4394 34.5361 35.9963 34.6933 36.6162C34.9063 36.1028 35.0229 35.5459 35.0229 34.9648C35.0229 34.3836 34.9063 33.8267 34.6984 33.3182L34.6933 33.3133ZM30.3275 31.5941C30.7281 31.9186 31.0476 32.3012 31.2656 32.7564C31.7524 32.5772 32.2594 32.524 32.7817 32.5627C32.4673 32.2673 32.087 32.0203 31.651 31.846C31.22 31.6765 30.7687 31.5941 30.3275 31.5893V31.5941ZM31.2859 32.7855C31.3974 33.1487 31.4025 33.5555 31.2859 34.0301C31.7777 33.9139 32.2037 33.9235 32.5839 34.0301C32.4623 33.7637 32.2899 33.5119 32.0566 33.2891C31.8284 33.0712 31.5648 32.9065 31.2859 32.7903V32.7855ZM31.2757 34.0398C31.2757 34.0398 31.2504 34.0107 31.2352 34.001C31.1185 33.8993 30.9816 33.8122 30.8295 33.7492C30.6774 33.6911 30.5253 33.6572 30.3681 33.6523C30.3478 33.6523 30.3275 33.6523 30.3072 33.6523C30.287 33.6523 30.2667 33.6523 30.2464 33.6523C30.0892 33.6572 29.9269 33.6911 29.7748 33.7492C29.6227 33.8073 29.4909 33.8896 29.3793 33.9913C29.3641 34.0059 29.3489 34.0204 29.3388 34.0349C29.3235 34.0495 29.3083 34.0591 29.2982 34.0737C29.1917 34.1851 29.1004 34.3158 29.0345 34.4611C28.9737 34.6064 28.9382 34.7517 28.9331 34.9018C28.9331 34.9212 28.9331 34.9405 28.9331 34.9599C28.9331 34.9793 28.9331 34.9987 28.9331 35.018C28.9382 35.1682 28.9737 35.3231 29.0345 35.4684C29.0954 35.6137 29.1816 35.7396 29.288 35.8461C29.3033 35.8607 29.3185 35.8752 29.3337 35.8849C29.3489 35.8994 29.359 35.9139 29.3743 35.9285C29.4909 36.0302 29.6278 36.1174 29.7799 36.1803C29.932 36.2384 30.0841 36.2723 30.2413 36.2772C30.2616 36.2772 30.2819 36.2772 30.3022 36.2772C30.3225 36.2772 30.3427 36.2772 30.363 36.2772C30.5202 36.2723 30.6825 36.2384 30.8346 36.1803C30.9867 36.1222 31.1185 36.0399 31.2301 35.9382C31.2453 35.9236 31.2605 35.9091 31.2707 35.8946C31.2859 35.88 31.3011 35.8704 31.3163 35.8558C31.4228 35.7445 31.5141 35.6137 31.58 35.4636C31.6408 35.3183 31.6763 35.173 31.6814 35.0229C31.6814 35.0035 31.6814 34.9841 31.6814 34.9648C31.6814 34.9454 31.6814 34.926 31.6814 34.9066C31.6763 34.7565 31.6408 34.6015 31.58 34.4563C31.5191 34.311 31.4329 34.1851 31.3264 34.0785C31.3112 34.064 31.296 34.0495 31.2808 34.0398H31.2757ZM30.3022 33.9381C30.3732 34.1511 30.4137 34.4078 30.4137 34.7129C30.6419 34.4998 30.8549 34.3449 31.0628 34.2432C30.9563 34.4417 30.794 34.65 30.5709 34.8631C30.8904 34.8631 31.154 34.9018 31.3771 34.9696C31.154 35.0374 30.8853 35.0761 30.5658 35.0761C30.789 35.2941 30.9512 35.4975 31.0577 35.696C30.8498 35.5943 30.6318 35.4394 30.4087 35.2263C30.4087 35.5314 30.3681 35.7832 30.2971 35.9963C30.2261 35.7832 30.1856 35.5265 30.1856 35.2214C29.9574 35.4345 29.7444 35.5895 29.5365 35.6912C29.643 35.4926 29.8053 35.2844 30.0334 35.0713C29.714 35.0713 29.4503 35.0326 29.2272 34.9648C29.4503 34.897 29.7191 34.8582 30.0385 34.8582C29.8154 34.6403 29.6531 34.4369 29.5467 34.2383C29.7545 34.34 29.9726 34.495 30.1957 34.7081C30.1957 34.403 30.2363 34.1511 30.3072 33.9381H30.3022ZM32.1834 30.8338C32.5332 31.381 32.7766 31.9428 32.8679 32.524C33.4713 32.6111 34.0595 32.8387 34.6274 33.1729C34.3992 32.6692 34.0696 32.1946 33.6336 31.783C33.2026 31.3714 32.7107 31.0566 32.1834 30.8386V30.8338ZM28.5731 30.7708C29.2272 30.921 29.8103 31.1534 30.3072 31.5021C30.7991 31.1534 31.3822 30.921 32.0313 30.7708C31.4938 30.5674 30.9106 30.4561 30.3022 30.4561C29.6937 30.4561 29.1106 30.5674 28.5782 30.766L28.5731 30.7708Z" fill="#FDD503"/>
<path d="M42.7957 18.6208C42.669 18.4997 42.4966 18.4271 42.3039 18.4271C41.9185 18.4271 41.6041 18.7274 41.6041 19.0954C41.6041 19.4635 41.9185 19.7637 42.3039 19.7637C42.4966 19.7637 42.669 19.6911 42.7957 19.57C42.9225 19.4489 42.9986 19.2843 42.9986 19.1003C42.9986 18.9162 42.9225 18.7516 42.7957 18.6305M41.5686 18.6886L40.4075 18.0494L40.0322 18.6692L40.6864 19.0325H41.452C41.4622 18.9114 41.5027 18.7952 41.5636 18.6935L41.5686 18.6886ZM41.9134 18.3787L41.4216 17.4343L40.5292 17.9477L41.6599 18.5724C41.7309 18.4949 41.8171 18.4271 41.9134 18.3787ZM42.2278 18.2915V17.4053H41.5737L42.0554 18.3254C42.1112 18.3109 42.167 18.2963 42.2278 18.2915ZM43.1507 19.0276H43.4042V17.4053H42.3799V18.2915C42.5828 18.3109 42.7704 18.3932 42.9073 18.524C43.0442 18.6547 43.1355 18.8291 43.1507 19.0276ZM42.3799 19.909V20.5773H43.7642V19.1729H43.1507C43.1304 19.3666 43.0442 19.5458 42.9073 19.6766C42.7704 19.8073 42.5878 19.8945 42.3799 19.9139V19.909ZM42.2278 16.5481C42.2785 16.5626 42.3292 16.5771 42.3799 16.5965V17.2551H43.4042V17.1534C43.5006 17.2309 43.5969 17.3132 43.6831 17.4004H43.5563V19.0228H44.5958C44.6059 19.0712 44.6161 19.1196 44.6262 19.1681H43.9163V21.7735C43.8656 21.8316 43.8149 21.8897 43.7642 21.943V20.7178H42.3799V22.8244C42.3292 22.8438 42.2785 22.8583 42.2278 22.8728V19.9042C42.0504 19.8896 41.8881 19.8218 41.7563 19.7201L40.9145 20.5241V23.0084C40.8638 23.0084 40.8131 22.9988 40.7624 22.9939V20.5337L38.6733 19.3811L37.8924 20.6742C37.8722 20.6112 37.8519 20.5434 37.8367 20.4756L38.5415 19.3085L37.8417 18.9211C37.8519 18.8726 37.8671 18.8242 37.8823 18.7758L39.3122 19.5652L39.8294 18.7128L38.3235 17.8799C38.3539 17.8411 38.3792 17.7975 38.4097 17.7588L39.9055 18.5821L40.2807 17.9622L38.9269 17.2164C38.9674 17.1825 39.008 17.1486 39.0536 17.1147L40.3872 17.8508L41.3608 17.289L40.8993 16.4076C40.9551 16.4076 41.0109 16.3979 41.0667 16.3979L41.5078 17.2454H42.238V16.5384L42.2278 16.5481ZM41.4571 19.1729H40.6711L40.6306 19.1632L39.9562 18.7903L39.439 19.6427L40.8233 20.4078L41.6498 19.6184C41.5433 19.4925 41.4723 19.3424 41.4571 19.1729Z" fill="#FDD503"/>
<path fill-rule="evenodd" clip-rule="evenodd" d="M6.50007 32.7475C6.71811 32.4277 6.62684 31.9966 6.28711 31.7883C5.95245 31.5801 5.50116 31.6672 5.28313 31.9918C5.06509 32.3115 5.15636 32.7426 5.49609 32.9509C5.83075 33.1592 6.28204 33.072 6.50007 32.7475Z" fill="#FDD503"/>
<path fill-rule="evenodd" clip-rule="evenodd" d="M5.24852 19.5652C5.49698 19.202 5.3905 18.7177 5.0102 18.4804C4.6299 18.2431 4.12284 18.3448 3.87438 18.708C3.62592 19.0712 3.7324 19.5555 4.1127 19.7928C4.493 20.0301 5.00006 19.9284 5.24852 19.5652Z" fill="#FDD503"/>
<path fill-rule="evenodd" clip-rule="evenodd" d="M5.20249 26.418C6.13041 26.418 6.88593 27.1396 6.88593 28.0258C6.88593 28.912 6.13041 29.6336 5.20249 29.6336C4.27456 29.6336 3.51904 28.912 3.51904 28.0258C3.51904 27.1396 4.27456 26.418 5.20249 26.418Z" fill="#EB9601"/>
<path fill-rule="evenodd" clip-rule="evenodd" d="M32.6145 15.778L31.9401 17.2212H30.9818L32.1429 14.7513L31.0578 12.4171H32.0162L32.65 13.7876L33.294 12.4171H34.2523L33.1317 14.8143L34.2523 17.226H33.294L32.6196 15.7829L32.6145 15.778ZM29.6989 13.4583C29.6989 13.3566 29.6736 13.2694 29.5924 13.2016C29.491 13.1193 29.3085 13.1048 29.1817 13.1048C29.0549 13.1048 28.8825 13.1193 28.7811 13.2016C28.7 13.2694 28.6746 13.3566 28.6746 13.4583V16.18C28.6746 16.2817 28.7 16.3689 28.7811 16.4318C28.8825 16.5141 29.0651 16.5335 29.1918 16.5335C29.3186 16.5335 29.491 16.519 29.5924 16.4367C29.6736 16.3689 29.6989 16.2817 29.6989 16.18V13.4583ZM30.5964 16.18C30.5964 16.5045 30.4899 16.7999 30.2364 17.0178C29.9575 17.2599 29.5569 17.3229 29.1918 17.3229C28.8268 17.3229 28.4262 17.2599 28.1422 17.0178C27.8836 16.7999 27.7721 16.5045 27.7721 16.1751V13.4535C27.7721 13.129 27.8786 12.8336 28.1321 12.6156C28.411 12.3735 28.8115 12.3105 29.1766 12.3105C29.5417 12.3105 29.9423 12.3735 30.2263 12.6156C30.4849 12.8336 30.5964 13.129 30.5964 13.4583V16.18ZM25.181 15.0758V16.4318H25.6323C25.7438 16.4318 25.8858 16.4173 25.972 16.3398C26.0481 16.272 26.0683 16.1751 26.0683 16.0783V15.4681C26.0683 15.3615 26.0379 15.2647 25.9619 15.1824C25.8807 15.1 25.7489 15.0807 25.6323 15.0807H25.181V15.0758ZM25.181 13.2016V14.3494H25.5562C25.6678 14.3494 25.8047 14.33 25.8858 14.2477C25.9619 14.1654 25.9923 14.0685 25.9923 13.962V13.5552C25.9923 13.4583 25.972 13.3663 25.8959 13.2936C25.8097 13.2162 25.6728 13.2016 25.5613 13.2016H25.1861H25.181ZM26.6058 14.6884C26.8441 14.8627 26.9608 15.1291 26.9608 15.4632V16.0734C26.9608 16.3931 26.8644 16.6836 26.621 16.9064C26.3574 17.1486 25.9821 17.2164 25.6272 17.2164H24.2784V12.4122H25.5562C25.9112 12.4122 26.2813 12.48 26.545 12.7222C26.7884 12.945 26.8898 13.2404 26.8898 13.56V13.9668C26.8898 14.2622 26.7985 14.514 26.6058 14.6932V14.6884ZM21.1955 12.6641C21.2614 12.6011 21.3375 12.543 21.4186 12.4946C21.6163 12.3687 21.8395 12.3105 22.0778 12.3105C22.3161 12.3105 22.5848 12.3444 22.7978 12.4607C22.9803 12.5624 23.1223 12.7028 23.2085 12.8868C23.2896 13.066 23.3251 13.2549 23.3251 13.4535V17.2164H22.4276V13.4535C22.4276 13.3566 22.4124 13.2501 22.3567 13.1677C22.3161 13.1096 22.1488 13.0999 22.0879 13.0999C21.9764 13.0999 21.8699 13.129 21.7735 13.1871C21.6772 13.2452 21.5859 13.313 21.52 13.405C21.4845 13.4535 21.4389 13.5261 21.4389 13.5939V17.2212H20.5414V12.4171H21.0941L21.1955 12.6689V12.6641ZM18.8579 16.9597C18.7869 17.0226 18.7109 17.0808 18.6298 17.134C18.432 17.2551 18.214 17.3181 17.9756 17.3181C17.7373 17.3181 17.4737 17.2842 17.2607 17.1679C17.0731 17.0662 16.9311 16.9209 16.8449 16.7369C16.7638 16.5577 16.7283 16.3689 16.7283 16.1751V12.4122H17.6258V16.1751C17.6258 16.272 17.641 16.3737 17.7018 16.4609C17.7424 16.5238 17.9047 16.5287 17.9706 16.5287C18.0872 16.5287 18.1886 16.4996 18.285 16.4463C18.3813 16.3882 18.4675 16.3156 18.5334 16.2284C18.5689 16.18 18.6145 16.1073 18.6145 16.0395V12.4122H19.512V17.2164H18.9644L18.8579 16.9597Z" fill="#FDD503"/>
<path d="M33.4202 17.0329L32.614 15.3088L31.8077 17.0329H31.2855L32.3554 14.7519L31.3565 12.6065H31.8787L32.6393 14.2531L33.4151 12.6065H33.9374L32.903 14.81L33.9374 17.028H33.4151L33.4202 17.0329ZM29.9012 13.4588C29.9012 13.2845 29.8403 13.1537 29.7237 13.0569C29.6071 12.96 29.4245 12.9116 29.1812 12.9116C28.9378 12.9116 28.7654 12.96 28.6487 13.0569C28.5321 13.1537 28.4763 13.2845 28.4763 13.4588V16.1805C28.4763 16.35 28.5372 16.4808 28.6538 16.5776C28.7704 16.6745 28.953 16.7229 29.1964 16.7229C29.4398 16.7229 29.6122 16.6745 29.7288 16.5776C29.8454 16.4808 29.9012 16.3452 29.9012 16.1805V13.4588ZM30.3981 16.1805C30.3981 16.4759 30.3018 16.7084 30.104 16.8779C29.9063 17.0474 29.602 17.1346 29.1964 17.1346C28.7907 17.1346 28.4814 17.0474 28.2786 16.8779C28.0758 16.7084 27.9744 16.4759 27.9744 16.1805V13.4588C27.9744 13.1634 28.0707 12.931 28.2684 12.7615C28.4662 12.592 28.7704 12.5048 29.1761 12.5048C29.5817 12.5048 29.891 12.592 30.0939 12.7615C30.2967 12.931 30.3981 13.1634 30.3981 13.4588V16.1805ZM26.2656 15.4638C26.2656 15.2943 26.2098 15.1587 26.1033 15.0473C25.9968 14.9408 25.8396 14.8826 25.6317 14.8826H24.9827V16.6164H25.6317C25.8447 16.6164 26.007 16.568 26.1084 16.4711C26.2148 16.3742 26.2656 16.2386 26.2656 16.074V15.4638ZM26.1946 13.5557C26.1946 13.3862 26.1388 13.2554 26.0323 13.1586C25.9258 13.0617 25.7686 13.0133 25.5607 13.0133H24.9827V14.5436H25.5607C25.7737 14.5436 25.936 14.4904 26.0374 14.379C26.1439 14.2724 26.1946 14.132 26.1946 13.9625V13.5557ZM25.5607 12.6017C25.941 12.6017 26.225 12.6888 26.4126 12.8583C26.6002 13.0278 26.6966 13.2603 26.6966 13.5557V13.9625C26.6966 14.3499 26.5292 14.5969 26.1895 14.7035C26.5749 14.8052 26.7675 15.057 26.7675 15.4589V16.0691C26.7675 16.3646 26.6763 16.597 26.4887 16.7665C26.301 16.936 26.0171 17.0232 25.6317 17.0232H24.4858V12.5968H25.5607V12.6017ZM20.7437 17.028V12.6017H20.9566L21.1341 13.0424C21.2355 12.8825 21.3673 12.7518 21.5296 12.6501C21.6919 12.5484 21.8795 12.4951 22.0823 12.4951C22.346 12.4951 22.5488 12.5387 22.7009 12.621C22.853 12.7034 22.9646 12.8196 23.0305 12.96C23.0964 13.1053 23.1319 13.2651 23.1319 13.4443V17.0183H22.635V13.4443C22.635 13.2893 22.5995 13.1586 22.5336 13.0569C22.4626 12.9503 22.3206 12.9019 22.0975 12.9019C21.9505 12.9019 21.8136 12.9407 21.6817 13.0133C21.5499 13.0859 21.4485 13.178 21.3673 13.2845C21.2913 13.391 21.2507 13.4879 21.2507 13.5799V17.0183H20.7538L20.7437 17.028ZM16.9306 12.6017H17.4275V16.1757C17.4275 16.3307 17.463 16.4614 17.534 16.5631C17.6049 16.6697 17.752 16.7181 17.97 16.7181C18.1221 16.7181 18.2641 16.6793 18.3909 16.6067C18.5177 16.5341 18.6241 16.442 18.7002 16.3355C18.7763 16.229 18.8168 16.1321 18.8168 16.0401V12.6017H19.3137V17.028H19.1008L18.9132 16.5922C18.8117 16.7471 18.6799 16.8731 18.5177 16.9748C18.3554 17.0765 18.1729 17.1297 17.97 17.1297C17.7114 17.1297 17.5086 17.0861 17.3514 17.0038C17.1993 16.9215 17.0877 16.8053 17.0218 16.66C16.9559 16.5147 16.9204 16.3549 16.9204 16.1757V12.6017H16.9306Z" fill="#7C0632"/>
<path fill-rule="evenodd" clip-rule="evenodd" d="M18.9998 25.7738V29.067H19.588C19.7604 29.067 20.0342 29.0476 20.1762 28.941C20.2827 28.8587 20.3131 28.6311 20.3182 28.51C20.3283 28.2437 20.3435 27.9773 20.3486 27.711C20.3486 27.5221 20.3486 27.3381 20.3486 27.154C20.3486 26.9652 20.3435 26.7763 20.3334 26.5923C20.3283 26.384 20.2928 26.1031 20.1458 25.9385C20.0241 25.8077 19.8568 25.7738 19.6844 25.7738H18.9998ZM18.9998 20.5048V23.6914H19.5728C19.7351 23.6914 19.9328 23.672 20.0444 23.5509C20.1711 23.4202 20.2168 23.2216 20.2269 23.0473C20.2472 22.7616 20.2573 22.471 20.2573 22.1853C20.2573 21.8656 20.2523 21.546 20.2421 21.2215C20.2421 21.0859 20.2168 20.7324 20.0951 20.6404C19.943 20.529 19.7148 20.5048 19.5272 20.5048H18.9998ZM30.6166 20.5048V24.6261H31.3011C31.4431 24.6261 31.6814 24.6115 31.7981 24.5292C31.8691 24.4759 31.8843 24.2919 31.8843 24.2144C31.9045 23.6914 31.9096 23.1684 31.9096 22.6502C31.9096 22.1175 31.8995 21.5896 31.8843 21.0569C31.8843 20.96 31.864 20.6791 31.7727 20.6113C31.6459 20.5193 31.4533 20.4999 31.3011 20.4999H30.6115L30.6166 20.5048ZM21.8952 24.689C22.0574 24.8246 22.1994 24.9844 22.316 25.1636C22.5848 25.5704 22.7014 26.0305 22.7166 26.5099C22.7166 26.6794 22.7217 26.8489 22.7318 27.0184C22.7318 27.1782 22.7369 27.3332 22.7369 27.4833C22.7369 27.6432 22.7369 27.8078 22.7267 27.9676C22.7217 28.1613 22.7115 28.3502 22.6963 28.5439C22.6608 29.0718 22.5493 29.6384 22.245 30.084C21.9763 30.4859 21.6011 30.7668 21.1295 30.9315C20.6427 31.101 20.1052 31.1542 19.588 31.1542H16.6116V18.4224H19.5221C20.0596 18.4224 20.6123 18.4805 21.1193 18.6597C21.6061 18.8292 21.9864 19.1391 22.245 19.5701C22.5341 20.0544 22.6152 20.6549 22.6203 21.2022C22.6253 21.4395 22.6304 21.6719 22.6355 21.9092C22.6355 22.1078 22.6355 22.3063 22.6304 22.5097C22.6253 22.718 22.6152 22.9214 22.6 23.1296C22.5695 23.5413 22.4681 23.9529 22.24 24.3064C22.1436 24.4517 22.027 24.5825 21.8952 24.6939V24.689ZM28.2537 31.1542H23.102V18.4224H25.475V29.0718L28.2284 29.0766V18.4224H31.3011C31.8183 18.4224 32.3558 18.4756 32.8426 18.6548C33.2939 18.8243 33.6539 19.11 33.8973 19.5168C34.161 19.9575 34.2472 20.4903 34.2675 20.9939C34.2827 21.5508 34.2979 22.1078 34.2979 22.6647C34.2979 23.2119 34.2877 23.7543 34.2675 24.3016C34.2472 24.7665 34.166 25.2702 33.9125 25.6721C33.7401 25.9482 33.4967 26.1612 33.2128 26.3259L34.5311 31.1542H32.0516L30.8549 26.7133H30.6166V31.1542H28.2588H28.2537Z" fill="#FDD503"/>
<path fill-rule="evenodd" clip-rule="evenodd" d="M30.363 20.2624V24.868H31.301C31.5089 24.868 31.7777 24.8438 31.9501 24.7227C32.1022 24.6162 32.1377 24.3934 32.1428 24.2239C32.163 23.7009 32.1681 23.173 32.1681 22.65C32.1681 22.1173 32.158 21.5845 32.1428 21.0518C32.1377 20.8581 32.1073 20.5482 31.9349 20.4223C31.7625 20.2963 31.5241 20.2624 31.3112 20.2624H30.368H30.363ZM18.7462 25.5315V29.3089H19.5879C19.8262 29.3089 20.1355 29.2798 20.3333 29.1346C20.5158 28.999 20.5615 28.7326 20.5716 28.5244C20.5868 28.258 20.597 27.9868 20.602 27.7156C20.602 27.5267 20.602 27.3379 20.602 27.149C20.602 26.9601 20.597 26.7712 20.5868 26.5824C20.5818 26.3112 20.531 25.9867 20.3384 25.7785C20.171 25.5896 19.9378 25.5315 19.6843 25.5315H18.7462ZM18.7462 20.2624V23.9333H19.5727C19.811 23.9333 20.0595 23.8897 20.2319 23.7202C20.4043 23.5459 20.4651 23.2989 20.4803 23.0665C20.5006 22.7759 20.5108 22.4805 20.5108 22.1899C20.5108 21.8654 20.5057 21.5458 20.4956 21.2213C20.4956 20.9937 20.4601 20.6063 20.2471 20.4562C20.0443 20.306 19.7705 20.2673 19.522 20.2673H18.7411L18.7462 20.2624ZM22.3717 21.2068C22.3767 21.4393 22.3818 21.6766 22.3869 21.909C22.3869 22.1076 22.3869 22.3013 22.3818 22.4998C22.3768 22.7032 22.3666 22.9066 22.3514 23.11C22.321 23.4781 22.2348 23.8607 22.0269 24.1803C21.8849 24.4031 21.6871 24.5677 21.459 24.6985C21.7226 24.8389 21.9356 25.0423 22.1029 25.299C22.3463 25.6719 22.4528 26.0884 22.463 26.5243C22.463 26.6938 22.468 26.8633 22.4782 27.0328C22.4782 27.1877 22.4832 27.3379 22.4832 27.4928C22.4832 27.6478 22.4832 27.8076 22.4731 27.9674C22.468 28.1563 22.4579 28.3452 22.4427 28.5389C22.4122 29.0232 22.3108 29.5559 22.0319 29.9675C21.7936 30.3259 21.464 30.5729 21.0432 30.7182C20.5818 30.878 20.0747 30.9264 19.5879 30.9264H16.865V18.6788H19.522C20.024 18.6788 20.5564 18.7321 21.033 18.9016C21.464 19.0517 21.7987 19.3229 22.0269 19.7007C22.2905 20.1462 22.3615 20.7177 22.3717 21.2213V21.2068ZM24.5622 18.6643H25.2264V29.3089L28.0051 29.3137V30.9119H23.3605V18.6643H24.5622ZM29.1562 30.9119H28.4868V18.6643H31.3061C31.7878 18.6643 32.2999 18.7127 32.7512 18.8774C33.1518 19.0275 33.4611 19.2793 33.6741 19.6329C33.9175 20.0397 33.9935 20.5385 34.0087 20.9986C34.024 21.5555 34.0392 22.1076 34.0392 22.6645C34.0392 23.2069 34.029 23.7493 34.0087 24.2869C33.9935 24.7082 33.9175 25.1779 33.6893 25.546C33.5017 25.8414 33.2279 26.0545 32.9135 26.1998L34.2014 30.9119H32.2492L31.0526 26.471H30.363V30.9119H29.1562Z" fill="#7C0632"/>
<path d="M29.5823 25.5457H31.3013C31.8134 25.5457 32.2089 25.4537 32.4827 25.2745C32.7616 25.0953 32.9087 24.7515 32.9289 24.2527C32.9543 23.6957 32.9644 23.1582 32.9644 22.64C32.9644 22.1218 32.9492 21.5842 32.9289 21.0322C32.9036 20.4704 32.7565 20.0878 32.4777 19.8844C32.1988 19.6858 31.8083 19.5841 31.3063 19.5841H29.5773V25.5409L29.5823 25.5457ZM29.2781 30.2336V19.3372H31.3114C31.7171 19.3372 32.0568 19.3856 32.3357 19.4873C32.6146 19.5841 32.8275 19.7585 32.9847 20.0055C33.1368 20.2525 33.223 20.5866 33.2383 21.0225C33.2585 21.531 33.2687 22.0637 33.2687 22.6012C33.2737 23.1436 33.2636 23.6957 33.2383 24.2623C33.218 24.7273 33.1064 25.0711 32.9087 25.3084C32.7109 25.5409 32.3915 25.691 31.9554 25.7588L33.2078 30.2384H32.8934L31.6511 25.7878C31.6004 25.7878 31.5447 25.7927 31.4838 25.7975C31.423 25.7975 31.3672 25.7975 31.3063 25.7975H29.5874V30.2384H29.2832L29.2781 30.2336ZM24.1416 30.2384V19.3372H24.4407V29.9866H27.2955V30.2336H24.1416V30.2384ZM17.9605 29.9818H19.5882C20.1358 29.9818 20.5566 29.8801 20.8558 29.6718C21.155 29.4684 21.3223 29.081 21.3527 28.5095C21.3679 28.219 21.3781 27.9671 21.3781 27.754C21.3781 27.541 21.3781 27.3424 21.3781 27.1535C21.3781 26.9695 21.373 26.7661 21.3629 26.5482C21.3426 25.9719 21.1854 25.5457 20.8913 25.2697C20.5972 24.9936 20.1814 24.858 19.649 24.858H17.9503V29.9818H17.9605ZM17.9605 24.611H19.5729C20.1054 24.611 20.511 24.4803 20.7899 24.2236C21.0688 23.9669 21.231 23.5795 21.2716 23.0758C21.2868 22.8821 21.2919 22.6933 21.297 22.5044C21.302 22.3155 21.302 22.117 21.297 21.9087C21.297 21.6956 21.2868 21.468 21.2817 21.2162C21.2716 20.5721 21.1144 20.1411 20.8051 19.9231C20.5009 19.7052 20.0749 19.5938 19.5273 19.5938H17.9605V24.6159V24.611ZM17.6562 30.2384V19.342H19.5273C19.9685 19.342 20.3386 19.3953 20.6428 19.5067C20.9471 19.618 21.1753 19.8069 21.3375 20.0781C21.4998 20.3493 21.5809 20.7271 21.591 21.2113C21.5961 21.4583 21.6012 21.6811 21.6063 21.8845C21.6063 22.0879 21.6063 22.2865 21.6063 22.4753C21.6063 22.6642 21.591 22.8676 21.5758 23.0758C21.5454 23.4826 21.4339 23.8265 21.2361 24.0928C21.0383 24.3592 20.7341 24.5578 20.3234 24.6885V24.7273C20.7544 24.8483 21.0891 25.0614 21.3172 25.3617C21.5454 25.6571 21.6671 26.0494 21.6772 26.5385C21.6874 26.737 21.6925 26.9356 21.6925 27.1293C21.6925 27.323 21.6925 27.5313 21.6925 27.754C21.6925 27.9768 21.6772 28.2335 21.662 28.5241C21.6215 29.1924 21.4237 29.6428 21.0738 29.8801C20.7189 30.1174 20.2271 30.2384 19.5983 30.2384H17.6664H17.6562Z" fill="#FDD503"/>
</svg>
