<svg width="29" height="28" viewBox="0 0 29 28" fill="none" xmlns="http://www.w3.org/2000/svg">
<path fill-rule="evenodd" clip-rule="evenodd" d="M14.8574 26.25C21.6229 26.25 27.1074 20.7655 27.1074 14C27.1074 7.23451 21.6229 1.75 14.8574 1.75C8.09193 1.75 2.60742 7.23451 2.60742 14C2.60742 16.197 3.18579 18.259 4.19859 20.0418L2.60742 26.25L9.00793 24.7658C10.7461 25.7123 12.739 26.25 14.8574 26.25ZM14.8574 24.3654C20.5821 24.3654 25.2228 19.7246 25.2228 14C25.2228 8.27536 20.5821 3.63462 14.8574 3.63462C9.13278 3.63462 4.49204 8.27536 4.49204 14C4.49204 16.2103 5.18386 18.259 6.36278 19.9414L5.43435 23.4231L8.97736 22.5373C10.6481 23.6902 12.6739 24.3654 14.8574 24.3654Z" fill="white"/>
<path d="M11.7949 8.31246C11.5037 7.72746 11.0569 7.77925 10.6055 7.77925C9.79884 7.77925 8.54102 8.74549 8.54102 10.5438C8.54102 12.0176 9.19044 13.6308 11.3788 16.0442C13.4907 18.3732 16.2656 19.578 18.5693 19.537C20.8731 19.496 21.347 17.5136 21.347 16.8441C21.347 16.5474 21.1629 16.3993 21.036 16.3591C20.251 15.9823 18.8031 15.2803 18.4736 15.1484C18.1442 15.0165 17.9722 15.1949 17.8652 15.292C17.5665 15.5767 16.9743 16.4157 16.7715 16.6045C16.5687 16.7932 16.2664 16.6977 16.1406 16.6263C15.6777 16.4406 14.4225 15.8822 13.422 14.9124C12.1846 13.7129 12.112 13.3002 11.8788 12.9328C11.6923 12.639 11.8292 12.4586 11.8975 12.3798C12.1641 12.0722 12.5322 11.5973 12.6973 11.3613C12.8624 11.1253 12.7313 10.767 12.6527 10.5438C12.3145 9.58395 12.0279 8.78047 11.7949 8.31246Z" fill="white"/>
</svg>
