<svg width="29" height="29" viewBox="0 0 29 29" fill="none" xmlns="http://www.w3.org/2000/svg">
<path d="M11.9743 18.0746L18.159 14.4996L11.9743 10.9246V18.0746ZM25.7499 8.74388C25.9048 9.30396 26.0121 10.0547 26.0836 11.008C26.167 11.9614 26.2028 12.7836 26.2028 13.4986L26.2743 14.4996C26.2743 17.1094 26.0836 19.028 25.7499 20.2554C25.452 21.3279 24.7608 22.019 23.6883 22.317C23.1283 22.4719 22.1034 22.5791 20.5304 22.6506C18.9813 22.734 17.5632 22.7698 16.2523 22.7698L14.3576 22.8413C9.3645 22.8413 6.25425 22.6506 5.02683 22.317C3.95433 22.019 3.26317 21.3279 2.96525 20.2554C2.81033 19.6953 2.70308 18.9445 2.63158 17.9912C2.54817 17.0379 2.51242 16.2156 2.51242 15.5006L2.44092 14.4996C2.44092 11.8899 2.63158 9.97129 2.96525 8.74388C3.26317 7.67138 3.95433 6.98021 5.02683 6.68229C5.58692 6.52738 6.61175 6.42013 8.18475 6.34863C9.73392 6.26521 11.152 6.22946 12.4628 6.22946L14.3576 6.15796C19.3507 6.15796 22.4609 6.34863 23.6883 6.68229C24.7608 6.98021 25.452 7.67138 25.7499 8.74388Z" fill="white"/>
</svg>
